<svg id="Layer_1" data-name="Layer 1" xmlns="http://www.w3.org/2000/svg" xmlns:xlink="http://www.w3.org/1999/xlink" viewBox="0 0 216 216"><defs><style>.cls-1{fill:#4579ad;}.cls-2{fill:none;}.cls-3{clip-path:url(#clip-path);}.cls-4{fill:#ededed;}.cls-5{clip-path:url(#clip-path-2);}.cls-6{fill:#dcdbdb;}.cls-7{fill:#c6c6c5;}.cls-8{clip-path:url(#clip-path-3);}.cls-9{fill:#b3b3b3;}.cls-10{fill:#f7fcfe;}.cls-11{fill:#0c0512;}.cls-12{fill:#1e1b23;}.cls-13{clip-path:url(#clip-path-4);}</style><clipPath id="clip-path" transform="translate(-189.19 -200.05)"><circle class="cls-1" cx="297.19" cy="308.05" r="67.34"/></clipPath><clipPath id="clip-path-2" transform="translate(-189.19 -200.05)"><path class="cls-2" d="M347.39,288.35V275.12a22.4,22.4,0,0,0-22.4-22.4h-3.51a55.33,55.33,0,0,0-55.33,55.33h0l-2.51,6.59a30.5,30.5,0,0,1-8.11,11.86h0a39.84,39.84,0,0,0-8.94,11.76l-7.16,14.33,48.58,37,37-15.66,4.58-18.1c3.81-15.05-.06-33.43-6.12-47.62a4,4,0,0,1,1-4.64Z"/></clipPath><clipPath id="clip-path-3" transform="translate(-189.19 -200.05)"><path class="cls-2" d="M246.31,355.15,283.87,314a24.79,24.79,0,0,1,23.68-7.49h0a24.78,24.78,0,0,1,18.91,19.23c2.18,10.62,3.64,25.25.22,40-6.55,28.18-77.67,5.65-77.67,5.24S246.31,355.15,246.31,355.15Z"/></clipPath><clipPath id="clip-path-4" transform="translate(-189.19 -200.05)"><path class="cls-2" d="M347.34,273.62s-3.86-2.28-8.59,2.45-4.72,6.07-4.45,9.44,8.1,10.13,8.1,10.13.13,11.33-3.78,13.09,7.15-1.35,11.2-12.82S348.91,275.23,347.34,273.62Z"/></clipPath></defs><title>research-portfolio</title><circle class="cls-1" cx="108" cy="108" r="108"/><circle class="cls-2" cx="108" cy="108" r="86.49"/><circle class="cls-1" cx="108" cy="108" r="67.34"/><g class="cls-3"><path class="cls-4" d="M347.39,288.35V275.12a22.4,22.4,0,0,0-22.4-22.4h-3.51a55.33,55.33,0,0,0-55.33,55.33h0l-2.51,6.59a30.5,30.5,0,0,1-8.11,11.86h0a39.84,39.84,0,0,0-8.94,11.76l-7.16,14.33,48.58,37,37-15.66,4.58-18.1c3.81-15.05-.06-33.43-6.12-47.62a4,4,0,0,1,1-4.64Z" transform="translate(-189.19 -200.05)"/><g class="cls-5"><path class="cls-6" d="M335.78,248.67s-55.06,6.76-56.95,57.23-39.4,64.77-39.4,64.77-27.27-65.95-27.27-67.12,111.12-75.93,111.12-75.93Z" transform="translate(-189.19 -200.05)"/></g><path class="cls-7" d="M246.31,355.15,283.87,314a24.79,24.79,0,0,1,23.68-7.49h0a24.78,24.78,0,0,1,18.91,19.23c2.18,10.62,3.64,25.25.22,40-6.55,28.18-77.67,5.65-77.67,5.24S246.31,355.15,246.31,355.15Z" transform="translate(-189.19 -200.05)"/><g class="cls-8"><path class="cls-9" d="M312.81,305.9s-6.09-4.06-25.3,19.43-42.69,52.09-42.69,52.09l-22.4-34.54,72.34-56.36Z" transform="translate(-189.19 -200.05)"/></g><path class="cls-6" d="M320.8,300.36l-8.35-16.28a12.15,12.15,0,0,1,6.2-15.9h0a12.16,12.16,0,0,1,16,6.05l1.26,2.76a12.2,12.2,0,0,1,1.07,5.89l-.11,1.59a12.16,12.16,0,0,1-6.32,9.85l-9.78,6" transform="translate(-189.19 -200.05)"/><path class="cls-10" d="M320.8,300.36l-7-16.28a12.15,12.15,0,0,1,6.2-15.9h0a12.16,12.16,0,0,1,16,6.05l1.26,2.76a12.2,12.2,0,0,1,1.07,5.89l-.11,1.59a12.16,12.16,0,0,1-6.32,9.85l-11.13,6" transform="translate(-189.19 -200.05)"/><circle class="cls-11" cx="136.25" cy="72.19" r="2.16"/><path class="cls-11" d="M320.8,300.36s1.29,4.39,9.55,2.87,11.88-3.93,11.88-3.93l4.08-12.44s-9.94-1.45-15.11,1.62C326.47,291.28,324.18,293.61,320.8,300.36Z" transform="translate(-189.19 -200.05)"/><path class="cls-12" d="M347.34,273.62s-3.86-2.28-8.59,2.45-4.72,6.07-4.45,9.44,8.1,10.13,8.1,10.13.13,11.33-3.78,13.09,7.15-1.35,11.2-12.82S348.91,275.23,347.34,273.62Z" transform="translate(-189.19 -200.05)"/><g class="cls-13"><path class="cls-11" d="M334.7,277.28s.18,2.88,3.78,7.83a90.85,90.85,0,0,0,6.57,8.1s1,11.89-7,16-7.82-30.73-7.82-30.73Z" transform="translate(-189.19 -200.05)"/></g></g></svg>