<svg id="Layer_1" data-name="Layer 1" xmlns="http://www.w3.org/2000/svg" viewBox="0 0 347.95 223.07"><defs><style>.cls-1,.cls-2{fill:none;stroke:#94bbe3;stroke-miterlimit:10;stroke-width:2px;}.cls-2{stroke-linecap:round;}</style></defs><title>luckycat-portfolio</title><path class="cls-1" d="M249.64,198.79s12.06-6.33,31.27,18.2c0,0,37.48-8.85,65.38,17.27,0,0,38-14.1,45.9.89s-14.76,39.4-14.76,39.4-2.86,27.58-21.25,39.85c0,0,3.87,8.66.74,15.2,0,0-9.17,9-5.62,16.91s11.23,5.08,11.23,5.08,26,9.06,21.1,31.14c0,0-4,17.06-21.16,23.19l-21.26,12.81s-10.36,1.91-11.45-2.45c0,0-3.27,2.18-7.9-2.45,0,0-6-1.36-8.18-4.09,0,0-41.42,2.32-63.23-12.81S230,352.22,230,352.22s0-24.53,9.54-40.06c0,0-1.36-4.22,1.09-12.81,0,0-9.9-21-4.45-37.06s14.91-23,14.91-23S234,209,245.56,200.15Z" transform="translate(-207.42 -197.06)"/><path class="cls-1" d="M356.18,316.31s-38.41,14.79-64.57,9.48a145.3,145.3,0,0,1-39.84-14.32,26.48,26.48,0,0,1-11.12-12.11" transform="translate(-207.42 -197.06)"/><path class="cls-1" d="M239.89,312.55s5,13.37,10.3,14.6c0,0,2.59-2.59,7.63-1.64S272.26,337,272.26,337a106.71,106.71,0,0,0,82.85-4.09" transform="translate(-207.42 -197.06)"/><line class="cls-1" x1="64.81" y1="140.05" x2="65.73" y2="142"/><path class="cls-1" d="M233.75,376.22s-17.59,1.23-21.71-9.82c0,0-2.73-7.21-1.58-9.82L209,352.3s-2.18-2.53,2.3-6.73l1.11-1.51s1.82-7.33,6.14-11.45c0,0,10.81-10.3,15.25-8.44" transform="translate(-207.42 -197.06)"/><path class="cls-2" d="M219.8,343.19s-6.34,2-6.26,6.73,1.82,4.59,1.82,4.59" transform="translate(-207.42 -197.06)"/><path class="cls-2" d="M227,343.5a7.06,7.06,0,0,0-4.52,6c-.24,4.52,1.82,5.07,1.82,5.07" transform="translate(-207.42 -197.06)"/><path class="cls-2" d="M327.11,406.54s-4.71,0-5.24,7.27" transform="translate(-207.42 -197.06)"/><path class="cls-2" d="M334.72,409.08s-5.25-.58-5,7.18" transform="translate(-207.42 -197.06)"/><path class="cls-1" d="M398.17,340.75" transform="translate(-207.42 -197.06)"/><path class="cls-1" d="M534.21,282.51c52.24-55.34-13.56-48.18-13.56-48.18C491.29,215.61,445,219.6,445,219.6c-6.17-8.36-34.14-21.2-43.6-13.34s7,42.8,7,42.8c-6.27,21.3,9.36,40.81,9.36,40.81l-3.13,1.91-1.53,6.6c-1.09,3.35,1.17,7.54,1.17,7.54-1.93,3.1-1,4.86-1,4.86l5,2,8-2c4.86,5.78,0,12.06,0,12.06l-8.88,2.85v4.19s-18.4-5.73-18.73,13.92" transform="translate(-207.42 -197.06)"/><polyline class="cls-1" points="268.63 202.67 268.63 209.71 275.57 205.95"/><path class="cls-1" d="M543.7,271.54s9.05,27.67-30,52.24" transform="translate(-207.42 -197.06)"/><path class="cls-1" d="M523.05,317.18s3.78,9.13-10.48,21.49" transform="translate(-207.42 -197.06)"/><path class="cls-1" d="M523.79,407.33s38-8.18,14.14-48.37c0,0,2.13-17.05-14.43-37" transform="translate(-207.42 -197.06)"/><path class="cls-1" d="M398.53,213.48l1.88-2.62a12.51,12.51,0,0,1,12.83-3.59c11.46,3.53,24.59,17.51,24.59,17.51,3.57-3.58,27.89-.4,27.89-.4s24.39,2.39,37.93,18.42c0,0,33.19-14.42,43.94-1.59s-13.36,41.31-13.36,41.31S533,306.43,512.79,322c0,0,5.17,8.32-.22,16.64,0,0,8-.71,6.64,20.77,0,0,19.37,6.52,20.71,23.78s-7.23,21.47-16.61,24.07l-3.18-1.84-3.18,4.19-22.51-9.81-1,7.68L476,399.72l22.46-12.37s-10.2-14.09-34.75-14.76l-12.82,6.12,0,6.62-10.56,5.36v-7l-12.06-5.19v-6.87l-16.52-7.94S403.11,361,398.21,347" transform="translate(-207.42 -197.06)"/><path class="cls-1" d="M511.84,321.9s23.76-11.95-17.78-26.44S413.25,298,413.25,298" transform="translate(-207.42 -197.06)"/><path class="cls-1" d="M504.69,242.42s18.74-6.41,28.14,11.24,1.38,28.85,1.38,28.85" transform="translate(-207.42 -197.06)"/><path class="cls-1" d="M546.73,241.15l-11.44,5.13c-1.41,3.32,2.25,2.83,2.25,2.83l11.75-4.81" transform="translate(-207.42 -197.06)"/><path class="cls-1" d="M533.72,282.22s-8.37,4.66-22.54-5.43l25.1-11.44" transform="translate(-207.42 -197.06)"/><path class="cls-1" d="M511.18,276.79s-7.94,2.12-11.16-5.25,3.62-9.39,3.62-9.39l1.09-.41,26.9-10.15" transform="translate(-207.42 -197.06)"/><path class="cls-1" d="M501.22,269.71a4,4,0,0,1,3.34-4.35,5,5,0,0,1,4.18,1.88c2.36,2.72,1.51,9.35-4.49,6.52a4.86,4.86,0,0,1-1.24-.82A5.52,5.52,0,0,1,501.22,269.71Z" transform="translate(-207.42 -197.06)"/><path class="cls-1" d="M424.28,243.67c-1.92.86-4.43,2.08-3.94,6a23,23,0,0,0,1.07,3.52" transform="translate(-207.42 -197.06)"/><path class="cls-1" d="M423.77,243.79l21-10.14s7.64-4.9,15.2-1.36,7,7.14,7,7.14l-37.63,17.64c-3.75,1.13-7.48-3.31-7.93-3.86a.18.18,0,0,0-.12-.07" transform="translate(-207.42 -197.06)"/><path class="cls-1" d="M421.93,250.3a4,4,0,0,1,3.34-4.35,5,5,0,0,1,4.18,1.88c2.36,2.72,1.51,9.35-4.49,6.52a4.86,4.86,0,0,1-1.24-.82A5.52,5.52,0,0,1,421.93,250.3Z" transform="translate(-207.42 -197.06)"/><path class="cls-1" d="M504.18,332.1l-41.77,18.27-3.61-1.53v-9.57l10.83-4.61v-7.38l-8.8,3.18s-3.53-.27-4.9-2.85a6.05,6.05,0,0,1,0-5.23l45.34-18.92s7-1.76,5.48,9l5.89,9.5" transform="translate(-207.42 -197.06)"/><path class="cls-1" d="M469.63,332.33l-23.91,10.28-4.07-1.07v-8.85l9.7-4.36.33-8.4-8.14,3.38s-2.7.52-4.43-2.67a4.87,4.87,0,0,1,.39-5.53l44.43-18s7.9,0,5.33,8v3.19" transform="translate(-207.42 -197.06)"/><path class="cls-1" d="M442.54,317.31a1.67,1.67,0,0,0-2.37,1.58c0,.74.55,2.68,2.12,2.34C445.2,320.59,444.06,317.84,442.54,317.31Z" transform="translate(-207.42 -197.06)"/><path class="cls-1" d="M459.52,324.2a1.67,1.67,0,0,0-2.37,1.58c0,.74.55,2.68,2.12,2.34C462.18,327.48,461,324.73,459.52,324.2Z" transform="translate(-207.42 -197.06)"/><path class="cls-1" d="M513.46,323.56l-10.25,5.26-.22,2.34s.56,1.23,4.57,1.23l6.9-3" transform="translate(-207.42 -197.06)"/><path class="cls-1" d="M429.4,293,414,298.62l.05,2.63s.56,1.23,4.57,1.23l18.15-6.9" transform="translate(-207.42 -197.06)"/><path class="cls-1" d="M428.31,371.61c17.93-9.84,42.16-7.35,52.9-4.43,4.65,1.26,9.46,2.9,13.5,5.74,8.35,5.86,12.2,16.1-.91,26.71" transform="translate(-207.42 -197.06)"/><path class="cls-1" d="M415.12,352.32s.71,3.94-4,2.47a8.7,8.7,0,0,1-5.76-5.76" transform="translate(-207.42 -197.06)"/><path class="cls-1" d="M405.36,349c-1.94-4.47,2.59-5.64,2.59-5.64l29.53-12a5.94,5.94,0,0,1,4.17,1.26" transform="translate(-207.42 -197.06)"/><path class="cls-1" d="M415.12,353.5c1,.82,2.74.07,2.74.07l24.72-11.46" transform="translate(-207.42 -197.06)"/><path class="cls-1" d="M508.26,360.45c11-14.5-.37-19.7-.37-19.7-13.75-4-17.47,8.73-17.47,8.73s-4,8.35,4.61,12.37S508.26,360.45,508.26,360.45Z" transform="translate(-207.42 -197.06)"/><path class="cls-1" d="M538.72,391.3l-1.18-.65s-3.14,4.58-9,2l-6.94-3.08" transform="translate(-207.42 -197.06)"/><path class="cls-1" d="M530.47,368,511,378.72s-6.55,3.34.39,10.08,10.74.92,10.74.92" transform="translate(-207.42 -197.06)"/><path class="cls-1" d="M516.07,389.5a3.31,3.31,0,0,0,4.07-3.83,6.35,6.35,0,0,0-2.63-3.8c-4.45-3.41-6.55-.13-6.55-.13s-2.75,2.62,1.7,6A9.17,9.17,0,0,0,516.07,389.5Z" transform="translate(-207.42 -197.06)"/><path class="cls-1" d="M406.88,348.65a2.67,2.67,0,0,1,3.69-3.05A6.82,6.82,0,0,1,412.4,347a6.17,6.17,0,0,1,2.12,4.17,2.58,2.58,0,0,1-2.31,2.54c-1.27.15-2.4-.47-3.93-2A6.24,6.24,0,0,1,406.88,348.65Z" transform="translate(-207.42 -197.06)"/><path class="cls-1" d="M429.3,378.37s28.49-14.46,56.26-2.85c10.41,4.35,14.21,10,14.89,15.33" transform="translate(-207.42 -197.06)"/><path class="cls-1" d="M420.79,246.5,408,251.39s-.43,1.22,6.59,1.7l6.75.27" transform="translate(-207.42 -197.06)"/><path class="cls-1" d="M401.23,209.85l8.93,7.39s4.15,1.21,3-2.57L405,207.5" transform="translate(-207.42 -197.06)"/><path class="cls-1" d="M398.8,343.29S393,344,396.52,346l9.29,4.37" transform="translate(-207.42 -197.06)"/><line class="cls-1" x1="331.85" y1="181.9" x2="313.68" y2="192.63"/></svg>