<svg id="Layer_1" data-name="Layer 1" xmlns="http://www.w3.org/2000/svg" viewBox="0 0 288 288"><defs><style>.cls-1{fill:#fff;}.cls-2,.cls-3{fill:none;stroke:#94bbe3;stroke-miterlimit:10;stroke-width:1.62px;}.cls-3{stroke-linecap:round;}</style></defs><title>icon</title><rect class="cls-1" width="288" height="288"/><path class="cls-2" d="M277.61,230.4s9.8-5.14,25.4,14.78c0,0,30.45-7.19,53.11,14,0,0,30.86-11.46,37.29.72s-12,32-12,32-2.32,22.41-17.26,32.37c0,0,3.15,7,.6,12.35,0,0-7.45,7.32-4.57,13.74s9.12,4.13,9.12,4.13,21.13,7.36,17.14,25.3c0,0-3.24,13.86-17.19,18.84L352,409.06s-8.41,1.55-9.3-2c0,0-2.66,1.77-6.42-2,0,0-4.87-1.11-6.64-3.32,0,0-33.65,1.88-51.36-10.41S261.67,355,261.67,355s0-19.93,7.75-32.54c0,0-1.11-3.43.89-10.41,0,0-8-17-3.62-30.1s12.11-18.7,12.11-18.7-13.92-24.58-4.51-31.78Z" transform="translate(-239.89 -178.92)"/><path class="cls-2" d="M364.15,325.87s-31.2,12-52.45,7.7a118,118,0,0,1-32.37-11.64,21.51,21.51,0,0,1-9-9.84" transform="translate(-239.89 -178.92)"/><path class="cls-2" d="M269.69,322.82s4,10.86,8.36,11.86c0,0,2.1-2.1,6.2-1.33s11.73,9.3,11.73,9.3a86.69,86.69,0,0,0,67.3-3.32" transform="translate(-239.89 -178.92)"/><line class="cls-2" x1="56.07" y1="163.85" x2="56.81" y2="165.44"/><path class="cls-2" d="M264.69,374.54s-14.29,1-17.63-8c0,0-2.22-5.86-1.29-8l-1.22-3.48s-1.77-2.06,1.87-5.47l.9-1.22s1.48-6,5-9.3c0,0,8.78-8.37,12.39-6.85" transform="translate(-239.89 -178.92)"/><path class="cls-3" d="M253.37,347.7s-5.15,1.64-5.08,5.47,1.48,3.73,1.48,3.73" transform="translate(-239.89 -178.92)"/><path class="cls-3" d="M259.22,348a5.73,5.73,0,0,0-3.67,4.89C255.36,356.52,257,357,257,357" transform="translate(-239.89 -178.92)"/><path class="cls-3" d="M340.53,399.17s-3.82,0-4.26,5.9" transform="translate(-239.89 -178.92)"/><path class="cls-3" d="M346.72,401.24s-4.27-.47-4,5.83" transform="translate(-239.89 -178.92)"/><path class="cls-2" d="M398.26,345.73" transform="translate(-239.89 -178.92)"/><path class="cls-2" d="M508.78,298.41c42.44-45-11-39.14-11-39.14-23.86-15.21-61.46-12-61.46-12-5-6.79-27.74-17.22-35.42-10.84s5.66,34.77,5.66,34.77c-5.09,17.31,7.6,33.16,7.6,33.16L411.61,306l-1.24,5.36c-.88,2.72,1,6.12,1,6.12-1.57,2.52-.82,3.95-.82,3.95l4.08,1.63,6.53-1.63c3.95,4.7,0,9.8,0,9.8l-7.21,2.31v3.4s-14.95-4.65-15.22,11.31" transform="translate(-239.89 -178.92)"/><polyline class="cls-2" points="221.64 214.72 221.64 220.44 227.28 217.38"/><path class="cls-2" d="M516.49,289.5s7.35,22.48-24.41,42.44" transform="translate(-239.89 -178.92)"/><path class="cls-2" d="M499.71,326.58S502.78,334,491.2,344" transform="translate(-239.89 -178.92)"/><path class="cls-2" d="M500.32,399.81s30.86-6.65,11.48-39.3c0,0,1.73-13.85-11.72-30" transform="translate(-239.89 -178.92)"/><path class="cls-2" d="M398.56,242.33l1.53-2.13a10.17,10.17,0,0,1,10.42-2.91c9.31,2.87,20,14.22,20,14.22,2.9-2.91,22.65-.32,22.65-.32s19.81,1.94,30.81,15c0,0,27-11.72,35.7-1.29s-10.85,33.56-10.85,33.56-1,19.43-17.4,32.11c0,0,4.2,6.76-.18,13.52,0,0,6.48-.58,5.39,16.87,0,0,15.74,5.3,16.83,19.32s-5.87,17.44-13.49,19.55l-2.59-1.5-2.59,3.4-18.29-8-.84,6.24-14.09-6.33,18.25-10s-8.29-11.44-28.23-12l-10.41,5,0,5.38-8.57,4.36v-5.72l-9.8-4.22v-5.58l-13.42-6.45s-7.05-2.14-11-13.54" transform="translate(-239.89 -178.92)"/><path class="cls-2" d="M490.61,330.41s19.3-9.71-14.44-21.48S410.51,311,410.51,311" transform="translate(-239.89 -178.92)"/><path class="cls-2" d="M484.8,265.84S500,260.64,507.66,275s1.12,23.43,1.12,23.43" transform="translate(-239.89 -178.92)"/><path class="cls-2" d="M518.95,264.81,509.66,269c-1.15,2.7,1.83,2.3,1.83,2.3l9.54-3.91" transform="translate(-239.89 -178.92)"/><path class="cls-2" d="M508.38,298.18s-6.8,3.79-18.31-4.41l20.39-9.29" transform="translate(-239.89 -178.92)"/><path class="cls-2" d="M490.07,293.77s-6.45,1.72-9.07-4.27,2.94-7.63,2.94-7.63l.88-.33,21.86-8.24" transform="translate(-239.89 -178.92)"/><path class="cls-2" d="M482,288a3.25,3.25,0,0,1,2.71-3.53,4.07,4.07,0,0,1,3.4,1.53c1.92,2.21,1.23,7.59-3.65,5.3a4,4,0,0,1-1-.67A4.48,4.48,0,0,1,482,288Z" transform="translate(-239.89 -178.92)"/><path class="cls-2" d="M419.47,266.86c-1.56.7-3.6,1.69-3.2,4.84a18.68,18.68,0,0,0,.87,2.86" transform="translate(-239.89 -178.92)"/><path class="cls-2" d="M419.07,267l17.08-8.24s6.2-4,12.35-1.11,5.7,5.8,5.7,5.8l-30.57,14.33c-3,.92-6.08-2.69-6.44-3.14a.15.15,0,0,0-.1-.05" transform="translate(-239.89 -178.92)"/><path class="cls-2" d="M417.57,272.25a3.25,3.25,0,0,1,2.71-3.53,4.07,4.07,0,0,1,3.4,1.53c1.92,2.21,1.23,7.59-3.65,5.3a4,4,0,0,1-1-.67A4.48,4.48,0,0,1,417.57,272.25Z" transform="translate(-239.89 -178.92)"/><path class="cls-2" d="M484.39,338.69l-33.93,14.84-2.93-1.24v-7.78l8.8-3.75v-6l-7.15,2.59s-2.87-.22-4-2.32a4.92,4.92,0,0,1,0-4.25L482,315.44s5.69-1.43,4.45,7.31l4.79,7.72" transform="translate(-239.89 -178.92)"/><path class="cls-2" d="M456.32,338.89l-19.43,8.35-3.3-.87v-7.19l7.88-3.54.26-6.82-6.61,2.75a3.53,3.53,0,0,1-3.6-2.17,4,4,0,0,1,.32-4.49l36.1-14.66s6.41,0,4.33,6.53v2.59" transform="translate(-239.89 -178.92)"/><path class="cls-2" d="M434.31,326.68a1.36,1.36,0,0,0-1.93,1.29c0,.6.45,2.18,1.72,1.9C436.47,329.35,435.54,327.11,434.31,326.68Z" transform="translate(-239.89 -178.92)"/><path class="cls-2" d="M448.11,332.28a1.36,1.36,0,0,0-1.93,1.29c0,.6.45,2.18,1.72,1.9C450.27,334.94,449.34,332.71,448.11,332.28Z" transform="translate(-239.89 -178.92)"/><path class="cls-2" d="M491.92,331.76,483.6,336l-.18,1.9s.45,1,3.71,1l5.61-2.44" transform="translate(-239.89 -178.92)"/><path class="cls-2" d="M423.64,306.94l-12.48,4.56,0,2.14s.45,1,3.71,1l14.74-5.6" transform="translate(-239.89 -178.92)"/><path class="cls-2" d="M422.75,370.79c14.56-8,34.25-6,43-3.6a34.88,34.88,0,0,1,11,4.66c6.79,4.76,9.91,13.08-.74,21.7" transform="translate(-239.89 -178.92)"/><path class="cls-2" d="M412,355.12s.57,3.2-3.25,2a7.07,7.07,0,0,1-4.68-4.68" transform="translate(-239.89 -178.92)"/><path class="cls-2" d="M404.11,352.45a3.15,3.15,0,0,1,2.1-4.58l24-9.71a4.82,4.82,0,0,1,3.39,1" transform="translate(-239.89 -178.92)"/><path class="cls-2" d="M412,356.08c.81.67,2.23.06,2.23.06l20.08-9.31" transform="translate(-239.89 -178.92)"/><path class="cls-2" d="M487.7,361.73c8.91-11.78-.3-16-.3-16-11.17-3.25-14.19,7.1-14.19,7.1s-3.26,6.78,3.74,10S487.7,361.73,487.7,361.73Z" transform="translate(-239.89 -178.92)"/><path class="cls-2" d="M512.45,386.79l-1-.53a5.85,5.85,0,0,1-7.34,1.65l-5.64-2.5" transform="translate(-239.89 -178.92)"/><path class="cls-2" d="M505.74,367.85l-15.85,8.72s-5.32,2.71.32,8.19,8.72.74,8.72.74" transform="translate(-239.89 -178.92)"/><path class="cls-2" d="M494,385.33a2.69,2.69,0,0,0,3.31-3.11,5.16,5.16,0,0,0-2.14-3.09c-3.62-2.77-5.32-.11-5.32-.11s-2.23,2.13,1.38,4.89A7.45,7.45,0,0,0,494,385.33Z" transform="translate(-239.89 -178.92)"/><path class="cls-2" d="M405.34,352.14a2.17,2.17,0,0,1,3-2.48,5.54,5.54,0,0,1,1.48,1.12,5,5,0,0,1,1.73,3.39,2.09,2.09,0,0,1-1.87,2.06c-1,.12-1.95-.39-3.19-1.65A5.07,5.07,0,0,1,405.34,352.14Z" transform="translate(-239.89 -178.92)"/><path class="cls-2" d="M423.55,376.28s23.14-11.74,45.7-2.31c8.46,3.54,11.54,8.11,12.09,12.45" transform="translate(-239.89 -178.92)"/><path class="cls-2" d="M416.64,269.16l-10.4,4s-.35,1,5.35,1.38l5.48.22" transform="translate(-239.89 -178.92)"/><path class="cls-2" d="M400.75,239.39l7.25,6s3.37,1,2.46-2.08l-6.65-5.83" transform="translate(-239.89 -178.92)"/><path class="cls-2" d="M398.77,347.79s-4.7.55-1.85,2.16l7.55,3.55" transform="translate(-239.89 -178.92)"/><line class="cls-2" x1="273" y1="197.85" x2="258.24" y2="206.57"/></svg>