<?xml version="1.0" encoding="utf-8"?>
<!-- Generator: Adobe Illustrator 22.0.1, SVG Export Plug-In . SVG Version: 6.00 Build 0)  -->
<svg version="1.1" id="Layer_1" xmlns="http://www.w3.org/2000/svg" xmlns:xlink="http://www.w3.org/1999/xlink" x="0px" y="0px"
	 viewBox="0 0 216 216" style="enable-background:new 0 0 216 216;" xml:space="preserve">
<style type="text/css">
	.st0{fill:#4578AD;}
	.st1{fill:none;stroke:#F1F2F2;stroke-miterlimit:10;}
	.st2{fill:none;stroke:#F1F2F2;stroke-linecap:round;stroke-miterlimit:10;}
	.st3{fill:none;stroke:#F1F2F2;stroke-width:1.62;stroke-miterlimit:10;}
</style>
<title>icon</title>
<circle class="st0" cx="108" cy="108" r="108"/>
<path class="st1" d="M37.3,49.1c0,0,6.5-3.4,16.8,9.8c0,0,20.1-4.8,35.1,9.3c0,0,20.4-7.6,24.6,0.5s-7.9,21.2-7.9,21.2
	s-1.5,14.8-11.4,21.4c0,0,2.1,4.7,0.4,8.2c0,0-4.9,4.8-3,9.1c0.9,2.4,3.6,3.6,6,2.7c0,0,14,4.9,11.3,16.7c0,0-2.1,9.2-11.4,12.4
	l-11.4,6.9c0,0-5.6,1-6.1-1.3c0,0-1.8,1.2-4.2-1.3c0,0-3.2-0.7-4.4-2.2c0,0-22.2,1.2-33.9-6.9s-11-24-11-24s0-13.2,5.1-21.5
	c0,0-0.7-2.3,0.6-6.9c0,0-5.3-11.3-2.4-19.9s8-12.4,8-12.4s-9.2-16.2-3-21L37.3,49.1z"/>
<path class="st1" d="M94.5,112.2c0,0-20.6,7.9-34.7,5.1c-7.5-1.5-14.7-4.1-21.4-7.7c-2.6-1.5-4.7-3.8-6-6.5"/>
<path class="st1" d="M32,110.1c0,0,2.7,7.2,5.5,7.8c1.1-0.9,2.7-1.3,4.1-0.9c2.7,0.5,7.8,6.1,7.8,6.1c14.5,5.3,30.6,4.5,44.5-2.2"/>
<path class="st1" d="M28.8,144.3c0,0-9.4,0.7-11.6-5.3c0,0-1.5-3.9-0.9-5.3l-0.8-2.3c0,0-1.2-1.4,1.2-3.6l0.6-0.8c0,0,1-3.9,3.3-6.1
	c0,0,5.8-5.5,8.2-4.5"/>
<path class="st2" d="M21.3,126.6c0,0-3.4,1.1-3.4,3.6c0,2.5,1,2.5,1,2.5"/>
<path class="st2" d="M25.2,126.7c-1.4,0.5-2.3,1.8-2.4,3.3c-0.1,2.4,1,2.7,1,2.7"/>
<path class="st2" d="M78.9,160.6c0,0-2.5,0-2.8,3.9"/>
<path class="st2" d="M82.9,161.9c0,0-2.8-0.3-2.7,3.9"/>
<path class="st3" d="M286.4,232.9"/>
<path class="st1" d="M190,94c28-29.7-7.3-25.9-7.3-25.9c-15.8-10-40.6-8-40.6-8c-3.3-4.5-18.3-11.4-23.4-7.2s3.7,23,3.7,23
	c-3.4,11.4,5,21.9,5,21.9l-1.7,1l-0.8,3.5c-0.6,1.8,0.6,4,0.6,4c-1,1.7-0.5,2.6-0.5,2.6l2.7,1.1l4.3-1.1c2.6,3.1,0,6.5,0,6.5
	l-4.8,1.6v2.3c0,0-9.9-3.1-10.1,7.5"/>
<polyline class="st1" points="158.8,156.9 158.8,160.7 162.5,158.7 "/>
<path class="st1" d="M195.1,88.1c0,0,4.9,14.9-16.1,28"/>
<path class="st1" d="M184,112.6c0,0,2,4.9-5.6,11.5"/>
<path class="st1" d="M184.4,161c0,0,20.4-4.4,7.6-26c0,0,1.1-9.2-7.7-19.8"/>
<path class="st1" d="M117.2,57l1-1.4c1.7-1.9,4.4-2.7,6.9-1.9c6.2,1.9,13.2,9.4,13.2,9.4c1.9-1.9,15-0.2,15-0.2s13.1,1.3,20.4,9.9
	c0,0,17.8-7.7,23.6-0.8S190,94,190,94s-0.7,12.8-11.5,21.2c1.6,2.8,1.6,6.2-0.1,8.9c0,0,4.3-0.4,3.6,11.2c0,0,10.4,3.5,11.1,12.8
	s-3.9,11.5-8.9,12.9l-1.7-1l-1.7,2.3l-12.1-5.2l-0.6,4.1l-9.3-4.2l12.1-6.6c0,0-5.5-7.6-18.6-7.9l-6.9,3.3v3.6l-5.7,2.9v-3.8
	l-6.5-2.8v-3.7l-8.9-4.3c0,0-4.7-1.4-7.3-8.9"/>
<path class="st1" d="M178,115.2c0,0,12.8-6.4-9.5-14.2s-43.4,1.4-43.4,1.4"/>
<path class="st1" d="M174.2,72.5c0,0,10.1-3.4,15.1,6S190,94,190,94"/>
<path class="st1" d="M196.7,71.8l-6.1,2.8c-0.8,1.8,1.2,1.5,1.2,1.5l6.4-2.6"/>
<path class="st1" d="M189.8,93.8c0,0-4.5,2.5-12.1-2.9l13.5-6.2"/>
<path class="st1" d="M177.7,90.9c0,0-4.3,1.1-6-2.8s1.9-5,1.9-5l0.6-0.2l14.4-5.4"/>
<path class="st1" d="M172.3,87.1c-0.1-1.1,0.7-2.1,1.8-2.3c0.9,0,1.7,0.3,2.2,1c1.3,1.5,0.8,5-2.4,3.5c-0.2-0.1-0.5-0.3-0.7-0.4
	C172.8,88.4,172.4,87.8,172.3,87.1z"/>
<path class="st1" d="M131,73.2c-1,0.5-2.4,1.1-2.1,3.2c0.1,0.6,0.3,1.3,0.6,1.9"/>
<path class="st1" d="M130.8,73.2l11.3-5.4c0,0,4.1-2.6,8.2-0.7s3.8,3.8,3.8,3.8l-20.2,9.5c-2,0.6-4-1.8-4.3-2.1h-0.1"/>
<path class="st1" d="M129.8,76.7c-0.1-1.1,0.7-2.1,1.8-2.3c0.9,0,1.7,0.3,2.2,1c1.3,1.5,0.8,5-2.4,3.5c-0.2-0.1-0.5-0.3-0.7-0.4
	C130.2,78,129.9,77.4,129.8,76.7z"/>
<path class="st1" d="M173.9,120.6l-22.4,9.8l-1.9-0.8v-5.1l5.8-2.5v-4l-4.7,1.7c-1.1-0.1-2-0.6-2.6-1.5c-0.4-0.9-0.4-1.9,0-2.8
	l24.3-10.2c0,0,3.8-0.9,2.9,4.8l3.2,5.1"/>
<path class="st1" d="M155.4,120.8l-12.8,5.5l-2.2-0.6v-4.8l5.2-2.3l0.2-4.5l-4.4,1.8c-1,0.1-2-0.5-2.4-1.4c-0.6-0.9-0.5-2.1,0.2-3
	l23.8-9.7c0,0,4.2,0,2.9,4.3v1.7"/>
<path class="st1" d="M140.8,112.7c-0.5-0.2-1,0-1.2,0.4c-0.1,0.1-0.1,0.3-0.1,0.4c0,0.4,0.3,1.4,1.1,1.3
	C142.3,114.4,141.6,113,140.8,112.7z"/>
<path class="st1" d="M149.9,116.4c-0.5-0.2-1,0-1.2,0.4c-0.1,0.1-0.1,0.3-0.1,0.4c0,0.4,0.3,1.4,1.1,1.3
	C151.4,118.1,150.8,116.7,149.9,116.4z"/>
<path class="st1" d="M178.9,116l-5.5,2.8l-0.1,1.3c0,0,0.3,0.7,2.4,0.7l3.7-1.6"/>
<path class="st1" d="M133.8,99.6l-8.3,3v1.4c0,0,0.3,0.7,2.4,0.7l9.7-3.7"/>
<path class="st1" d="M133.2,141.8c9.6-5.3,22.6-3.9,28.4-2.4c2.6,0.6,5,1.6,7.3,3.1c4.5,3.1,6.6,8.6-0.5,14.3"/>
<path class="st1" d="M126.1,131.5c0,0,0.4,2.1-2.2,1.3c-1.5-0.5-2.6-1.6-3.1-3.1"/>
<path class="st1" d="M120.9,129.7c-0.5-1-0.1-2.3,0.9-2.8c0.2-0.1,0.3-0.2,0.5-0.2l15.9-6.4c0.8-0.1,1.6,0.2,2.2,0.7"/>
<path class="st1" d="M126.1,132.1c0.5,0.4,1.5,0,1.5,0l13.3-6.1"/>
<path class="st1" d="M176.1,135.8c5.9-7.8-0.2-10.6-0.2-10.6c-3.7-1.4-7.8,0.5-9.2,4.2c-0.1,0.2-0.1,0.3-0.2,0.5
	c-0.1,0.2-2.2,4.5,2.5,6.6S176.1,135.8,176.1,135.8z"/>
<path class="st1" d="M192.4,152.4l-0.6-0.4c-1.1,1.5-3.2,2-4.9,1.1l-3.7-1.6"/>
<path class="st1" d="M188,139.9l-10.5,5.8c0,0-3.5,1.8,0.2,5.4s5.8,0.5,5.8,0.5"/>
<path class="st1" d="M180.3,151.4c1,0.2,1.9-0.3,2.2-1.3c0.1-0.3,0.1-0.5,0-0.8c-0.2-0.8-0.7-1.5-1.4-2c-2.4-1.8-3.5-0.1-3.5-0.1
	s-1.5,1.4,0.9,3.2C179,151,179.6,151.3,180.3,151.4z"/>
<path class="st1" d="M121.7,129.5c-0.2-0.8,0.3-1.5,1-1.7c0.3-0.1,0.7,0,1,0.1c0.4,0.2,0.7,0.4,1,0.7c0.7,0.6,1.1,1.4,1.1,2.2
	c0,0.7-0.5,1.3-1.2,1.4c-0.7,0.1-1.3-0.3-2.1-1.1C122.1,130.7,121.8,130.1,121.7,129.5z"/>
<path class="st1" d="M133.7,145.5c0,0,15.3-7.8,30.2-1.5c5.6,2.3,7.6,5.4,8,8.2"/>
<path class="st1" d="M129.2,74.7l-6.9,2.6c0,0-0.2,0.7,3.5,0.9l3.6,0.1"/>
<path class="st1" d="M118.7,55l4.8,4c0,0,2.2,0.7,1.6-1.4l-4.4-3.8"/>
<path class="st1" d="M117.3,126.6c0,0-3.1,0.4-1.2,1.4l5,2.4"/>
<line class="st1" x1="192.7" y1="145.8" x2="183" y2="151.5"/>
</svg>
