<svg id="Layer_1" data-name="Layer 1" xmlns="http://www.w3.org/2000/svg" viewBox="0 0 216 231.88"><defs><style>.cls-1{fill:#94bbe3;}.cls-2,.cls-3,.cls-4,.cls-5{fill:none;stroke-miterlimit:10;}.cls-2{stroke:#94bbe3;}.cls-2,.cls-5{stroke-width:1.62px;}.cls-3,.cls-4,.cls-5{stroke:#f1f2f2;}.cls-3,.cls-4{stroke-width:1.07px;}.cls-4{stroke-linecap:round;}</style></defs><title>icon</title><circle class="cls-1" cx="108" cy="108" r="108"/><line class="cls-2" x1="184.13" y1="229.95" x2="184.87" y2="231.54"/><path class="cls-3" d="M149.11,161.87s6.47-3.4,16.79,9.77c0,0,20.12-4.75,35.09,9.27,0,0,20.39-7.57,24.64.48s-7.92,21.15-7.92,21.15-1.53,14.81-11.41,21.39c0,0,2.08,4.65.4,8.16,0,0-4.92,4.83-3,9.08a4.76,4.76,0,0,0,6,2.73s14,4.87,11.33,16.71c0,0-2.14,9.16-11.36,12.45l-11.41,6.88s-5.56,1-6.14-1.32c0,0-1.76,1.17-4.24-1.32,0,0-3.22-.73-4.39-2.19,0,0-22.23,1.24-33.94-6.88s-11-24-11-24,0-13.17,5.12-21.5c0,0-.73-2.27.59-6.88,0,0-5.31-11.26-2.39-19.89s8-12.36,8-12.36-9.2-16.24-3-21Z" transform="translate(-111.83 -112.81)"/><path class="cls-3" d="M206.3,225s-20.62,7.94-34.66,5.09a78,78,0,0,1-21.38-7.69,14.21,14.21,0,0,1-6-6.5" transform="translate(-111.83 -112.81)"/><path class="cls-3" d="M143.88,222.94s2.67,7.18,5.53,7.84a4.65,4.65,0,0,1,4.1-.88c2.71.51,7.75,6.14,7.75,6.14a57.28,57.28,0,0,0,44.47-2.19" transform="translate(-111.83 -112.81)"/><path class="cls-3" d="M140.58,257.11s-9.44.66-11.65-5.27c0,0-1.47-3.87-.85-5.27l-.81-2.3s-1.17-1.36,1.23-3.61l.6-.81s1-3.93,3.3-6.14c0,0,5.8-5.53,8.19-4.53" transform="translate(-111.83 -112.81)"/><path class="cls-4" d="M133.09,239.38s-3.4,1.08-3.36,3.61,1,2.47,1,2.47" transform="translate(-111.83 -112.81)"/><path class="cls-4" d="M137,239.55a3.79,3.79,0,0,0-2.42,3.23c-.13,2.42,1,2.72,1,2.72" transform="translate(-111.83 -112.81)"/><path class="cls-4" d="M190.69,273.39s-2.53,0-2.81,3.9" transform="translate(-111.83 -112.81)"/><path class="cls-4" d="M194.77,274.75s-2.82-.31-2.66,3.86" transform="translate(-111.83 -112.81)"/><path class="cls-5" d="M398.26,345.73" transform="translate(-111.83 -112.81)"/><path class="cls-3" d="M301.86,206.81c28-29.71-7.28-25.86-7.28-25.86C278.82,170.9,254,173,254,173c-3.31-4.49-18.33-11.38-23.4-7.16s3.74,23,3.74,23c-3.37,11.43,5,21.91,5,21.91l-1.68,1-.82,3.54c-.58,1.8.63,4,.63,4-1,1.66-.54,2.61-.54,2.61l2.7,1.08,4.32-1.08c2.61,3.1,0,6.48,0,6.48L239.17,230v2.25s-9.88-3.08-10.05,7.47" transform="translate(-111.83 -112.81)"/><polyline class="cls-3" points="158.81 156.92 158.81 160.69 162.53 158.68"/><path class="cls-3" d="M306.95,200.92s4.86,14.85-16.13,28" transform="translate(-111.83 -112.81)"/><path class="cls-3" d="M295.87,225.42s2,4.9-5.63,11.54" transform="translate(-111.83 -112.81)"/><path class="cls-3" d="M296.27,273.81s20.39-4.39,7.59-26c0,0,1.14-9.15-7.74-19.85" transform="translate(-111.83 -112.81)"/><path class="cls-3" d="M229,169.76l1-1.41a6.72,6.72,0,0,1,6.88-1.93c6.15,1.89,13.2,9.4,13.2,9.4,1.92-1.92,15-.21,15-.21s13.09,1.28,20.36,9.89c0,0,17.82-7.74,23.59-.85s-7.17,22.17-7.17,22.17-.66,12.84-11.5,21.22a8.73,8.73,0,0,1-.12,8.93s4.28-.38,3.56,11.15c0,0,10.4,3.5,11.12,12.77S301,272.4,296,273.79l-1.71-1-1.71,2.25-12.09-5.26-.56,4.12-9.31-4.18,12.06-6.64s-5.48-7.56-18.65-7.92l-6.88,3.29V262l-5.67,2.88v-3.78L245,258.32v-3.69l-8.87-4.26s-4.66-1.42-7.29-8.95" transform="translate(-111.83 -112.81)"/><path class="cls-3" d="M289.85,228s12.75-6.41-9.54-14.19-43.38,1.38-43.38,1.38" transform="translate(-111.83 -112.81)"/><path class="cls-3" d="M286,185.29s10.06-3.44,15.1,6,.74,15.48.74,15.48" transform="translate(-111.83 -112.81)"/><path class="cls-3" d="M308.57,184.61l-6.14,2.75c-.76,1.78,1.21,1.52,1.21,1.52L310,186.3" transform="translate(-111.83 -112.81)"/><path class="cls-3" d="M301.59,206.66s-4.49,2.5-12.1-2.91L303,197.6" transform="translate(-111.83 -112.81)"/><path class="cls-3" d="M289.49,203.74s-4.26,1.14-6-2.82,1.94-5,1.94-5l.58-.22,14.44-5.45" transform="translate(-111.83 -112.81)"/><path class="cls-3" d="M284.15,199.94a2.15,2.15,0,0,1,1.79-2.33,2.69,2.69,0,0,1,2.24,1c1.27,1.46.81,5-2.41,3.5a2.61,2.61,0,0,1-.66-.44A3,3,0,0,1,284.15,199.94Z" transform="translate(-111.83 -112.81)"/><path class="cls-3" d="M242.85,186c-1,.46-2.38,1.12-2.11,3.2a12.35,12.35,0,0,0,.57,1.89" transform="translate(-111.83 -112.81)"/><path class="cls-3" d="M242.58,186l11.29-5.44s4.1-2.63,8.16-.73,3.77,3.83,3.77,3.83l-20.2,9.47c-2,.61-4-1.78-4.26-2.07a.1.1,0,0,0-.07,0" transform="translate(-111.83 -112.81)"/><path class="cls-3" d="M241.59,189.53a2.15,2.15,0,0,1,1.79-2.33,2.69,2.69,0,0,1,2.24,1c1.27,1.46.81,5-2.41,3.5a2.61,2.61,0,0,1-.66-.44A3,3,0,0,1,241.59,189.53Z" transform="translate(-111.83 -112.81)"/><path class="cls-3" d="M285.74,233.43l-22.42,9.81-1.94-.82v-5.14l5.81-2.47v-4l-4.72,1.71a3.53,3.53,0,0,1-2.63-1.53,3.25,3.25,0,0,1,0-2.81l24.34-10.16s3.76-.94,2.94,4.83l3.16,5.1" transform="translate(-111.83 -112.81)"/><path class="cls-3" d="M267.19,233.56l-12.84,5.52-2.18-.57v-4.75l5.21-2.34.17-4.51-4.37,1.82a2.33,2.33,0,0,1-2.38-1.43,2.61,2.61,0,0,1,.21-3l23.85-9.69s4.24,0,2.86,4.31v1.71" transform="translate(-111.83 -112.81)"/><path class="cls-3" d="M252.65,225.49a.9.9,0,0,0-1.27.85c0,.4.29,1.44,1.14,1.25C254.08,227.25,253.46,225.77,252.65,225.49Z" transform="translate(-111.83 -112.81)"/><path class="cls-3" d="M261.77,229.19a.9.9,0,0,0-1.27.85c0,.4.29,1.44,1.14,1.25C263.19,230.95,262.58,229.47,261.77,229.19Z" transform="translate(-111.83 -112.81)"/><path class="cls-3" d="M290.72,228.85l-5.5,2.82-.12,1.26s.3.66,2.45.66l3.71-1.61" transform="translate(-111.83 -112.81)"/><path class="cls-3" d="M245.6,212.45l-8.25,3,0,1.41s.3.66,2.45.66l9.74-3.7" transform="translate(-111.83 -112.81)"/><path class="cls-3" d="M245,254.64c9.62-5.28,22.63-3.95,28.39-2.38a23,23,0,0,1,7.25,3.08c4.48,3.14,6.55,8.64-.49,14.34" transform="translate(-111.83 -112.81)"/><path class="cls-3" d="M237.93,244.28s.38,2.11-2.15,1.33a4.67,4.67,0,0,1-3.09-3.09" transform="translate(-111.83 -112.81)"/><path class="cls-3" d="M232.69,242.52a2.08,2.08,0,0,1,1.39-3l15.85-6.42a3.19,3.19,0,0,1,2.24.67" transform="translate(-111.83 -112.81)"/><path class="cls-3" d="M237.93,244.92c.54.44,1.47,0,1.47,0l13.27-6.15" transform="translate(-111.83 -112.81)"/><path class="cls-3" d="M287.93,248.65c5.89-7.78-.2-10.57-.2-10.57a7.17,7.17,0,0,0-9.38,4.69s-2.16,4.48,2.47,6.64S287.93,248.65,287.93,248.65Z" transform="translate(-111.83 -112.81)"/><path class="cls-3" d="M304.28,265.21l-.63-.35a3.86,3.86,0,0,1-4.85,1.09l-3.73-1.65" transform="translate(-111.83 -112.81)"/><path class="cls-3" d="M299.85,252.69l-10.47,5.76s-3.51,1.79.21,5.41,5.76.49,5.76.49" transform="translate(-111.83 -112.81)"/><path class="cls-3" d="M292.12,264.24a1.78,1.78,0,0,0,2.18-2.06,3.41,3.41,0,0,0-1.41-2c-2.39-1.83-3.51-.07-3.51-.07s-1.48,1.41.91,3.23A4.92,4.92,0,0,0,292.12,264.24Z" transform="translate(-111.83 -112.81)"/><path class="cls-3" d="M233.51,242.31a1.43,1.43,0,0,1,2-1.64,3.66,3.66,0,0,1,1,.74,3.31,3.31,0,0,1,1.14,2.24,1.38,1.38,0,0,1-1.24,1.36c-.68.08-1.29-.25-2.11-1.09A3.35,3.35,0,0,1,233.51,242.31Z" transform="translate(-111.83 -112.81)"/><path class="cls-3" d="M245.54,258.27s15.29-7.76,30.2-1.53c5.59,2.34,7.63,5.36,8,8.23" transform="translate(-111.83 -112.81)"/><path class="cls-3" d="M241,187.48l-6.87,2.62s-.23.66,3.54.91l3.62.14" transform="translate(-111.83 -112.81)"/><path class="cls-3" d="M230.48,167.81l4.79,4s2.23.65,1.63-1.38l-4.39-3.85" transform="translate(-111.83 -112.81)"/><path class="cls-3" d="M229.17,239.44s-3.1.36-1.22,1.43l5,2.35" transform="translate(-111.83 -112.81)"/><line class="cls-3" x1="192.74" y1="145.77" x2="182.99" y2="151.53"/></svg>