<svg id="Layer_1" data-name="Layer 1" xmlns="http://www.w3.org/2000/svg" viewBox="0 0 216 216"><defs><style>.cls-1{fill:#94bbe3;}.cls-2,.cls-3,.cls-4,.cls-5{fill:none;stroke:#f1f2f2;}.cls-2,.cls-3,.cls-5{stroke-miterlimit:10;}.cls-2{stroke-width:0.63px;}.cls-3{stroke-width:0.66px;}.cls-4{stroke-linecap:round;stroke-linejoin:round;}.cls-4,.cls-5{stroke-width:0.91px;}.cls-6{fill:#f1f2f2;}</style></defs><title>icon</title><circle class="cls-1" cx="108" cy="108" r="108"/><path class="cls-2" d="M43.37,133.92c-5.41,3.22-2.86,11.63,3.43,11.48,7.4-.17,21.49,1.3,39.81,11.64,27.56,15.56,34.3-3.18,34.3-3.18s10.29-18,43.12-8.47c0,0,24,.75,1.22-13.58A148.43,148.43,0,0,0,131,116.19a27.79,27.79,0,0,0-20,1.35c-6.79,3.16-15.55,6.79-18.76,6.19-7-1.32-42.14,8.33-42.14,8.33A15.65,15.65,0,0,0,43.37,133.92Z"/><path class="cls-2" d="M179.56,100.75,173.83,165l-1,1.22-71.7,24.2a16.27,16.27,0,0,1-10.76-.09L43.48,173.66,42,172.24,35.88,109"/><path class="cls-2" d="M38.06,105.71a3.21,3.21,0,0,0,0,6.07l50.54,17.94a17.55,17.55,0,0,0,11.61.1l77.34-26.1a3.21,3.21,0,0,0,.06-6.07L127,79.43a17.55,17.55,0,0,0-11.61-.1Z"/><path class="cls-3" d="M77.55,33.93,76.11,26.3c-1-2-4-2.08-6.43-.17l-2.21,1.74c-1.77,1.39-4.25,5-3.87,6.64l1.35,5.79"/><path class="cls-3" d="M84.75,37.22l.33,3.18a2.65,2.65,0,0,0,2.87,2.39h24.62c2.87,0,3.53-2.92,3.35-5.57"/><polygon class="cls-4" points="152.09 33.93 77.55 33.93 64.95 40.29 140.89 39.41 152.09 33.93"/><path class="cls-5" d="M92.5,36.83c-.53,1.54,1.68,2.79,4.93,2.79s6.32-1.25,6.85-2.79S102.6,34,99.35,34,93,35.29,92.5,36.83Z"/><path class="cls-3" d="M73.44,24.75l72.68.77A2.87,2.87,0,0,1,149,27.23l3.14,6.7"/><path class="cls-3" d="M107.85,36.82c-.39,1.13,1.22,2,3.6,2s4.61-.91,5-2-1.22-2-3.6-2S108.24,35.69,107.85,36.82Z"/><path class="cls-6" d="M44.45,150.21a.48.48,0,0,0,0-1,.48.48,0,0,0,0,1Z"/><path class="cls-6" d="M43.06,156a.48.48,0,0,0,0-1,.48.48,0,0,0,0,1Z"/><path class="cls-6" d="M48.07,151.88a.48.48,0,0,0,0-1,.48.48,0,0,0,0,1Z"/><path class="cls-6" d="M47.24,155.77a.48.48,0,0,0,0-1,.48.48,0,0,0,0,1Z"/><path class="cls-6" d="M51.69,151.6a.48.48,0,0,0,0-1,.48.48,0,0,0,0,1Z"/><path class="cls-6" d="M51.13,148.26a.48.48,0,0,0,0-1,.48.48,0,0,0,0,1Z"/><path class="cls-6" d="M55,153.27a.48.48,0,0,0,0-1,.48.48,0,0,0,0,1Z"/><path class="cls-6" d="M54.47,157.16a.48.48,0,0,0,0-1,.48.48,0,0,0,0,1Z"/><path class="cls-6" d="M52.24,156.6a.48.48,0,0,0,0-1,.48.48,0,0,0,0,1Z"/><path class="cls-6" d="M52.72,156.13v-.28a.48.48,0,0,0-1,0v.28a.48.48,0,0,0,1,0Z"/><path class="cls-6" d="M48.07,159.94a.48.48,0,0,0,0-1,.48.48,0,0,0,0,1Z"/><path class="cls-6" d="M42.78,160.78a.48.48,0,0,0,0-1,.48.48,0,0,0,0,1Z"/><path class="cls-6" d="M43.34,164.39a.48.48,0,0,0,0-1,.48.48,0,0,0,0,1Z"/><path class="cls-6" d="M49.18,162.17a.48.48,0,0,0,0-1,.48.48,0,0,0,0,1Z"/><path class="cls-6" d="M55.58,160.22a.48.48,0,0,0,0-1,.48.48,0,0,0,0,1Z"/><path class="cls-6" d="M59.48,157.16a.48.48,0,0,0,0-1,.48.48,0,0,0,0,1Z"/><path class="cls-6" d="M63.93,155.21a.48.48,0,0,0,0-1,.48.48,0,0,0,0,1Z"/><path class="cls-6" d="M60.59,152.71a.48.48,0,0,0,0-1,.48.48,0,0,0,0,1Z"/><path class="cls-6" d="M58.36,149.65a.48.48,0,0,0,0-1,.48.48,0,0,0,0,1Z"/><path class="cls-6" d="M61.7,149.65a.48.48,0,0,0,0-1,.48.48,0,0,0,0,1Z"/><path class="cls-6" d="M67,151.32a.48.48,0,0,0,0-1,.48.48,0,0,0,0,1Z"/><path class="cls-6" d="M80.06,156.33a.48.48,0,0,0,0-1,.48.48,0,0,0,0,1Z"/><path class="cls-6" d="M84,160.78a.48.48,0,0,0,0-1,.48.48,0,0,0,0,1Z"/><path class="cls-6" d="M89,161.06a.48.48,0,0,0,0-1,.48.48,0,0,0,0,1Z"/><path class="cls-6" d="M93.14,164.67a.48.48,0,0,0,0-1,.48.48,0,0,0,0,1Z"/><path class="cls-6" d="M86.18,165.23a.48.48,0,0,0,0-1,.48.48,0,0,0,0,1Z"/><path class="cls-6" d="M79,161.61a.48.48,0,0,0,0-1,.48.48,0,0,0,0,1Z"/><path class="cls-6" d="M84,168.29a.48.48,0,0,0,0-1,.48.48,0,0,0,0,1Z"/><path class="cls-6" d="M94.53,168.85a.48.48,0,0,0,0-1,.48.48,0,0,0,0,1Z"/><path class="cls-6" d="M89,169.4a.48.48,0,0,0,0-1,.48.48,0,0,0,0,1Z"/><path class="cls-6" d="M99.26,167.18a.48.48,0,0,0,0-1,.48.48,0,0,0,0,1Z"/><path class="cls-6" d="M103.43,165.51a.48.48,0,0,0,0-1,.48.48,0,0,0,0,1Z"/><path class="cls-6" d="M110.39,165.51a.48.48,0,0,0,0-1,.48.48,0,0,0,0,1Z"/><path class="cls-6" d="M105.1,168.85a.48.48,0,0,0,0-1,.48.48,0,0,0,0,1Z"/><path class="cls-6" d="M101.21,172.18a.48.48,0,0,0,0-1,.48.48,0,0,0,0,1Z"/><path class="cls-6" d="M95.09,174.69a.48.48,0,0,0,0-1,.48.48,0,0,0,0,1Z"/><path class="cls-6" d="M92.58,174.69a.48.48,0,0,0,0-1,.48.48,0,0,0,0,1Z"/><path class="cls-6" d="M88.41,174.13a.48.48,0,0,0,0-1,.48.48,0,0,0,0,1Z"/><path class="cls-6" d="M100.09,178.3a.48.48,0,0,0,0-1,.48.48,0,0,0,0,1Z"/><path class="cls-6" d="M104.55,174.41a.48.48,0,0,0,0-1,.48.48,0,0,0,0,1Z"/><path class="cls-6" d="M109,171.07a.48.48,0,0,0,0-1,.48.48,0,0,0,0,1Z"/><path class="cls-6" d="M158.52,146.59a.48.48,0,0,0,0-1,.48.48,0,0,0,0,1Z"/><path class="cls-6" d="M163,148.26a.48.48,0,0,0,0-1,.48.48,0,0,0,0,1Z"/><path class="cls-6" d="M167.14,148a.48.48,0,0,0,0-1,.48.48,0,0,0,0,1Z"/><path class="cls-6" d="M172.15,146.31a.48.48,0,0,0,0-1,.48.48,0,0,0,0,1Z"/><path class="cls-6" d="M171.31,150.48a.48.48,0,0,0,0-1,.48.48,0,0,0,0,1Z"/><path class="cls-6" d="M162.41,152.71a.48.48,0,0,0,0-1,.48.48,0,0,0,0,1Z"/><path class="cls-6" d="M158.52,151.88a.48.48,0,0,0,0-1,.48.48,0,0,0,0,1Z"/><path class="cls-6" d="M157.13,157.16a.48.48,0,0,0,0-1,.48.48,0,0,0,0,1Z"/><path class="cls-6" d="M161.58,156.88a.48.48,0,0,0,0-1,.48.48,0,0,0,0,1Z"/><path class="cls-6" d="M168.25,157.16a.48.48,0,0,0,0-1,.48.48,0,0,0,0,1Z"/><path class="cls-6" d="M172.71,153.54a.48.48,0,0,0,0-1,.48.48,0,0,0,0,1Z"/><path class="cls-6" d="M153.51,151.32a.48.48,0,0,0,0-1,.48.48,0,0,0,0,1Z"/><path class="cls-6" d="M149.61,148.82a.48.48,0,0,0,0-1,.48.48,0,0,0,0,1Z"/><path class="cls-6" d="M143.22,145.48a.48.48,0,0,0,0-1,.48.48,0,0,0,0,1Z"/><path class="cls-6" d="M151.84,146a.48.48,0,0,0,0-1,.48.48,0,0,0,0,1Z"/><path class="cls-6" d="M146.55,144.92a.48.48,0,0,0,0-1,.48.48,0,0,0,0,1Z"/><path class="cls-6" d="M151.56,155.77a.48.48,0,0,0,0-1,.48.48,0,0,0,0,1Z"/><path class="cls-6" d="M145.44,153.82a.48.48,0,0,0,0-1,.48.48,0,0,0,0,1Z"/><path class="cls-6" d="M115.12,164.67a.48.48,0,0,0,0-1,.48.48,0,0,0,0,1Z"/><path class="cls-6" d="M119.57,159.94a.48.48,0,0,0,0-1,.48.48,0,0,0,0,1Z"/><path class="cls-6" d="M116.23,168.57a.48.48,0,0,0,0-1,.48.48,0,0,0,0,1Z"/><path class="cls-6" d="M121,162.45a.48.48,0,0,0,0-1,.48.48,0,0,0,0,1Z"/><path class="cls-6" d="M124,153.54a.48.48,0,0,0,0-1,.48.48,0,0,0,0,1Z"/><path class="cls-6" d="M45.34,153a.48.48,0,0,0,0-1,.48.48,0,0,0,0,1Z"/><path class="cls-6" d="M43.95,158.83a.48.48,0,0,0,0-1,.48.48,0,0,0,0,1Z"/><path class="cls-6" d="M49,154.65a.48.48,0,0,0,0-1,.48.48,0,0,0,0,1Z"/><path class="cls-6" d="M48.12,158.55a.48.48,0,0,0,0-1,.48.48,0,0,0,0,1Z"/><path class="cls-6" d="M52.57,154.37a.48.48,0,0,0,0-1,.48.48,0,0,0,0,1Z"/><path class="cls-6" d="M52,151a.48.48,0,0,0,0-1,.48.48,0,0,0,0,1Z"/><path class="cls-6" d="M55.91,156a.48.48,0,0,0,0-1,.48.48,0,0,0,0,1Z"/><path class="cls-6" d="M55.36,159.94a.48.48,0,0,0,0-1,.48.48,0,0,0,0,1Z"/><path class="cls-6" d="M53.13,159.38a.48.48,0,0,0,0-1,.48.48,0,0,0,0,1Z"/><path class="cls-6" d="M53.61,158.9v-.28a.48.48,0,0,0-1,0v.28a.48.48,0,0,0,1,0Z"/><path class="cls-6" d="M49,163.49a.48.48,0,0,0,0-1,.48.48,0,0,0,0,1Z"/><path class="cls-6" d="M43.67,163.55a.48.48,0,0,0,0-1,.48.48,0,0,0,0,1Z"/><path class="cls-6" d="M44.23,167.17a.48.48,0,0,0,0-1,.48.48,0,0,0,0,1Z"/><path class="cls-6" d="M50.07,164.95a.48.48,0,0,0,0-1,.48.48,0,0,0,0,1Z"/><path class="cls-6" d="M56.47,163a.48.48,0,0,0,0-1,.48.48,0,0,0,0,1Z"/><path class="cls-6" d="M60.36,159.94a.48.48,0,0,0,0-1,.48.48,0,0,0,0,1Z"/><path class="cls-6" d="M64.81,158a.48.48,0,0,0,0-1,.48.48,0,0,0,0,1Z"/><path class="cls-6" d="M61.48,155.49a.48.48,0,0,0,0-1,.48.48,0,0,0,0,1Z"/><path class="cls-6" d="M59.25,152.43a.48.48,0,0,0,0-1,.48.48,0,0,0,0,1Z"/><path class="cls-6" d="M62.59,152.43a.48.48,0,0,0,0-1,.48.48,0,0,0,0,1Z"/><path class="cls-6" d="M67.88,154.1a.48.48,0,0,0,0-1,.48.48,0,0,0,0,1Z"/><path class="cls-6" d="M43.53,148.75a.42.42,0,0,0,0-.85.42.42,0,0,0,0,.85Z"/><path class="cls-6" d="M42.45,154.6a.42.42,0,0,0,0-.85.42.42,0,0,0,0,.85Z"/><path class="cls-6" d="M46.36,150.42a.42.42,0,0,0,0-.85.42.42,0,0,0,0,.85Z"/><path class="cls-6" d="M45.71,154.32a.42.42,0,0,0,0-.85.42.42,0,0,0,0,.85Z"/><path class="cls-6" d="M49.19,150.15a.42.42,0,0,0,0-.85.42.42,0,0,0,0,.85Z"/><path class="cls-6" d="M48.75,146.81a.42.42,0,0,0,0-.85.42.42,0,0,0,0,.85Z"/><path class="cls-6" d="M51.8,152.58a.42.42,0,0,0,0-.85.42.42,0,0,0,0,.85Z"/><path class="cls-6" d="M51.36,155.71a.42.42,0,0,0,0-.85.42.42,0,0,0,0,.85Z"/><path class="cls-6" d="M49.62,155.15a.42.42,0,0,0,0-.85.42.42,0,0,0,0,.85Z"/><path class="cls-6" d="M50,154.73v-.28a.42.42,0,0,0-.85,0v.28a.42.42,0,0,0,.85,0Z"/><path class="cls-6" d="M46.36,158.49a.42.42,0,0,0,0-.85.42.42,0,0,0,0,.85Z"/><path class="cls-6" d="M42.23,159.33a.42.42,0,0,0,0-.85.42.42,0,0,0,0,.85Z"/><path class="cls-6" d="M42.66,162.94a.42.42,0,0,0,0-.85.42.42,0,0,0,0,.85Z"/><path class="cls-6" d="M47.23,160.72a.42.42,0,0,0,0-.85.42.42,0,0,0,0,.85Z"/><path class="cls-6" d="M52.23,158.77a.42.42,0,0,0,0-.85.42.42,0,0,0,0,.85Z"/><path class="cls-6" d="M56,155.71a.42.42,0,0,0,0-.85.42.42,0,0,0,0,.85Z"/><path class="cls-6" d="M58.75,153.76a.42.42,0,0,0,0-.85.42.42,0,0,0,0,.85Z"/><path class="cls-6" d="M56.14,151.26a.42.42,0,0,0,0-.85.42.42,0,0,0,0,.85Z"/><path class="cls-6" d="M54.41,148.2a.42.42,0,0,0,0-.85.42.42,0,0,0,0,.85Z"/><path class="cls-6" d="M57,148.2a.42.42,0,0,0,0-.85.42.42,0,0,0,0,.85Z"/><path class="cls-6" d="M61.15,149.87a.42.42,0,0,0,0-.85.42.42,0,0,0,0,.85Z"/><path class="cls-6" d="M84.71,159.46a.48.48,0,0,0,0-1,.48.48,0,0,0,0,1Z"/><path class="cls-6" d="M88.6,163.91a.48.48,0,0,0,0-1,.48.48,0,0,0,0,1Z"/><path class="cls-6" d="M93.61,164.19a.48.48,0,0,0,0-1,.48.48,0,0,0,0,1Z"/><path class="cls-6" d="M97.78,167.8a.48.48,0,0,0,0-1,.48.48,0,0,0,0,1Z"/><path class="cls-6" d="M90.83,168.36a.48.48,0,0,0,0-1,.48.48,0,0,0,0,1Z"/><path class="cls-6" d="M83.59,164.74a.48.48,0,0,0,0-1,.48.48,0,0,0,0,1Z"/><path class="cls-6" d="M88.6,171.42a.48.48,0,0,0,0-1,.48.48,0,0,0,0,1Z"/><path class="cls-6" d="M99.17,172a.48.48,0,0,0,0-1,.48.48,0,0,0,0,1Z"/><path class="cls-6" d="M93.61,172.53a.48.48,0,0,0,0-1,.48.48,0,0,0,0,1Z"/><path class="cls-6" d="M103.9,170.31a.48.48,0,0,0,0-1,.48.48,0,0,0,0,1Z"/><path class="cls-6" d="M108.07,168.64a.48.48,0,0,0,0-1,.48.48,0,0,0,0,1Z"/><path class="cls-6" d="M115,168.64a.48.48,0,0,0,0-1,.48.48,0,0,0,0,1Z"/><path class="cls-6" d="M109.74,172a.48.48,0,0,0,0-1,.48.48,0,0,0,0,1Z"/><path class="cls-6" d="M105.85,175.32a.48.48,0,0,0,0-1,.48.48,0,0,0,0,1Z"/><path class="cls-6" d="M99.73,177.82a.48.48,0,0,0,0-1,.48.48,0,0,0,0,1Z"/><path class="cls-6" d="M97.23,177.82a.48.48,0,0,0,0-1,.48.48,0,0,0,0,1Z"/><path class="cls-6" d="M93.05,177.26a.48.48,0,0,0,0-1,.48.48,0,0,0,0,1Z"/><path class="cls-6" d="M104.74,181.44a.48.48,0,0,0,0-1,.48.48,0,0,0,0,1Z"/><path class="cls-6" d="M109.19,177.54a.48.48,0,0,0,0-1,.48.48,0,0,0,0,1Z"/><path class="cls-6" d="M113.64,174.2a.48.48,0,0,0,0-1,.48.48,0,0,0,0,1Z"/><path class="cls-6" d="M119.76,167.8a.48.48,0,0,0,0-1,.48.48,0,0,0,0,1Z"/><path class="cls-6" d="M124.21,163.08a.48.48,0,0,0,0-1,.48.48,0,0,0,0,1Z"/><path class="cls-6" d="M120.87,171.7a.48.48,0,0,0,0-1,.48.48,0,0,0,0,1Z"/><path class="cls-6" d="M125.6,165.58a.48.48,0,0,0,0-1,.48.48,0,0,0,0,1Z"/><path class="cls-6" d="M128.66,156.68a.48.48,0,0,0,0-1,.48.48,0,0,0,0,1Z"/><path class="cls-6" d="M77.54,162.94a.48.48,0,0,0,0-1,.48.48,0,0,0,0,1Z"/><path class="cls-6" d="M81.43,167.39a.48.48,0,0,0,0-1,.48.48,0,0,0,0,1Z"/><path class="cls-6" d="M86.44,167.67a.48.48,0,0,0,0-1,.48.48,0,0,0,0,1Z"/><path class="cls-6" d="M90.62,171.28a.48.48,0,0,0,0-1,.48.48,0,0,0,0,1Z"/><path class="cls-6" d="M83.66,171.84a.48.48,0,0,0,0-1,.48.48,0,0,0,0,1Z"/><path class="cls-6" d="M76.43,168.22a.48.48,0,0,0,0-1,.48.48,0,0,0,0,1Z"/><path class="cls-6" d="M81.43,174.9a.48.48,0,0,0,0-1,.48.48,0,0,0,0,1Z"/><path class="cls-6" d="M92,175.46a.48.48,0,0,0,0-1,.48.48,0,0,0,0,1Z"/><path class="cls-6" d="M86.44,176a.48.48,0,0,0,0-1,.48.48,0,0,0,0,1Z"/><path class="cls-6" d="M96.74,173.79a.48.48,0,0,0,0-1,.48.48,0,0,0,0,1Z"/><path class="cls-6" d="M100.91,172.12a.48.48,0,0,0,0-1,.48.48,0,0,0,0,1Z"/><path class="cls-6" d="M107.86,172.12a.48.48,0,0,0,0-1,.48.48,0,0,0,0,1Z"/><path class="cls-6" d="M102.58,175.46a.48.48,0,0,0,0-1,.48.48,0,0,0,0,1Z"/><path class="cls-6" d="M98.68,178.79a.48.48,0,0,0,0-1,.48.48,0,0,0,0,1Z"/><path class="cls-6" d="M92.56,181.3a.48.48,0,0,0,0-1,.48.48,0,0,0,0,1Z"/><path class="cls-6" d="M90.06,181.3a.48.48,0,0,0,0-1,.48.48,0,0,0,0,1Z"/><path class="cls-6" d="M85.89,180.74a.48.48,0,0,0,0-1,.48.48,0,0,0,0,1Z"/><path class="cls-6" d="M97.57,184.91a.48.48,0,0,0,0-1,.48.48,0,0,0,0,1Z"/><path class="cls-6" d="M102,181a.48.48,0,0,0,0-1,.48.48,0,0,0,0,1Z"/><path class="cls-6" d="M106.47,177.68a.48.48,0,0,0,0-1,.48.48,0,0,0,0,1Z"/><path class="cls-6" d="M112.59,171.28a.48.48,0,0,0,0-1,.48.48,0,0,0,0,1Z"/><path class="cls-6" d="M117,166.55a.48.48,0,0,0,0-1,.48.48,0,0,0,0,1Z"/><path class="cls-6" d="M113.71,175.18a.48.48,0,0,0,0-1,.48.48,0,0,0,0,1Z"/><path class="cls-6" d="M118.44,169.06a.48.48,0,0,0,0-1,.48.48,0,0,0,0,1Z"/><path class="cls-6" d="M121.5,160.15a.48.48,0,0,0,0-1,.48.48,0,0,0,0,1Z"/><path class="cls-6" d="M87.7,166.51a.39.39,0,0,0,0-.78.39.39,0,0,0,0,.78Z"/><path class="cls-6" d="M91.59,169.47a.39.39,0,0,0,0-.78.39.39,0,0,0,0,.78Z"/><path class="cls-6" d="M96.6,169.66a.39.39,0,0,0,0-.78.39.39,0,0,0,0,.78Z"/><path class="cls-6" d="M100.77,172.06a.39.39,0,0,0,0-.78.39.39,0,0,0,0,.78Z"/><path class="cls-6" d="M93.82,172.43a.39.39,0,0,0,0-.78.39.39,0,0,0,0,.78Z"/><path class="cls-6" d="M86.59,170a.39.39,0,0,0,0-.78.39.39,0,0,0,0,.78Z"/><path class="cls-6" d="M91.59,174.47a.39.39,0,0,0,0-.78.39.39,0,0,0,0,.78Z"/><path class="cls-6" d="M102.17,174.84a.39.39,0,0,0,0-.78.39.39,0,0,0,0,.78Z"/><path class="cls-6" d="M96.6,175.21a.39.39,0,0,0,0-.78.39.39,0,0,0,0,.78Z"/><path class="cls-6" d="M106.9,173.73a.39.39,0,0,0,0-.78.39.39,0,0,0,0,.78Z"/><path class="cls-6" d="M111.07,172.62a.39.39,0,0,0,0-.78.39.39,0,0,0,0,.78Z"/><path class="cls-6" d="M118,172.62a.39.39,0,0,0,0-.78.39.39,0,0,0,0,.78Z"/><path class="cls-6" d="M112.74,174.84a.39.39,0,0,0,0-.78.39.39,0,0,0,0,.78Z"/><path class="cls-6" d="M108.84,177.06a.39.39,0,0,0,0-.78.39.39,0,0,0,0,.78Z"/><path class="cls-6" d="M102.72,178.73a.39.39,0,0,0,0-.78.39.39,0,0,0,0,.78Z"/><path class="cls-6" d="M100.22,178.73a.39.39,0,0,0,0-.78.39.39,0,0,0,0,.78Z"/><path class="cls-6" d="M96,178.36a.39.39,0,0,0,0-.78.39.39,0,0,0,0,.78Z"/><path class="cls-6" d="M107.73,181.14a.39.39,0,0,0,0-.78.39.39,0,0,0,0,.78Z"/><path class="cls-6" d="M112.18,178.54a.39.39,0,0,0,0-.78.39.39,0,0,0,0,.78Z"/><path class="cls-6" d="M116.63,176.32a.39.39,0,0,0,0-.78.39.39,0,0,0,0,.78Z"/><path class="cls-6" d="M122.75,172.06a.39.39,0,0,0,0-.78.39.39,0,0,0,0,.78Z"/><path class="cls-6" d="M127.2,168.92a.39.39,0,0,0,0-.78.39.39,0,0,0,0,.78Z"/><path class="cls-6" d="M123.87,174.66a.39.39,0,0,0,0-.78.39.39,0,0,0,0,.78Z"/><path class="cls-6" d="M128.6,170.58a.39.39,0,0,0,0-.78.39.39,0,0,0,0,.78Z"/><path class="cls-6" d="M131.66,164.66a.39.39,0,0,0,0-.78.39.39,0,0,0,0,.78Z"/><path class="cls-6" d="M155.26,151.94a.48.48,0,0,0,0-1,.48.48,0,0,0,0,1Z"/><path class="cls-6" d="M159.71,153.61a.48.48,0,0,0,0-1,.48.48,0,0,0,0,1Z"/><path class="cls-6" d="M163.88,153.33a.48.48,0,0,0,0-1,.48.48,0,0,0,0,1Z"/><path class="cls-6" d="M168.89,151.66a.48.48,0,0,0,0-1,.48.48,0,0,0,0,1Z"/><path class="cls-6" d="M168.05,155.84a.48.48,0,0,0,0-1,.48.48,0,0,0,0,1Z"/><path class="cls-6" d="M159.15,158.06a.48.48,0,0,0,0-1,.48.48,0,0,0,0,1Z"/><path class="cls-6" d="M155.26,157.23a.48.48,0,0,0,0-1,.48.48,0,0,0,0,1Z"/><path class="cls-6" d="M153.87,162.51a.48.48,0,0,0,0-1,.48.48,0,0,0,0,1Z"/><path class="cls-6" d="M158.32,162.24a.48.48,0,0,0,0-1,.48.48,0,0,0,0,1Z"/><path class="cls-6" d="M165,162.51a.48.48,0,0,0,0-1,.48.48,0,0,0,0,1Z"/><path class="cls-6" d="M169.44,158.9a.48.48,0,0,0,0-1,.48.48,0,0,0,0,1Z"/><path class="cls-6" d="M150.25,156.67a.48.48,0,0,0,0-1,.48.48,0,0,0,0,1Z"/><path class="cls-6" d="M146.35,154.17a.48.48,0,0,0,0-1,.48.48,0,0,0,0,1Z"/><path class="cls-6" d="M140,150.83a.48.48,0,0,0,0-1,.48.48,0,0,0,0,1Z"/><path class="cls-6" d="M148.58,151.39a.48.48,0,0,0,0-1,.48.48,0,0,0,0,1Z"/><path class="cls-6" d="M143.29,150.27a.48.48,0,0,0,0-1,.48.48,0,0,0,0,1Z"/><path class="cls-6" d="M148.3,161.12a.48.48,0,0,0,0-1,.48.48,0,0,0,0,1Z"/><path class="cls-6" d="M142.18,159.18a.48.48,0,0,0,0-1,.48.48,0,0,0,0,1Z"/><path class="cls-6" d="M148,150.66a.56.56,0,0,0,0-1.12.56.56,0,0,0,0,1.12Z"/><path class="cls-6" d="M152.41,152.92a.56.56,0,0,0,0-1.12.56.56,0,0,0,0,1.12Z"/><path class="cls-6" d="M156.59,152.54a.56.56,0,0,0,0-1.12.56.56,0,0,0,0,1.12Z"/><path class="cls-6" d="M161.6,150.28a.56.56,0,0,0,0-1.12.56.56,0,0,0,0,1.12Z"/><path class="cls-6" d="M160.76,155.93a.56.56,0,0,0,0-1.12.56.56,0,0,0,0,1.12Z"/><path class="cls-6" d="M151.86,158.94a.56.56,0,0,0,0-1.12.56.56,0,0,0,0,1.12Z"/><path class="cls-6" d="M148,157.81a.56.56,0,0,0,0-1.12.56.56,0,0,0,0,1.12Z"/><path class="cls-6" d="M146.57,165a.56.56,0,0,0,0-1.12.56.56,0,0,0,0,1.12Z"/><path class="cls-6" d="M151,164.59a.56.56,0,0,0,0-1.12.56.56,0,0,0,0,1.12Z"/><path class="cls-6" d="M157.7,165a.56.56,0,0,0,0-1.12.56.56,0,0,0,0,1.12Z"/><path class="cls-6" d="M162.15,160.07a.56.56,0,0,0,0-1.12.56.56,0,0,0,0,1.12Z"/><path class="cls-6" d="M143,157.06a.56.56,0,0,0,0-1.12.56.56,0,0,0,0,1.12Z"/><path class="cls-6" d="M139.06,153.67a.56.56,0,0,0,0-1.12.56.56,0,0,0,0,1.12Z"/><path class="cls-6" d="M132.66,149.15a.56.56,0,0,0,0-1.12.56.56,0,0,0,0,1.12Z"/><path class="cls-6" d="M141.29,149.9a.56.56,0,0,0,0-1.12.56.56,0,0,0,0,1.12Z"/><path class="cls-6" d="M136,148.4a.56.56,0,0,0,0-1.12.56.56,0,0,0,0,1.12Z"/><path class="cls-6" d="M141,163.09a.56.56,0,0,0,0-1.12.56.56,0,0,0,0,1.12Z"/><path class="cls-6" d="M134.89,160.45a.56.56,0,0,0,0-1.12.56.56,0,0,0,0,1.12Z"/><path class="cls-6" d="M139,151.83a.43.43,0,0,0,0-.86.43.43,0,0,0,0,.86Z"/><path class="cls-6" d="M142.59,153.5a.43.43,0,0,0,0-.86.43.43,0,0,0,0,.86Z"/><path class="cls-6" d="M146,153.22a.43.43,0,0,0,0-.86.43.43,0,0,0,0,.86Z"/><path class="cls-6" d="M150,151.55a.43.43,0,0,0,0-.86.43.43,0,0,0,0,.86Z"/><path class="cls-6" d="M149.36,155.72a.43.43,0,0,0,0-.86.43.43,0,0,0,0,.86Z"/><path class="cls-6" d="M142.14,157.95a.43.43,0,0,0,0-.86.43.43,0,0,0,0,.86Z"/><path class="cls-6" d="M139,157.11a.43.43,0,0,0,0-.86.43.43,0,0,0,0,.86Z"/><path class="cls-6" d="M137.85,162.4a.43.43,0,0,0,0-.86.43.43,0,0,0,0,.86Z"/><path class="cls-6" d="M141.46,162.12a.43.43,0,0,0,0-.86.43.43,0,0,0,0,.86Z"/><path class="cls-6" d="M146.88,162.4a.43.43,0,0,0,0-.86.43.43,0,0,0,0,.86Z"/><path class="cls-6" d="M150.49,158.78a.43.43,0,0,0,0-.86.43.43,0,0,0,0,.86Z"/><path class="cls-6" d="M134.92,156.56a.43.43,0,0,0,0-.86.43.43,0,0,0,0,.86Z"/><path class="cls-6" d="M131.76,154.05a.43.43,0,0,0,0-.86.43.43,0,0,0,0,.86Z"/><path class="cls-6" d="M126.57,150.71a.43.43,0,0,0,0-.86.43.43,0,0,0,0,.86Z"/><path class="cls-6" d="M133.56,151.27a.43.43,0,0,0,0-.86.43.43,0,0,0,0,.86Z"/><path class="cls-6" d="M129.27,150.16a.43.43,0,0,0,0-.86.43.43,0,0,0,0,.86Z"/><path class="cls-6" d="M133.34,161a.43.43,0,0,0,0-.86.43.43,0,0,0,0,.86Z"/><path class="cls-6" d="M128.37,159.06a.43.43,0,0,0,0-.86.43.43,0,0,0,0,.86Z"/><path class="cls-6" d="M73.63,154.73a.39.39,0,0,0,0-.78.39.39,0,0,0,0,.78Z"/><path class="cls-6" d="M76.39,157.17a.39.39,0,0,0,0-.78.39.39,0,0,0,0,.78Z"/><path class="cls-6" d="M79.47,157.93a.39.39,0,0,0,0-.78.39.39,0,0,0,0,.78Z"/><path class="cls-6" d="M83.54,157.75a.39.39,0,0,0,0-.78.39.39,0,0,0,0,.78Z"/><path class="cls-6" d="M81.8,161a.39.39,0,0,0,0-.78.39.39,0,0,0,0,.78Z"/><path class="cls-6" d="M74.77,160.71a.39.39,0,0,0,0-.78.39.39,0,0,0,0,.78Z"/><path class="cls-6" d="M72.19,159.1a.39.39,0,0,0,0-.78.39.39,0,0,0,0,.78Z"/><path class="cls-6" d="M69.75,163.13a.39.39,0,0,0,0-.78.39.39,0,0,0,0,.78Z"/><path class="cls-6" d="M73,164a.39.39,0,0,0,0-.78.39.39,0,0,0,0,.78Z"/><path class="cls-6" d="M77.77,165.78a.39.39,0,0,0,0-.78.39.39,0,0,0,0,.78Z"/><path class="cls-6" d="M82,163.85a.39.39,0,0,0,0-.78.39.39,0,0,0,0,.78Z"/><path class="cls-6" d="M68.73,157.44a.39.39,0,0,0,0-.78.39.39,0,0,0,0,.78Z"/><path class="cls-6" d="M66.6,154.45a.39.39,0,0,0,0-.78.39.39,0,0,0,0,.78Z"/><path class="cls-6" d="M62.9,150.17a.39.39,0,0,0,0-.78.39.39,0,0,0,0,.78Z"/><path class="cls-6" d="M69,152.68a.39.39,0,0,0,0-.78.39.39,0,0,0,0,.78Z"/><path class="cls-6" d="M65.46,150.5a.39.39,0,0,0,0-.78.39.39,0,0,0,0,.78Z"/><path class="cls-6" d="M66.11,160.66a.39.39,0,0,0,0-.78.39.39,0,0,0,0,.78Z"/><path class="cls-6" d="M62.23,157.59a.39.39,0,0,0,0-.78.39.39,0,0,0,0,.78Z"/><path class="cls-6" d="M71.66,158.65a.48.48,0,0,0,0-1,.48.48,0,0,0,0,1Z"/><path class="cls-6" d="M75.74,161.08a.48.48,0,0,0,0-1,.48.48,0,0,0,0,1Z"/><path class="cls-6" d="M79.9,161.53a.48.48,0,0,0,0-1,.48.48,0,0,0,0,1Z"/><path class="cls-6" d="M85.12,160.77a.48.48,0,0,0,0-1,.48.48,0,0,0,0,1Z"/><path class="cls-6" d="M83.57,164.73a.48.48,0,0,0,0-1,.48.48,0,0,0,0,1Z"/><path class="cls-6" d="M74.42,165.36a.48.48,0,0,0,0-1,.48.48,0,0,0,0,1Z"/><path class="cls-6" d="M70.73,163.86a.48.48,0,0,0,0-1,.48.48,0,0,0,0,1Z"/><path class="cls-6" d="M68.43,168.82a.48.48,0,0,0,0-1,.48.48,0,0,0,0,1Z"/><path class="cls-6" d="M72.86,169.32a.48.48,0,0,0,0-1,.48.48,0,0,0,0,1Z"/><path class="cls-6" d="M79.39,170.77a.48.48,0,0,0,0-1,.48.48,0,0,0,0,1Z"/><path class="cls-6" d="M84.4,168a.48.48,0,0,0,0-1,.48.48,0,0,0,0,1Z"/><path class="cls-6" d="M65.9,162.43a.48.48,0,0,0,0-1,.48.48,0,0,0,0,1Z"/><path class="cls-6" d="M62.5,159.28a.48.48,0,0,0,0-1,.48.48,0,0,0,0,1Z"/><path class="cls-6" d="M56.79,154.87a.48.48,0,0,0,0-1,.48.48,0,0,0,0,1Z"/><path class="cls-6" d="M65.18,156.93a.48.48,0,0,0,0-1,.48.48,0,0,0,0,1Z"/><path class="cls-6" d="M60.17,154.91a.48.48,0,0,0,0-1,.48.48,0,0,0,0,1Z"/><path class="cls-6" d="M63.2,166.47a.48.48,0,0,0,0-1,.48.48,0,0,0,0,1Z"/><path class="cls-6" d="M57.51,163.48a.48.48,0,0,0,0-1,.48.48,0,0,0,0,1Z"/></svg>