<svg id="Layer_1" data-name="Layer 1" xmlns="http://www.w3.org/2000/svg" viewBox="0 0 188.32 234.88"><defs><style>.cls-1{fill:none;stroke-width:0.82px;}.cls-1,.cls-2,.cls-3,.cls-4{stroke:#94bbe3;}.cls-1,.cls-2,.cls-4{stroke-miterlimit:10;}.cls-2,.cls-3,.cls-4{fill:#fff;}.cls-2{stroke-width:0.86px;}.cls-3{stroke-linecap:round;stroke-linejoin:round;}.cls-3,.cls-4{stroke-width:1.18px;}.cls-5{fill:#87abcc;}</style></defs><title>kinect-sandbox-icon</title><path class="cls-1" d="M280.41,324.13c-7.05,4.19-3.73,15.16,4.47,15,9.64-.23,28,1.69,51.9,15.18,35.93,20.28,44.72-4.15,44.72-4.15s13.42-23.52,56.22-11c0,0,31.3,1,1.6-17.71A193.52,193.52,0,0,0,394.68,301a36.24,36.24,0,0,0-26.1,1.76c-8.85,4.12-20.27,8.86-24.46,8.06-9.13-1.73-54.94,10.86-54.94,10.86A20.4,20.4,0,0,0,280.41,324.13Z" transform="translate(-270.24 -164.4)"/><path class="cls-1" d="M458,280.88l-7.46,83.72-1.36,1.58-93.47,31.55a21.21,21.21,0,0,1-14-.12l-61.08-21.68-1.89-1.86-8-82.41" transform="translate(-270.24 -164.4)"/><path class="cls-1" d="M273.48,287.35a4.19,4.19,0,0,0,0,7.91l65.89,23.39a22.88,22.88,0,0,0,15.14.13l100.84-34a4.19,4.19,0,0,0,.08-7.91l-65.94-23.74a22.88,22.88,0,0,0-15.14-.13Z" transform="translate(-270.24 -164.4)"/><path class="cls-2" d="M325,176.8l-1.88-9.94c-1.28-2.61-5.21-2.72-8.38-.23l-2.88,2.26c-2.31,1.81-5.54,6.51-5,8.65l1.75,7.55" transform="translate(-270.24 -164.4)"/><path class="cls-2" d="M334.36,181.09l.43,4.15a3.46,3.46,0,0,0,3.74,3.12h32.09c3.75,0,4.6-3.8,4.37-7.27" transform="translate(-270.24 -164.4)"/><polygon class="cls-3" points="151.92 12.4 54.73 12.4 38.3 20.69 137.31 19.55 151.92 12.4"/><path class="cls-4" d="M344.45,180.59c-.69,2,2.18,3.64,6.43,3.64s8.24-1.63,8.94-3.64-2.18-3.64-6.43-3.64S345.15,178.58,344.45,180.59Z" transform="translate(-270.24 -164.4)"/><path class="cls-2" d="M319.61,164.83l94.75,1a3.74,3.74,0,0,1,3.69,2.24l4.1,8.73" transform="translate(-270.24 -164.4)"/><path class="cls-2" d="M364.47,180.57c-.51,1.47,1.59,2.66,4.69,2.66s6-1.19,6.52-2.66-1.59-2.66-4.69-2.66S365,179.1,364.47,180.57Z" transform="translate(-270.24 -164.4)"/><path class="cls-5" d="M281.82,345.36a.63.63,0,0,0,0-1.25.63.63,0,0,0,0,1.25Z" transform="translate(-270.24 -164.4)"/><path class="cls-5" d="M280,353a.63.63,0,0,0,0-1.25.63.63,0,0,0,0,1.25Z" transform="translate(-270.24 -164.4)"/><path class="cls-5" d="M286.53,347.54a.63.63,0,0,0,0-1.25.63.63,0,0,0,0,1.25Z" transform="translate(-270.24 -164.4)"/><path class="cls-5" d="M285.44,352.61a.63.63,0,0,0,0-1.25.63.63,0,0,0,0,1.25Z" transform="translate(-270.24 -164.4)"/><path class="cls-5" d="M291.25,347.17a.63.63,0,0,0,0-1.25.63.63,0,0,0,0,1.25Z" transform="translate(-270.24 -164.4)"/><path class="cls-5" d="M290.52,342.82a.63.63,0,0,0,0-1.25.63.63,0,0,0,0,1.25Z" transform="translate(-270.24 -164.4)"/><path class="cls-5" d="M295.6,349.35a.63.63,0,0,0,0-1.25.63.63,0,0,0,0,1.25Z" transform="translate(-270.24 -164.4)"/><path class="cls-5" d="M294.87,354.43a.63.63,0,0,0,0-1.25.63.63,0,0,0,0,1.25Z" transform="translate(-270.24 -164.4)"/><path class="cls-5" d="M292,353.7a.63.63,0,0,0,0-1.25.63.63,0,0,0,0,1.25Z" transform="translate(-270.24 -164.4)"/><path class="cls-5" d="M292.6,353.08v-.36a.63.63,0,0,0-1.25,0v.36a.63.63,0,0,0,1.25,0Z" transform="translate(-270.24 -164.4)"/><path class="cls-5" d="M286.53,358.06a.63.63,0,0,0,0-1.25.63.63,0,0,0,0,1.25Z" transform="translate(-270.24 -164.4)"/><path class="cls-5" d="M279.64,359.14a.63.63,0,0,0,0-1.25.63.63,0,0,0,0,1.25Z" transform="translate(-270.24 -164.4)"/><path class="cls-5" d="M280.37,363.86a.63.63,0,0,0,0-1.25.63.63,0,0,0,0,1.25Z" transform="translate(-270.24 -164.4)"/><path class="cls-5" d="M288,361a.63.63,0,0,0,0-1.25.63.63,0,0,0,0,1.25Z" transform="translate(-270.24 -164.4)"/><path class="cls-5" d="M296.33,358.42a.63.63,0,0,0,0-1.25.63.63,0,0,0,0,1.25Z" transform="translate(-270.24 -164.4)"/><path class="cls-5" d="M301.4,354.43a.63.63,0,0,0,0-1.25.63.63,0,0,0,0,1.25Z" transform="translate(-270.24 -164.4)"/><path class="cls-5" d="M307.21,351.89a.63.63,0,0,0,0-1.25.63.63,0,0,0,0,1.25Z" transform="translate(-270.24 -164.4)"/><path class="cls-5" d="M302.85,348.63a.63.63,0,0,0,0-1.25.63.63,0,0,0,0,1.25Z" transform="translate(-270.24 -164.4)"/><path class="cls-5" d="M300,344.64a.63.63,0,0,0,0-1.25.63.63,0,0,0,0,1.25Z" transform="translate(-270.24 -164.4)"/><path class="cls-5" d="M304.31,344.64a.63.63,0,0,0,0-1.25.63.63,0,0,0,0,1.25Z" transform="translate(-270.24 -164.4)"/><path class="cls-5" d="M311.2,346.81a.63.63,0,0,0,0-1.25.63.63,0,0,0,0,1.25Z" transform="translate(-270.24 -164.4)"/><path class="cls-5" d="M328.24,353.34a.63.63,0,0,0,0-1.25.63.63,0,0,0,0,1.25Z" transform="translate(-270.24 -164.4)"/><path class="cls-5" d="M333.32,359.14a.63.63,0,0,0,0-1.25.63.63,0,0,0,0,1.25Z" transform="translate(-270.24 -164.4)"/><path class="cls-5" d="M339.85,359.51a.63.63,0,0,0,0-1.25.63.63,0,0,0,0,1.25Z" transform="translate(-270.24 -164.4)"/><path class="cls-5" d="M345.29,364.22a.63.63,0,0,0,0-1.25.63.63,0,0,0,0,1.25Z" transform="translate(-270.24 -164.4)"/><path class="cls-5" d="M336.22,364.95a.63.63,0,0,0,0-1.25.63.63,0,0,0,0,1.25Z" transform="translate(-270.24 -164.4)"/><path class="cls-5" d="M326.79,360.23a.63.63,0,0,0,0-1.25.63.63,0,0,0,0,1.25Z" transform="translate(-270.24 -164.4)"/><path class="cls-5" d="M333.32,368.94a.63.63,0,0,0,0-1.25.63.63,0,0,0,0,1.25Z" transform="translate(-270.24 -164.4)"/><path class="cls-5" d="M347.1,369.66a.63.63,0,0,0,0-1.25.63.63,0,0,0,0,1.25Z" transform="translate(-270.24 -164.4)"/><path class="cls-5" d="M339.85,370.39a.63.63,0,0,0,0-1.25.63.63,0,0,0,0,1.25Z" transform="translate(-270.24 -164.4)"/><path class="cls-5" d="M353.27,367.49a.63.63,0,0,0,0-1.25.63.63,0,0,0,0,1.25Z" transform="translate(-270.24 -164.4)"/><path class="cls-5" d="M358.71,365.31a.63.63,0,0,0,0-1.25.63.63,0,0,0,0,1.25Z" transform="translate(-270.24 -164.4)"/><path class="cls-5" d="M367.78,365.31a.63.63,0,0,0,0-1.25.63.63,0,0,0,0,1.25Z" transform="translate(-270.24 -164.4)"/><path class="cls-5" d="M360.89,369.66a.63.63,0,0,0,0-1.25.63.63,0,0,0,0,1.25Z" transform="translate(-270.24 -164.4)"/><path class="cls-5" d="M355.81,374a.63.63,0,0,0,0-1.25.63.63,0,0,0,0,1.25Z" transform="translate(-270.24 -164.4)"/><path class="cls-5" d="M347.83,377.28a.63.63,0,0,0,0-1.25.63.63,0,0,0,0,1.25Z" transform="translate(-270.24 -164.4)"/><path class="cls-5" d="M344.57,377.28a.63.63,0,0,0,0-1.25.63.63,0,0,0,0,1.25Z" transform="translate(-270.24 -164.4)"/><path class="cls-5" d="M339.13,376.55a.63.63,0,0,0,0-1.25.63.63,0,0,0,0,1.25Z" transform="translate(-270.24 -164.4)"/><path class="cls-5" d="M354.36,382a.63.63,0,0,0,0-1.25.63.63,0,0,0,0,1.25Z" transform="translate(-270.24 -164.4)"/><path class="cls-5" d="M360.16,376.92a.63.63,0,0,0,0-1.25.63.63,0,0,0,0,1.25Z" transform="translate(-270.24 -164.4)"/><path class="cls-5" d="M366,372.56a.63.63,0,0,0,0-1.25.63.63,0,0,0,0,1.25Z" transform="translate(-270.24 -164.4)"/><path class="cls-5" d="M430.53,340.65a.63.63,0,0,0,0-1.25.63.63,0,0,0,0,1.25Z" transform="translate(-270.24 -164.4)"/><path class="cls-5" d="M436.33,342.82a.63.63,0,0,0,0-1.25.63.63,0,0,0,0,1.25Z" transform="translate(-270.24 -164.4)"/><path class="cls-5" d="M441.77,342.46a.63.63,0,0,0,0-1.25.63.63,0,0,0,0,1.25Z" transform="translate(-270.24 -164.4)"/><path class="cls-5" d="M448.3,340.28a.63.63,0,0,0,0-1.25.63.63,0,0,0,0,1.25Z" transform="translate(-270.24 -164.4)"/><path class="cls-5" d="M447.21,345.72a.63.63,0,0,0,0-1.25.63.63,0,0,0,0,1.25Z" transform="translate(-270.24 -164.4)"/><path class="cls-5" d="M435.61,348.63a.63.63,0,0,0,0-1.25.63.63,0,0,0,0,1.25Z" transform="translate(-270.24 -164.4)"/><path class="cls-5" d="M430.53,347.54a.63.63,0,0,0,0-1.25.63.63,0,0,0,0,1.25Z" transform="translate(-270.24 -164.4)"/><path class="cls-5" d="M428.71,354.43a.63.63,0,0,0,0-1.25.63.63,0,0,0,0,1.25Z" transform="translate(-270.24 -164.4)"/><path class="cls-5" d="M434.52,354.07a.63.63,0,0,0,0-1.25.63.63,0,0,0,0,1.25Z" transform="translate(-270.24 -164.4)"/><path class="cls-5" d="M443.22,354.43a.63.63,0,0,0,0-1.25.63.63,0,0,0,0,1.25Z" transform="translate(-270.24 -164.4)"/><path class="cls-5" d="M449,349.71a.63.63,0,0,0,0-1.25.63.63,0,0,0,0,1.25Z" transform="translate(-270.24 -164.4)"/><path class="cls-5" d="M424,346.81a.63.63,0,0,0,0-1.25.63.63,0,0,0,0,1.25Z" transform="translate(-270.24 -164.4)"/><path class="cls-5" d="M418.92,343.55a.63.63,0,0,0,0-1.25.63.63,0,0,0,0,1.25Z" transform="translate(-270.24 -164.4)"/><path class="cls-5" d="M410.58,339.19a.63.63,0,0,0,0-1.25.63.63,0,0,0,0,1.25Z" transform="translate(-270.24 -164.4)"/><path class="cls-5" d="M421.82,339.92a.63.63,0,0,0,0-1.25.63.63,0,0,0,0,1.25Z" transform="translate(-270.24 -164.4)"/><path class="cls-5" d="M414.93,338.47a.63.63,0,0,0,0-1.25.63.63,0,0,0,0,1.25Z" transform="translate(-270.24 -164.4)"/><path class="cls-5" d="M421.46,352.61a.63.63,0,0,0,0-1.25.63.63,0,0,0,0,1.25Z" transform="translate(-270.24 -164.4)"/><path class="cls-5" d="M413.48,350.08a.63.63,0,0,0,0-1.25.63.63,0,0,0,0,1.25Z" transform="translate(-270.24 -164.4)"/><path class="cls-5" d="M373.95,364.22a.63.63,0,0,0,0-1.25.63.63,0,0,0,0,1.25Z" transform="translate(-270.24 -164.4)"/><path class="cls-5" d="M379.75,358.06a.63.63,0,0,0,0-1.25.63.63,0,0,0,0,1.25Z" transform="translate(-270.24 -164.4)"/><path class="cls-5" d="M375.4,369.3a.63.63,0,0,0,0-1.25.63.63,0,0,0,0,1.25Z" transform="translate(-270.24 -164.4)"/><path class="cls-5" d="M381.56,361.32a.63.63,0,0,0,0-1.25.63.63,0,0,0,0,1.25Z" transform="translate(-270.24 -164.4)"/><path class="cls-5" d="M385.55,349.71a.63.63,0,0,0,0-1.25.63.63,0,0,0,0,1.25Z" transform="translate(-270.24 -164.4)"/><path class="cls-5" d="M283,349a.63.63,0,0,0,0-1.25.63.63,0,0,0,0,1.25Z" transform="translate(-270.24 -164.4)"/><path class="cls-5" d="M281.16,356.6a.63.63,0,0,0,0-1.25.63.63,0,0,0,0,1.25Z" transform="translate(-270.24 -164.4)"/><path class="cls-5" d="M287.69,351.16a.63.63,0,0,0,0-1.25.63.63,0,0,0,0,1.25Z" transform="translate(-270.24 -164.4)"/><path class="cls-5" d="M286.6,356.24a.63.63,0,0,0,0-1.25.63.63,0,0,0,0,1.25Z" transform="translate(-270.24 -164.4)"/><path class="cls-5" d="M292.4,350.79a.63.63,0,0,0,0-1.25.63.63,0,0,0,0,1.25Z" transform="translate(-270.24 -164.4)"/><path class="cls-5" d="M291.68,346.44a.63.63,0,0,0,0-1.25.63.63,0,0,0,0,1.25Z" transform="translate(-270.24 -164.4)"/><path class="cls-5" d="M296.76,353a.63.63,0,0,0,0-1.25.63.63,0,0,0,0,1.25Z" transform="translate(-270.24 -164.4)"/><path class="cls-5" d="M296,358a.63.63,0,0,0,0-1.25.63.63,0,0,0,0,1.25Z" transform="translate(-270.24 -164.4)"/><path class="cls-5" d="M293.13,357.32a.63.63,0,0,0,0-1.25.63.63,0,0,0,0,1.25Z" transform="translate(-270.24 -164.4)"/><path class="cls-5" d="M293.75,356.7v-.36a.63.63,0,0,0-1.25,0v.36a.63.63,0,0,0,1.25,0Z" transform="translate(-270.24 -164.4)"/><path class="cls-5" d="M287.69,362.68a.63.63,0,0,0,0-1.25.63.63,0,0,0,0,1.25Z" transform="translate(-270.24 -164.4)"/><path class="cls-5" d="M280.8,362.76a.63.63,0,0,0,0-1.25.63.63,0,0,0,0,1.25Z" transform="translate(-270.24 -164.4)"/><path class="cls-5" d="M281.52,367.48a.63.63,0,0,0,0-1.25.63.63,0,0,0,0,1.25Z" transform="translate(-270.24 -164.4)"/><path class="cls-5" d="M289.14,364.58a.63.63,0,0,0,0-1.25.63.63,0,0,0,0,1.25Z" transform="translate(-270.24 -164.4)"/><path class="cls-5" d="M297.48,362a.63.63,0,0,0,0-1.25.63.63,0,0,0,0,1.25Z" transform="translate(-270.24 -164.4)"/><path class="cls-5" d="M302.56,358a.63.63,0,0,0,0-1.25.63.63,0,0,0,0,1.25Z" transform="translate(-270.24 -164.4)"/><path class="cls-5" d="M308.36,355.51a.63.63,0,0,0,0-1.25.63.63,0,0,0,0,1.25Z" transform="translate(-270.24 -164.4)"/><path class="cls-5" d="M304,352.25a.63.63,0,0,0,0-1.25.63.63,0,0,0,0,1.25Z" transform="translate(-270.24 -164.4)"/><path class="cls-5" d="M301.11,348.26a.63.63,0,0,0,0-1.25.63.63,0,0,0,0,1.25Z" transform="translate(-270.24 -164.4)"/><path class="cls-5" d="M305.46,348.26a.63.63,0,0,0,0-1.25.63.63,0,0,0,0,1.25Z" transform="translate(-270.24 -164.4)"/><path class="cls-5" d="M312.35,350.43a.63.63,0,0,0,0-1.25.63.63,0,0,0,0,1.25Z" transform="translate(-270.24 -164.4)"/><path class="cls-5" d="M280.62,343.47a.55.55,0,0,0,0-1.11.55.55,0,0,0,0,1.11Z" transform="translate(-270.24 -164.4)"/><path class="cls-5" d="M279.2,351.09a.55.55,0,0,0,0-1.11.55.55,0,0,0,0,1.11Z" transform="translate(-270.24 -164.4)"/><path class="cls-5" d="M284.3,345.64a.55.55,0,0,0,0-1.11.55.55,0,0,0,0,1.11Z" transform="translate(-270.24 -164.4)"/><path class="cls-5" d="M283.45,350.72a.55.55,0,0,0,0-1.11.55.55,0,0,0,0,1.11Z" transform="translate(-270.24 -164.4)"/><path class="cls-5" d="M288,345.28a.55.55,0,0,0,0-1.11.55.55,0,0,0,0,1.11Z" transform="translate(-270.24 -164.4)"/><path class="cls-5" d="M287.42,340.93a.55.55,0,0,0,0-1.11.55.55,0,0,0,0,1.11Z" transform="translate(-270.24 -164.4)"/><path class="cls-5" d="M291.39,348.46a.55.55,0,0,0,0-1.11.55.55,0,0,0,0,1.11Z" transform="translate(-270.24 -164.4)"/><path class="cls-5" d="M290.82,352.54a.55.55,0,0,0,0-1.11.55.55,0,0,0,0,1.11Z" transform="translate(-270.24 -164.4)"/><path class="cls-5" d="M288.55,351.81a.55.55,0,0,0,0-1.11.55.55,0,0,0,0,1.11Z" transform="translate(-270.24 -164.4)"/><path class="cls-5" d="M289.11,351.26v-.36a.55.55,0,0,0-1.11,0v.36a.55.55,0,0,0,1.11,0Z" transform="translate(-270.24 -164.4)"/><path class="cls-5" d="M284.3,356.16a.55.55,0,0,0,0-1.11.55.55,0,0,0,0,1.11Z" transform="translate(-270.24 -164.4)"/><path class="cls-5" d="M278.92,357.25a.55.55,0,0,0,0-1.11.55.55,0,0,0,0,1.11Z" transform="translate(-270.24 -164.4)"/><path class="cls-5" d="M279.48,362a.55.55,0,0,0,0-1.11.55.55,0,0,0,0,1.11Z" transform="translate(-270.24 -164.4)"/><path class="cls-5" d="M285.44,359.06a.55.55,0,0,0,0-1.11.55.55,0,0,0,0,1.11Z" transform="translate(-270.24 -164.4)"/><path class="cls-5" d="M292,356.53a.55.55,0,0,0,0-1.11.55.55,0,0,0,0,1.11Z" transform="translate(-270.24 -164.4)"/><path class="cls-5" d="M296.93,352.54a.55.55,0,0,0,0-1.11.55.55,0,0,0,0,1.11Z" transform="translate(-270.24 -164.4)"/><path class="cls-5" d="M300.46,350a.55.55,0,0,0,0-1.11.55.55,0,0,0,0,1.11Z" transform="translate(-270.24 -164.4)"/><path class="cls-5" d="M297.06,346.73a.55.55,0,0,0,0-1.11.55.55,0,0,0,0,1.11Z" transform="translate(-270.24 -164.4)"/><path class="cls-5" d="M294.79,342.74a.55.55,0,0,0,0-1.11.55.55,0,0,0,0,1.11Z" transform="translate(-270.24 -164.4)"/><path class="cls-5" d="M298.19,342.74a.55.55,0,0,0,0-1.11.55.55,0,0,0,0,1.11Z" transform="translate(-270.24 -164.4)"/><path class="cls-5" d="M303.58,344.92a.55.55,0,0,0,0-1.11.55.55,0,0,0,0,1.11Z" transform="translate(-270.24 -164.4)"/><path class="cls-5" d="M334.3,357.42a.63.63,0,0,0,0-1.25.63.63,0,0,0,0,1.25Z" transform="translate(-270.24 -164.4)"/><path class="cls-5" d="M339.37,363.23a.63.63,0,0,0,0-1.25.63.63,0,0,0,0,1.25Z" transform="translate(-270.24 -164.4)"/><path class="cls-5" d="M345.9,363.59a.63.63,0,0,0,0-1.25.63.63,0,0,0,0,1.25Z" transform="translate(-270.24 -164.4)"/><path class="cls-5" d="M351.34,368.31a.63.63,0,0,0,0-1.25.63.63,0,0,0,0,1.25Z" transform="translate(-270.24 -164.4)"/><path class="cls-5" d="M342.28,369a.63.63,0,0,0,0-1.25.63.63,0,0,0,0,1.25Z" transform="translate(-270.24 -164.4)"/><path class="cls-5" d="M332.85,364.32a.63.63,0,0,0,0-1.25.63.63,0,0,0,0,1.25Z" transform="translate(-270.24 -164.4)"/><path class="cls-5" d="M339.37,373a.63.63,0,0,0,0-1.25.63.63,0,0,0,0,1.25Z" transform="translate(-270.24 -164.4)"/><path class="cls-5" d="M353.16,373.75a.63.63,0,0,0,0-1.25.63.63,0,0,0,0,1.25Z" transform="translate(-270.24 -164.4)"/><path class="cls-5" d="M345.9,374.47a.63.63,0,0,0,0-1.25.63.63,0,0,0,0,1.25Z" transform="translate(-270.24 -164.4)"/><path class="cls-5" d="M359.32,371.57a.63.63,0,0,0,0-1.25.63.63,0,0,0,0,1.25Z" transform="translate(-270.24 -164.4)"/><path class="cls-5" d="M364.76,369.39a.63.63,0,0,0,0-1.25.63.63,0,0,0,0,1.25Z" transform="translate(-270.24 -164.4)"/><path class="cls-5" d="M373.83,369.39a.63.63,0,0,0,0-1.25.63.63,0,0,0,0,1.25Z" transform="translate(-270.24 -164.4)"/><path class="cls-5" d="M366.94,373.75a.63.63,0,0,0,0-1.25.63.63,0,0,0,0,1.25Z" transform="translate(-270.24 -164.4)"/><path class="cls-5" d="M361.86,378.1a.63.63,0,0,0,0-1.25.63.63,0,0,0,0,1.25Z" transform="translate(-270.24 -164.4)"/><path class="cls-5" d="M353.88,381.36a.63.63,0,0,0,0-1.25.63.63,0,0,0,0,1.25Z" transform="translate(-270.24 -164.4)"/><path class="cls-5" d="M350.62,381.36a.63.63,0,0,0,0-1.25.63.63,0,0,0,0,1.25Z" transform="translate(-270.24 -164.4)"/><path class="cls-5" d="M345.18,380.64a.63.63,0,0,0,0-1.25.63.63,0,0,0,0,1.25Z" transform="translate(-270.24 -164.4)"/><path class="cls-5" d="M360.41,386.08a.63.63,0,0,0,0-1.25.63.63,0,0,0,0,1.25Z" transform="translate(-270.24 -164.4)"/><path class="cls-5" d="M366.21,381a.63.63,0,0,0,0-1.25.63.63,0,0,0,0,1.25Z" transform="translate(-270.24 -164.4)"/><path class="cls-5" d="M372,376.65a.63.63,0,0,0,0-1.25.63.63,0,0,0,0,1.25Z" transform="translate(-270.24 -164.4)"/><path class="cls-5" d="M380,368.31a.63.63,0,0,0,0-1.25.63.63,0,0,0,0,1.25Z" transform="translate(-270.24 -164.4)"/><path class="cls-5" d="M385.8,362.14a.63.63,0,0,0,0-1.25.63.63,0,0,0,0,1.25Z" transform="translate(-270.24 -164.4)"/><path class="cls-5" d="M381.45,373.38a.63.63,0,0,0,0-1.25.63.63,0,0,0,0,1.25Z" transform="translate(-270.24 -164.4)"/><path class="cls-5" d="M387.61,365.4a.63.63,0,0,0,0-1.25.63.63,0,0,0,0,1.25Z" transform="translate(-270.24 -164.4)"/><path class="cls-5" d="M391.6,353.8a.63.63,0,0,0,0-1.25.63.63,0,0,0,0,1.25Z" transform="translate(-270.24 -164.4)"/><path class="cls-5" d="M325,362a.63.63,0,0,0,0-1.25.63.63,0,0,0,0,1.25Z" transform="translate(-270.24 -164.4)"/><path class="cls-5" d="M330,367.76a.63.63,0,0,0,0-1.25.63.63,0,0,0,0,1.25Z" transform="translate(-270.24 -164.4)"/><path class="cls-5" d="M336.56,368.12a.63.63,0,0,0,0-1.25.63.63,0,0,0,0,1.25Z" transform="translate(-270.24 -164.4)"/><path class="cls-5" d="M342,372.84a.63.63,0,0,0,0-1.25.63.63,0,0,0,0,1.25Z" transform="translate(-270.24 -164.4)"/><path class="cls-5" d="M332.93,373.56a.63.63,0,0,0,0-1.25.63.63,0,0,0,0,1.25Z" transform="translate(-270.24 -164.4)"/><path class="cls-5" d="M323.5,368.85a.63.63,0,0,0,0-1.25.63.63,0,0,0,0,1.25Z" transform="translate(-270.24 -164.4)"/><path class="cls-5" d="M330,377.55a.63.63,0,0,0,0-1.25.63.63,0,0,0,0,1.25Z" transform="translate(-270.24 -164.4)"/><path class="cls-5" d="M343.81,378.28a.63.63,0,0,0,0-1.25.63.63,0,0,0,0,1.25Z" transform="translate(-270.24 -164.4)"/><path class="cls-5" d="M336.56,379a.63.63,0,0,0,0-1.25.63.63,0,0,0,0,1.25Z" transform="translate(-270.24 -164.4)"/><path class="cls-5" d="M350,376.1a.63.63,0,0,0,0-1.25.63.63,0,0,0,0,1.25Z" transform="translate(-270.24 -164.4)"/><path class="cls-5" d="M355.42,373.93a.63.63,0,0,0,0-1.25.63.63,0,0,0,0,1.25Z" transform="translate(-270.24 -164.4)"/><path class="cls-5" d="M364.49,373.93a.63.63,0,0,0,0-1.25.63.63,0,0,0,0,1.25Z" transform="translate(-270.24 -164.4)"/><path class="cls-5" d="M357.6,378.28a.63.63,0,0,0,0-1.25.63.63,0,0,0,0,1.25Z" transform="translate(-270.24 -164.4)"/><path class="cls-5" d="M352.52,382.63a.63.63,0,0,0,0-1.25.63.63,0,0,0,0,1.25Z" transform="translate(-270.24 -164.4)"/><path class="cls-5" d="M344.54,385.9a.63.63,0,0,0,0-1.25.63.63,0,0,0,0,1.25Z" transform="translate(-270.24 -164.4)"/><path class="cls-5" d="M341.27,385.9a.63.63,0,0,0,0-1.25.63.63,0,0,0,0,1.25Z" transform="translate(-270.24 -164.4)"/><path class="cls-5" d="M335.83,385.17a.63.63,0,0,0,0-1.25.63.63,0,0,0,0,1.25Z" transform="translate(-270.24 -164.4)"/><path class="cls-5" d="M351.07,390.61a.63.63,0,0,0,0-1.25.63.63,0,0,0,0,1.25Z" transform="translate(-270.24 -164.4)"/><path class="cls-5" d="M356.87,385.53a.63.63,0,0,0,0-1.25.63.63,0,0,0,0,1.25Z" transform="translate(-270.24 -164.4)"/><path class="cls-5" d="M362.67,381.18a.63.63,0,0,0,0-1.25.63.63,0,0,0,0,1.25Z" transform="translate(-270.24 -164.4)"/><path class="cls-5" d="M370.65,372.84a.63.63,0,0,0,0-1.25.63.63,0,0,0,0,1.25Z" transform="translate(-270.24 -164.4)"/><path class="cls-5" d="M376.46,366.67a.63.63,0,0,0,0-1.25.63.63,0,0,0,0,1.25Z" transform="translate(-270.24 -164.4)"/><path class="cls-5" d="M372.1,377.92a.63.63,0,0,0,0-1.25.63.63,0,0,0,0,1.25Z" transform="translate(-270.24 -164.4)"/><path class="cls-5" d="M378.27,369.94a.63.63,0,0,0,0-1.25.63.63,0,0,0,0,1.25Z" transform="translate(-270.24 -164.4)"/><path class="cls-5" d="M382.26,358.33a.63.63,0,0,0,0-1.25.63.63,0,0,0,0,1.25Z" transform="translate(-270.24 -164.4)"/><path class="cls-5" d="M338.2,366.61a.51.51,0,0,0,0-1,.51.51,0,0,0,0,1Z" transform="translate(-270.24 -164.4)"/><path class="cls-5" d="M343.28,370.48a.51.51,0,0,0,0-1,.51.51,0,0,0,0,1Z" transform="translate(-270.24 -164.4)"/><path class="cls-5" d="M349.8,370.72a.51.51,0,0,0,0-1,.51.51,0,0,0,0,1Z" transform="translate(-270.24 -164.4)"/><path class="cls-5" d="M355.25,373.86a.51.51,0,0,0,0-1,.51.51,0,0,0,0,1Z" transform="translate(-270.24 -164.4)"/><path class="cls-5" d="M346.18,374.34a.51.51,0,0,0,0-1,.51.51,0,0,0,0,1Z" transform="translate(-270.24 -164.4)"/><path class="cls-5" d="M336.75,371.2a.51.51,0,0,0,0-1,.51.51,0,0,0,0,1Z" transform="translate(-270.24 -164.4)"/><path class="cls-5" d="M343.28,377a.51.51,0,0,0,0-1,.51.51,0,0,0,0,1Z" transform="translate(-270.24 -164.4)"/><path class="cls-5" d="M357.06,377.48a.51.51,0,0,0,0-1,.51.51,0,0,0,0,1Z" transform="translate(-270.24 -164.4)"/><path class="cls-5" d="M349.8,378a.51.51,0,0,0,0-1,.51.51,0,0,0,0,1Z" transform="translate(-270.24 -164.4)"/><path class="cls-5" d="M363.23,376a.51.51,0,0,0,0-1,.51.51,0,0,0,0,1Z" transform="translate(-270.24 -164.4)"/><path class="cls-5" d="M368.67,374.58a.51.51,0,0,0,0-1,.51.51,0,0,0,0,1Z" transform="translate(-270.24 -164.4)"/><path class="cls-5" d="M377.73,374.58a.51.51,0,0,0,0-1,.51.51,0,0,0,0,1Z" transform="translate(-270.24 -164.4)"/><path class="cls-5" d="M370.84,377.48a.51.51,0,0,0,0-1,.51.51,0,0,0,0,1Z" transform="translate(-270.24 -164.4)"/><path class="cls-5" d="M365.76,380.38a.51.51,0,0,0,0-1,.51.51,0,0,0,0,1Z" transform="translate(-270.24 -164.4)"/><path class="cls-5" d="M357.78,382.55a.51.51,0,0,0,0-1,.51.51,0,0,0,0,1Z" transform="translate(-270.24 -164.4)"/><path class="cls-5" d="M354.52,382.55a.51.51,0,0,0,0-1,.51.51,0,0,0,0,1Z" transform="translate(-270.24 -164.4)"/><path class="cls-5" d="M349.08,382.07a.51.51,0,0,0,0-1,.51.51,0,0,0,0,1Z" transform="translate(-270.24 -164.4)"/><path class="cls-5" d="M364.31,385.69a.51.51,0,0,0,0-1,.51.51,0,0,0,0,1Z" transform="translate(-270.24 -164.4)"/><path class="cls-5" d="M370.12,382.31a.51.51,0,0,0,0-1,.51.51,0,0,0,0,1Z" transform="translate(-270.24 -164.4)"/><path class="cls-5" d="M375.92,379.41a.51.51,0,0,0,0-1,.51.51,0,0,0,0,1Z" transform="translate(-270.24 -164.4)"/><path class="cls-5" d="M383.9,373.86a.51.51,0,0,0,0-1,.51.51,0,0,0,0,1Z" transform="translate(-270.24 -164.4)"/><path class="cls-5" d="M389.7,369.75a.51.51,0,0,0,0-1,.51.51,0,0,0,0,1Z" transform="translate(-270.24 -164.4)"/><path class="cls-5" d="M385.35,377.24a.51.51,0,0,0,0-1,.51.51,0,0,0,0,1Z" transform="translate(-270.24 -164.4)"/><path class="cls-5" d="M391.52,371.93a.51.51,0,0,0,0-1,.51.51,0,0,0,0,1Z" transform="translate(-270.24 -164.4)"/><path class="cls-5" d="M395.51,364.2a.51.51,0,0,0,0-1,.51.51,0,0,0,0,1Z" transform="translate(-270.24 -164.4)"/><path class="cls-5" d="M426.28,347.62a.63.63,0,0,0,0-1.25.63.63,0,0,0,0,1.25Z" transform="translate(-270.24 -164.4)"/><path class="cls-5" d="M432.08,349.8a.63.63,0,0,0,0-1.25.63.63,0,0,0,0,1.25Z" transform="translate(-270.24 -164.4)"/><path class="cls-5" d="M437.52,349.44a.63.63,0,0,0,0-1.25.63.63,0,0,0,0,1.25Z" transform="translate(-270.24 -164.4)"/><path class="cls-5" d="M444,347.26a.63.63,0,0,0,0-1.25.63.63,0,0,0,0,1.25Z" transform="translate(-270.24 -164.4)"/><path class="cls-5" d="M443,352.7a.63.63,0,0,0,0-1.25.63.63,0,0,0,0,1.25Z" transform="translate(-270.24 -164.4)"/><path class="cls-5" d="M431.35,355.6a.63.63,0,0,0,0-1.25.63.63,0,0,0,0,1.25Z" transform="translate(-270.24 -164.4)"/><path class="cls-5" d="M426.28,354.52a.63.63,0,0,0,0-1.25.63.63,0,0,0,0,1.25Z" transform="translate(-270.24 -164.4)"/><path class="cls-5" d="M424.46,361.41a.63.63,0,0,0,0-1.25.63.63,0,0,0,0,1.25Z" transform="translate(-270.24 -164.4)"/><path class="cls-5" d="M430.27,361a.63.63,0,0,0,0-1.25.63.63,0,0,0,0,1.25Z" transform="translate(-270.24 -164.4)"/><path class="cls-5" d="M439,361.41a.63.63,0,0,0,0-1.25.63.63,0,0,0,0,1.25Z" transform="translate(-270.24 -164.4)"/><path class="cls-5" d="M444.77,356.69a.63.63,0,0,0,0-1.25.63.63,0,0,0,0,1.25Z" transform="translate(-270.24 -164.4)"/><path class="cls-5" d="M419.75,353.79a.63.63,0,0,0,0-1.25.63.63,0,0,0,0,1.25Z" transform="translate(-270.24 -164.4)"/><path class="cls-5" d="M414.67,350.53a.63.63,0,0,0,0-1.25.63.63,0,0,0,0,1.25Z" transform="translate(-270.24 -164.4)"/><path class="cls-5" d="M406.33,346.17a.63.63,0,0,0,0-1.25.63.63,0,0,0,0,1.25Z" transform="translate(-270.24 -164.4)"/><path class="cls-5" d="M417.57,346.9a.63.63,0,0,0,0-1.25.63.63,0,0,0,0,1.25Z" transform="translate(-270.24 -164.4)"/><path class="cls-5" d="M410.68,345.45a.63.63,0,0,0,0-1.25.63.63,0,0,0,0,1.25Z" transform="translate(-270.24 -164.4)"/><path class="cls-5" d="M417.21,359.59a.63.63,0,0,0,0-1.25.63.63,0,0,0,0,1.25Z" transform="translate(-270.24 -164.4)"/><path class="cls-5" d="M409.23,357.05a.63.63,0,0,0,0-1.25.63.63,0,0,0,0,1.25Z" transform="translate(-270.24 -164.4)"/><path class="cls-5" d="M416.77,345.95a.73.73,0,0,0,0-1.45.73.73,0,0,0,0,1.45Z" transform="translate(-270.24 -164.4)"/><path class="cls-5" d="M422.57,348.89a.73.73,0,0,0,0-1.45.73.73,0,0,0,0,1.45Z" transform="translate(-270.24 -164.4)"/><path class="cls-5" d="M428,348.4a.73.73,0,0,0,0-1.45.73.73,0,0,0,0,1.45Z" transform="translate(-270.24 -164.4)"/><path class="cls-5" d="M434.54,345.46a.73.73,0,0,0,0-1.45.73.73,0,0,0,0,1.45Z" transform="translate(-270.24 -164.4)"/><path class="cls-5" d="M433.45,352.82a.73.73,0,0,0,0-1.45.73.73,0,0,0,0,1.45Z" transform="translate(-270.24 -164.4)"/><path class="cls-5" d="M421.85,356.75a.73.73,0,0,0,0-1.45.73.73,0,0,0,0,1.45Z" transform="translate(-270.24 -164.4)"/><path class="cls-5" d="M416.77,355.28a.73.73,0,0,0,0-1.45.73.73,0,0,0,0,1.45Z" transform="translate(-270.24 -164.4)"/><path class="cls-5" d="M415,364.61a.73.73,0,0,0,0-1.45.73.73,0,0,0,0,1.45Z" transform="translate(-270.24 -164.4)"/><path class="cls-5" d="M420.76,364.12a.73.73,0,0,0,0-1.45.73.73,0,0,0,0,1.45Z" transform="translate(-270.24 -164.4)"/><path class="cls-5" d="M429.46,364.61a.73.73,0,0,0,0-1.45.73.73,0,0,0,0,1.45Z" transform="translate(-270.24 -164.4)"/><path class="cls-5" d="M435.27,358.22a.73.73,0,0,0,0-1.45.73.73,0,0,0,0,1.45Z" transform="translate(-270.24 -164.4)"/><path class="cls-5" d="M410.24,354.3a.73.73,0,0,0,0-1.45.73.73,0,0,0,0,1.45Z" transform="translate(-270.24 -164.4)"/><path class="cls-5" d="M405.16,349.88a.73.73,0,0,0,0-1.45.73.73,0,0,0,0,1.45Z" transform="translate(-270.24 -164.4)"/><path class="cls-5" d="M396.82,344a.73.73,0,0,0,0-1.45.73.73,0,0,0,0,1.45Z" transform="translate(-270.24 -164.4)"/><path class="cls-5" d="M408.06,345a.73.73,0,0,0,0-1.45.73.73,0,0,0,0,1.45Z" transform="translate(-270.24 -164.4)"/><path class="cls-5" d="M401.17,343a.73.73,0,0,0,0-1.45.73.73,0,0,0,0,1.45Z" transform="translate(-270.24 -164.4)"/><path class="cls-5" d="M407.7,362.15a.73.73,0,0,0,0-1.45.73.73,0,0,0,0,1.45Z" transform="translate(-270.24 -164.4)"/><path class="cls-5" d="M399.72,358.72a.73.73,0,0,0,0-1.45.73.73,0,0,0,0,1.45Z" transform="translate(-270.24 -164.4)"/><path class="cls-5" d="M405.06,347.47a.56.56,0,0,0,0-1.13.56.56,0,0,0,0,1.13Z" transform="translate(-270.24 -164.4)"/><path class="cls-5" d="M409.76,349.65a.56.56,0,0,0,0-1.13.56.56,0,0,0,0,1.13Z" transform="translate(-270.24 -164.4)"/><path class="cls-5" d="M414.18,349.29a.56.56,0,0,0,0-1.13.56.56,0,0,0,0,1.13Z" transform="translate(-270.24 -164.4)"/><path class="cls-5" d="M419.47,347.11a.56.56,0,0,0,0-1.13.56.56,0,0,0,0,1.13Z" transform="translate(-270.24 -164.4)"/><path class="cls-5" d="M418.59,352.55a.56.56,0,0,0,0-1.13.56.56,0,0,0,0,1.13Z" transform="translate(-270.24 -164.4)"/><path class="cls-5" d="M409.17,355.45a.56.56,0,0,0,0-1.13.56.56,0,0,0,0,1.13Z" transform="translate(-270.24 -164.4)"/><path class="cls-5" d="M405.06,354.37a.56.56,0,0,0,0-1.13.56.56,0,0,0,0,1.13Z" transform="translate(-270.24 -164.4)"/><path class="cls-5" d="M403.58,361.26a.56.56,0,0,0,0-1.13.56.56,0,0,0,0,1.13Z" transform="translate(-270.24 -164.4)"/><path class="cls-5" d="M408.29,360.9a.56.56,0,0,0,0-1.13.56.56,0,0,0,0,1.13Z" transform="translate(-270.24 -164.4)"/><path class="cls-5" d="M415.35,361.26a.56.56,0,0,0,0-1.13.56.56,0,0,0,0,1.13Z" transform="translate(-270.24 -164.4)"/><path class="cls-5" d="M420.06,356.54a.56.56,0,0,0,0-1.13.56.56,0,0,0,0,1.13Z" transform="translate(-270.24 -164.4)"/><path class="cls-5" d="M399.76,353.64a.56.56,0,0,0,0-1.13.56.56,0,0,0,0,1.13Z" transform="translate(-270.24 -164.4)"/><path class="cls-5" d="M395.64,350.38a.56.56,0,0,0,0-1.13.56.56,0,0,0,0,1.13Z" transform="translate(-270.24 -164.4)"/><path class="cls-5" d="M388.87,346a.56.56,0,0,0,0-1.13.56.56,0,0,0,0,1.13Z" transform="translate(-270.24 -164.4)"/><path class="cls-5" d="M398,346.75a.56.56,0,0,0,0-1.13.56.56,0,0,0,0,1.13Z" transform="translate(-270.24 -164.4)"/><path class="cls-5" d="M392.4,345.3a.56.56,0,0,0,0-1.13.56.56,0,0,0,0,1.13Z" transform="translate(-270.24 -164.4)"/><path class="cls-5" d="M397.7,359.44a.56.56,0,0,0,0-1.13.56.56,0,0,0,0,1.13Z" transform="translate(-270.24 -164.4)"/><path class="cls-5" d="M391.22,356.91a.56.56,0,0,0,0-1.13.56.56,0,0,0,0,1.13Z" transform="translate(-270.24 -164.4)"/><path class="cls-5" d="M319.86,351.26a.51.51,0,0,0,0-1,.51.51,0,0,0,0,1Z" transform="translate(-270.24 -164.4)"/><path class="cls-5" d="M323.45,354.44a.51.51,0,0,0,0-1,.51.51,0,0,0,0,1Z" transform="translate(-270.24 -164.4)"/><path class="cls-5" d="M327.47,355.43a.51.51,0,0,0,0-1,.51.51,0,0,0,0,1Z" transform="translate(-270.24 -164.4)"/><path class="cls-5" d="M332.78,355.19a.51.51,0,0,0,0-1,.51.51,0,0,0,0,1Z" transform="translate(-270.24 -164.4)"/><path class="cls-5" d="M330.51,359.43a.51.51,0,0,0,0-1,.51.51,0,0,0,0,1Z" transform="translate(-270.24 -164.4)"/><path class="cls-5" d="M321.34,359.06a.51.51,0,0,0,0-1,.51.51,0,0,0,0,1Z" transform="translate(-270.24 -164.4)"/><path class="cls-5" d="M318,356.95a.51.51,0,0,0,0-1,.51.51,0,0,0,0,1Z" transform="translate(-270.24 -164.4)"/><path class="cls-5" d="M314.79,362.21a.51.51,0,0,0,0-1,.51.51,0,0,0,0,1Z" transform="translate(-270.24 -164.4)"/><path class="cls-5" d="M319.08,363.29a.51.51,0,0,0,0-1,.51.51,0,0,0,0,1Z" transform="translate(-270.24 -164.4)"/><path class="cls-5" d="M325.26,365.66a.51.51,0,0,0,0-1,.51.51,0,0,0,0,1Z" transform="translate(-270.24 -164.4)"/><path class="cls-5" d="M330.73,363.15a.51.51,0,0,0,0-1,.51.51,0,0,0,0,1Z" transform="translate(-270.24 -164.4)"/><path class="cls-5" d="M313.47,354.8a.51.51,0,0,0,0-1,.51.51,0,0,0,0,1Z" transform="translate(-270.24 -164.4)"/><path class="cls-5" d="M310.69,350.89a.51.51,0,0,0,0-1,.51.51,0,0,0,0,1Z" transform="translate(-270.24 -164.4)"/><path class="cls-5" d="M305.86,345.31a.51.51,0,0,0,0-1,.51.51,0,0,0,0,1Z" transform="translate(-270.24 -164.4)"/><path class="cls-5" d="M313.78,348.59a.51.51,0,0,0,0-1,.51.51,0,0,0,0,1Z" transform="translate(-270.24 -164.4)"/><path class="cls-5" d="M309.2,345.75a.51.51,0,0,0,0-1,.51.51,0,0,0,0,1Z" transform="translate(-270.24 -164.4)"/><path class="cls-5" d="M310.05,359a.51.51,0,0,0,0-1,.51.51,0,0,0,0,1Z" transform="translate(-270.24 -164.4)"/><path class="cls-5" d="M305,355a.51.51,0,0,0,0-1,.51.51,0,0,0,0,1Z" transform="translate(-270.24 -164.4)"/><path class="cls-5" d="M317.28,356.37a.63.63,0,0,0,0-1.25.63.63,0,0,0,0,1.25Z" transform="translate(-270.24 -164.4)"/><path class="cls-5" d="M322.61,359.53a.63.63,0,0,0,0-1.25.63.63,0,0,0,0,1.25Z" transform="translate(-270.24 -164.4)"/><path class="cls-5" d="M328,360.13a.63.63,0,0,0,0-1.25.63.63,0,0,0,0,1.25Z" transform="translate(-270.24 -164.4)"/><path class="cls-5" d="M334.84,359.13a.63.63,0,0,0,0-1.25.63.63,0,0,0,0,1.25Z" transform="translate(-270.24 -164.4)"/><path class="cls-5" d="M332.82,364.3a.63.63,0,0,0,0-1.25.63.63,0,0,0,0,1.25Z" transform="translate(-270.24 -164.4)"/><path class="cls-5" d="M320.88,365.12a.63.63,0,0,0,0-1.25.63.63,0,0,0,0,1.25Z" transform="translate(-270.24 -164.4)"/><path class="cls-5" d="M316.07,363.16a.63.63,0,0,0,0-1.25.63.63,0,0,0,0,1.25Z" transform="translate(-270.24 -164.4)"/><path class="cls-5" d="M313.08,369.62a.63.63,0,0,0,0-1.25.63.63,0,0,0,0,1.25Z" transform="translate(-270.24 -164.4)"/><path class="cls-5" d="M318.86,370.28a.63.63,0,0,0,0-1.25.63.63,0,0,0,0,1.25Z" transform="translate(-270.24 -164.4)"/><path class="cls-5" d="M327.36,372.17a.63.63,0,0,0,0-1.25.63.63,0,0,0,0,1.25Z" transform="translate(-270.24 -164.4)"/><path class="cls-5" d="M333.9,368.54a.63.63,0,0,0,0-1.25.63.63,0,0,0,0,1.25Z" transform="translate(-270.24 -164.4)"/><path class="cls-5" d="M309.77,361.3a.63.63,0,0,0,0-1.25.63.63,0,0,0,0,1.25Z" transform="translate(-270.24 -164.4)"/><path class="cls-5" d="M305.35,357.19a.63.63,0,0,0,0-1.25.63.63,0,0,0,0,1.25Z" transform="translate(-270.24 -164.4)"/><path class="cls-5" d="M297.9,351.45a.63.63,0,0,0,0-1.25.63.63,0,0,0,0,1.25Z" transform="translate(-270.24 -164.4)"/><path class="cls-5" d="M308.84,354.13a.63.63,0,0,0,0-1.25.63.63,0,0,0,0,1.25Z" transform="translate(-270.24 -164.4)"/><path class="cls-5" d="M302.31,351.49a.63.63,0,0,0,0-1.25.63.63,0,0,0,0,1.25Z" transform="translate(-270.24 -164.4)"/><path class="cls-5" d="M306.26,366.57a.63.63,0,0,0,0-1.25.63.63,0,0,0,0,1.25Z" transform="translate(-270.24 -164.4)"/><path class="cls-5" d="M298.84,362.67a.63.63,0,0,0,0-1.25.63.63,0,0,0,0,1.25Z" transform="translate(-270.24 -164.4)"/></svg>