<?xml version="1.0" encoding="utf-8"?>
<!-- Generator: Adobe Illustrator 21.0.0, SVG Export Plug-In . SVG Version: 6.00 Build 0)  -->
<svg version="1.1" id="Layer_1" xmlns="http://www.w3.org/2000/svg" xmlns:xlink="http://www.w3.org/1999/xlink" x="0px" y="0px"
	 viewBox="0 0 216 216" style="enable-background:new 0 0 216 216;" xml:space="preserve">
<style type="text/css">
	.st0{fill:#94BBE3;}
	.st1{fill:none;stroke:#F1F2F2;stroke-miterlimit:10;}
	.st2{fill:none;stroke:#F1F2F2;stroke-linecap:round;stroke-linejoin:round;}
	.st3{fill:#F1F2F2;}
</style>
<title>icon</title>
<circle class="st0" cx="108" cy="108" r="108"/>
<path class="st1" d="M43.4,133.9c-5.4,3.2-2.9,11.6,3.4,11.5c7.4-0.2,21.5,1.3,39.8,11.6c27.6,15.6,34.3-3.2,34.3-3.2
	s10.3-18,43.1-8.5c0,0,24,0.8,1.2-13.6c-10.7-6.6-22.2-11.9-34.3-15.6c-6.6-2.1-13.7-1.6-20,1.3c-6.8,3.2-15.6,6.8-18.8,6.2
	c-7-1.3-42.1,8.3-42.1,8.3C47.7,132.2,45.4,132.8,43.4,133.9z"/>
<path class="st1" d="M179.6,100.8l-5.7,64.3l-1,1.2l-71.7,24.2c-3.5,1.2-7.3,1.2-10.8-0.1l-46.9-16.7l-1.5-1.4L35.9,109"/>
<path class="st1" d="M38.1,105.7c-1.7,0.6-2.6,2.4-2,4.1c0.3,0.9,1.1,1.7,2,2l50.5,17.9c3.7,1.3,7.8,1.4,11.6,0.1l77.3-26.1
	c1.7-0.6,2.6-2.4,2-4.1c-0.3-0.9-1-1.7-2-2L127,79.4c-3.7-1.3-7.8-1.4-11.6-0.1L38.1,105.7z"/>
<path class="st1" d="M77.6,33.9l-1.4-7.6c-1-2-4-2.1-6.4-0.2l-2.2,1.7c-1.8,1.4-4.3,5-3.9,6.6l1.4,5.8"/>
<path class="st1" d="M85.1,40.4c0.1,1.5,1.4,2.5,2.9,2.4h24.6c1.8,0,2.8-1.2,3.2-2.8"/>
<polygon class="st2" points="152.1,33.9 77.6,33.9 64.9,40.3 140.9,39.4 "/>
<path class="st1" d="M92.5,36.8c-0.5,1.5,1.7,2.8,4.9,2.8s6.3-1.3,6.8-2.8s-1.7-2.8-4.9-2.8S93,35.3,92.5,36.8z"/>
<path class="st1" d="M73.4,24.8l72.7,0.8c1.2-0.1,2.4,0.6,2.9,1.7l3.1,6.7"/>
<path class="st1" d="M107.8,36.8c-0.4,1.1,1.2,2,3.6,2s4.6-0.9,5-2s-1.2-2-3.6-2S108.2,35.7,107.8,36.8z"/>
<path class="st3" d="M44.5,150.2c0.3,0,0.5-0.2,0.5-0.5s-0.2-0.5-0.5-0.5s-0.5,0.2-0.5,0.5S44.2,150.2,44.5,150.2z"/>
<path class="st3" d="M43.1,156c0.3,0,0.5-0.2,0.5-0.5s-0.2-0.5-0.5-0.5s-0.5,0.2-0.5,0.5S42.8,156,43.1,156L43.1,156z"/>
<path class="st3" d="M48.1,151.9c0.3,0,0.5-0.2,0.5-0.5s-0.2-0.5-0.5-0.5s-0.5,0.2-0.5,0.5S47.8,151.9,48.1,151.9z"/>
<path class="st3" d="M47.2,155.8c0.3,0,0.5-0.2,0.5-0.5s-0.2-0.5-0.5-0.5s-0.5,0.2-0.5,0.5S47,155.8,47.2,155.8L47.2,155.8z"/>
<path class="st3" d="M51.7,151.6c0.3,0,0.5-0.2,0.5-0.5s-0.2-0.5-0.5-0.5s-0.5,0.2-0.5,0.5S51.4,151.6,51.7,151.6z"/>
<path class="st3" d="M51.1,148.3c0.3,0,0.5-0.2,0.5-0.5s-0.2-0.5-0.5-0.5s-0.5,0.2-0.5,0.5S50.9,148.3,51.1,148.3z"/>
<path class="st3" d="M55,153.3c0.3,0,0.5-0.2,0.5-0.5s-0.2-0.5-0.5-0.5s-0.5,0.2-0.5,0.5S54.7,153.3,55,153.3z"/>
<path class="st3" d="M54.5,157.2c0.3,0,0.5-0.2,0.5-0.5s-0.2-0.5-0.5-0.5s-0.5,0.2-0.5,0.5S54.2,157.2,54.5,157.2z"/>
<path class="st3" d="M52.2,156.6c0.3,0,0.5-0.2,0.5-0.5s-0.2-0.5-0.5-0.5s-0.5,0.2-0.5,0.5S52,156.6,52.2,156.6z"/>
<path class="st3" d="M52.7,156.1v-0.3c0-0.3-0.2-0.5-0.5-0.5s-0.5,0.2-0.5,0.5v0.3c0,0.3,0.2,0.5,0.5,0.5S52.7,156.4,52.7,156.1z"/>
<path class="st3" d="M48.1,159.9c0.3,0,0.5-0.2,0.5-0.5s-0.2-0.5-0.5-0.5s-0.5,0.2-0.5,0.5S47.8,159.9,48.1,159.9z"/>
<path class="st3" d="M42.8,160.8c0.3,0,0.5-0.2,0.5-0.5s-0.2-0.5-0.5-0.5s-0.5,0.2-0.5,0.5S42.5,160.8,42.8,160.8L42.8,160.8z"/>
<path class="st3" d="M43.3,164.4c0.3,0,0.5-0.2,0.5-0.5s-0.2-0.5-0.5-0.5l0,0c-0.3,0-0.5,0.2-0.5,0.5S43.1,164.4,43.3,164.4z"/>
<path class="st3" d="M49.2,162.2c0.3,0,0.5-0.2,0.5-0.5s-0.2-0.5-0.5-0.5l0,0c-0.3,0-0.5,0.2-0.5,0.5S48.9,162.2,49.2,162.2z"/>
<path class="st3" d="M55.6,160.2c0.3,0,0.5-0.2,0.5-0.5s-0.2-0.5-0.5-0.5s-0.5,0.2-0.5,0.5S55.3,160.2,55.6,160.2z"/>
<path class="st3" d="M59.5,157.2c0.3,0,0.5-0.2,0.5-0.5s-0.2-0.5-0.5-0.5s-0.5,0.2-0.5,0.5S59.2,157.2,59.5,157.2z"/>
<path class="st3" d="M63.9,155.2c0.3,0,0.5-0.2,0.5-0.5s-0.2-0.5-0.5-0.5c-0.3,0-0.5,0.2-0.5,0.5S63.7,155.2,63.9,155.2z"/>
<path class="st3" d="M60.6,152.7c0.3,0,0.5-0.2,0.5-0.5s-0.2-0.5-0.5-0.5s-0.5,0.2-0.5,0.5S60.3,152.7,60.6,152.7L60.6,152.7z"/>
<path class="st3" d="M58.4,149.6c0.3,0,0.5-0.2,0.5-0.5s-0.2-0.5-0.5-0.5s-0.5,0.2-0.5,0.5S58.1,149.6,58.4,149.6z"/>
<path class="st3" d="M61.7,149.6c0.3,0,0.5-0.2,0.5-0.5s-0.2-0.5-0.5-0.5s-0.5,0.2-0.5,0.5S61.4,149.6,61.7,149.6z"/>
<path class="st3" d="M67,151.3c0.3,0,0.5-0.2,0.5-0.5s-0.2-0.5-0.5-0.5s-0.5,0.2-0.5,0.5S66.7,151.3,67,151.3z"/>
<path class="st3" d="M80.1,156.3c0.3,0,0.5-0.2,0.5-0.5s-0.2-0.5-0.5-0.5l0,0c-0.3,0-0.5,0.2-0.5,0.5S79.8,156.3,80.1,156.3z"/>
<path class="st3" d="M84,160.8c0.3,0,0.5-0.2,0.5-0.5s-0.2-0.5-0.5-0.5s-0.5,0.2-0.5,0.5S83.7,160.8,84,160.8z"/>
<path class="st3" d="M89,161.1c0.3,0,0.5-0.2,0.5-0.5s-0.2-0.5-0.5-0.5s-0.5,0.2-0.5,0.5S88.7,161.1,89,161.1z"/>
<path class="st3" d="M93.1,164.7c0.3,0,0.5-0.2,0.5-0.5s-0.2-0.5-0.5-0.5l0,0c-0.3,0-0.5,0.2-0.5,0.5S92.9,164.7,93.1,164.7z"/>
<path class="st3" d="M86.2,165.2c0.3,0,0.5-0.2,0.5-0.5s-0.2-0.5-0.5-0.5s-0.5,0.2-0.5,0.5S85.9,165.2,86.2,165.2z"/>
<path class="st3" d="M79,161.6c0.3,0,0.5-0.2,0.5-0.5s-0.2-0.5-0.5-0.5s-0.5,0.2-0.5,0.5S78.7,161.6,79,161.6z"/>
<path class="st3" d="M84,168.3c0.3,0,0.5-0.2,0.5-0.5s-0.2-0.5-0.5-0.5s-0.5,0.2-0.5,0.5S83.7,168.3,84,168.3z"/>
<path class="st3" d="M94.5,168.9c0.3,0,0.5-0.2,0.5-0.5s-0.2-0.5-0.5-0.5s-0.5,0.2-0.5,0.5S94.3,168.9,94.5,168.9z"/>
<path class="st3" d="M89,169.4c0.3,0,0.5-0.2,0.5-0.5s-0.2-0.5-0.5-0.5s-0.5,0.2-0.5,0.5S88.7,169.4,89,169.4z"/>
<path class="st3" d="M99.3,167.2c0.3,0,0.5-0.2,0.5-0.5s-0.2-0.5-0.5-0.5s-0.5,0.2-0.5,0.5S99,167.2,99.3,167.2z"/>
<path class="st3" d="M103.4,165.5c0.3,0,0.5-0.2,0.5-0.5s-0.2-0.5-0.5-0.5s-0.5,0.2-0.5,0.5S103.2,165.5,103.4,165.5z"/>
<path class="st3" d="M110.4,165.5c0.3,0,0.5-0.2,0.5-0.5s-0.2-0.5-0.5-0.5s-0.5,0.2-0.5,0.5S110.1,165.5,110.4,165.5z"/>
<path class="st3" d="M105.1,168.9c0.3,0,0.5-0.2,0.5-0.5s-0.2-0.5-0.5-0.5s-0.5,0.2-0.5,0.5S104.8,168.9,105.1,168.9z"/>
<path class="st3" d="M101.2,172.2c0.3,0,0.5-0.2,0.5-0.5s-0.2-0.5-0.5-0.5s-0.5,0.2-0.5,0.5S100.9,172.2,101.2,172.2L101.2,172.2z"
	/>
<path class="st3" d="M95.1,174.7c0.3,0,0.5-0.2,0.5-0.5s-0.2-0.5-0.5-0.5s-0.5,0.2-0.5,0.5S94.8,174.7,95.1,174.7z"/>
<path class="st3" d="M92.6,174.7c0.3,0,0.5-0.2,0.5-0.5s-0.2-0.5-0.5-0.5s-0.5,0.2-0.5,0.5S92.3,174.7,92.6,174.7z"/>
<path class="st3" d="M88.4,174.1c0.3,0,0.5-0.2,0.5-0.5s-0.2-0.5-0.5-0.5l0,0c-0.3,0-0.5,0.2-0.5,0.5S88.1,174.1,88.4,174.1z"/>
<path class="st3" d="M100.1,178.3c0.3,0,0.5-0.2,0.5-0.5s-0.2-0.5-0.5-0.5s-0.5,0.2-0.5,0.5S99.8,178.3,100.1,178.3z"/>
<path class="st3" d="M104.6,174.4c0.3,0,0.5-0.2,0.5-0.5s-0.2-0.5-0.5-0.5s-0.5,0.2-0.5,0.5S104.3,174.4,104.6,174.4z"/>
<path class="st3" d="M109,171.1c0.3,0,0.5-0.2,0.5-0.5s-0.2-0.5-0.5-0.5s-0.5,0.2-0.5,0.5S108.7,171.1,109,171.1z"/>
<path class="st3" d="M158.5,146.6c0.3,0,0.5-0.2,0.5-0.5s-0.2-0.5-0.5-0.5s-0.5,0.2-0.5,0.5S158.2,146.6,158.5,146.6z"/>
<path class="st3" d="M163,148.3c0.3,0,0.5-0.2,0.5-0.5s-0.2-0.5-0.5-0.5l0,0c-0.3,0-0.5,0.2-0.5,0.5S162.7,148.3,163,148.3z"/>
<path class="st3" d="M167.1,148c0.3,0,0.5-0.2,0.5-0.5s-0.2-0.5-0.5-0.5s-0.5,0.2-0.5,0.5S166.9,148,167.1,148L167.1,148z"/>
<path class="st3" d="M172.1,146.3c0.3,0,0.5-0.2,0.5-0.5s-0.2-0.5-0.5-0.5s-0.5,0.2-0.5,0.5S171.9,146.3,172.1,146.3L172.1,146.3z"
	/>
<path class="st3" d="M171.3,150.5c0.3,0,0.5-0.2,0.5-0.5s-0.2-0.5-0.5-0.5l0,0c-0.3,0-0.5,0.2-0.5,0.5S171,150.5,171.3,150.5z"/>
<path class="st3" d="M162.4,152.7c0.3,0,0.5-0.2,0.5-0.5s-0.2-0.5-0.5-0.5l0,0c-0.3,0-0.5,0.2-0.5,0.5S162.1,152.7,162.4,152.7z"/>
<path class="st3" d="M158.5,151.9c0.3,0,0.5-0.2,0.5-0.5s-0.2-0.5-0.5-0.5s-0.5,0.2-0.5,0.5S158.2,151.9,158.5,151.9z"/>
<path class="st3" d="M157.1,157.2c0.3,0,0.5-0.2,0.5-0.5s-0.2-0.5-0.5-0.5s-0.5,0.2-0.5,0.5S156.9,157.2,157.1,157.2z"/>
<path class="st3" d="M161.6,156.9c0.3,0,0.5-0.2,0.5-0.5s-0.2-0.5-0.5-0.5l0,0c-0.3,0-0.5,0.2-0.5,0.5S161.3,156.9,161.6,156.9z"/>
<path class="st3" d="M168.3,157.2c0.3,0,0.5-0.2,0.5-0.5s-0.2-0.5-0.5-0.5s-0.5,0.2-0.5,0.5S168,157.2,168.3,157.2L168.3,157.2z"/>
<path class="st3" d="M172.7,153.5c0.3,0,0.5-0.2,0.5-0.5s-0.2-0.5-0.5-0.5s-0.5,0.2-0.5,0.5S172.4,153.5,172.7,153.5L172.7,153.5z"
	/>
<path class="st3" d="M153.5,151.3c0.3,0,0.5-0.2,0.5-0.5s-0.2-0.5-0.5-0.5s-0.5,0.2-0.5,0.5S153.2,151.3,153.5,151.3z"/>
<path class="st3" d="M149.6,148.8c0.3,0,0.5-0.2,0.5-0.5s-0.2-0.5-0.5-0.5s-0.5,0.2-0.5,0.5S149.3,148.8,149.6,148.8z"/>
<path class="st3" d="M143.2,145.5c0.3,0,0.5-0.2,0.5-0.5s-0.2-0.5-0.5-0.5s-0.5,0.2-0.5,0.5S142.9,145.5,143.2,145.5z"/>
<path class="st3" d="M151.8,146c0.3,0,0.5-0.2,0.5-0.5s-0.2-0.5-0.5-0.5s-0.5,0.2-0.5,0.5S151.6,146,151.8,146z"/>
<path class="st3" d="M146.6,144.9c0.3,0,0.5-0.2,0.5-0.5s-0.2-0.5-0.5-0.5s-0.5,0.2-0.5,0.5S146.3,144.9,146.6,144.9z"/>
<path class="st3" d="M151.6,155.8c0.3,0,0.5-0.2,0.5-0.5s-0.2-0.5-0.5-0.5s-0.5,0.2-0.5,0.5S151.3,155.8,151.6,155.8z"/>
<path class="st3" d="M145.4,153.8c0.3,0,0.5-0.2,0.5-0.5s-0.2-0.5-0.5-0.5s-0.5,0.2-0.5,0.5S145.2,153.8,145.4,153.8z"/>
<path class="st3" d="M115.1,164.7c0.3,0,0.5-0.2,0.5-0.5s-0.2-0.5-0.5-0.5s-0.5,0.2-0.5,0.5S114.8,164.7,115.1,164.7L115.1,164.7z"
	/>
<path class="st3" d="M119.6,159.9c0.3,0,0.5-0.2,0.5-0.5s-0.2-0.5-0.5-0.5l0,0c-0.3,0-0.5,0.2-0.5,0.5S119.3,159.9,119.6,159.9z"/>
<path class="st3" d="M116.2,168.6c0.3,0,0.5-0.2,0.5-0.5s-0.2-0.5-0.5-0.5s-0.5,0.2-0.5,0.5S116,168.6,116.2,168.6z"/>
<path class="st3" d="M121,162.4c0.3,0,0.5-0.2,0.5-0.5s-0.2-0.5-0.5-0.5s-0.5,0.2-0.5,0.5S120.7,162.4,121,162.4L121,162.4z"/>
<path class="st3" d="M124,153.5c0.3,0,0.5-0.2,0.5-0.5s-0.2-0.5-0.5-0.5s-0.5,0.2-0.5,0.5S123.7,153.5,124,153.5L124,153.5z"/>
<path class="st3" d="M45.3,153c0.3,0,0.5-0.2,0.5-0.5s-0.2-0.5-0.5-0.5s-0.5,0.2-0.5,0.5S45.1,153,45.3,153z"/>
<path class="st3" d="M44,158.8c0.3,0,0.5-0.2,0.5-0.5s-0.2-0.5-0.5-0.5s-0.5,0.2-0.5,0.5S43.7,158.8,44,158.8z"/>
<path class="st3" d="M49,154.6c0.3,0,0.5-0.2,0.5-0.5s-0.2-0.5-0.5-0.5s-0.5,0.2-0.5,0.5S48.7,154.6,49,154.6z"/>
<path class="st3" d="M48.1,158.6c0.3,0,0.5-0.2,0.5-0.5s-0.2-0.5-0.5-0.5s-0.5,0.2-0.5,0.5S47.8,158.6,48.1,158.6L48.1,158.6z"/>
<path class="st3" d="M52.6,154.4c0.3,0,0.5-0.2,0.5-0.5s-0.2-0.5-0.5-0.5l0,0c-0.3,0-0.5,0.2-0.5,0.5S52.3,154.4,52.6,154.4z"/>
<path class="st3" d="M52,151c0.3,0,0.5-0.2,0.5-0.5S52.3,150,52,150s-0.5,0.2-0.5,0.5S51.7,151,52,151z"/>
<path class="st3" d="M55.9,156c0.3,0,0.5-0.2,0.5-0.5s-0.2-0.5-0.5-0.5l0,0c-0.3,0-0.5,0.2-0.5,0.5S55.6,156,55.9,156z"/>
<path class="st3" d="M55.4,159.9c0.3,0,0.5-0.2,0.5-0.5s-0.2-0.5-0.5-0.5s-0.5,0.2-0.5,0.5S55.1,159.9,55.4,159.9z"/>
<path class="st3" d="M53.1,159.4c0.3,0,0.5-0.2,0.5-0.5s-0.2-0.5-0.5-0.5s-0.5,0.2-0.5,0.5S52.9,159.4,53.1,159.4z"/>
<path class="st3" d="M53.6,158.9v-0.3c0-0.3-0.2-0.5-0.5-0.5s-0.5,0.2-0.5,0.5v0.3c0,0.3,0.2,0.5,0.5,0.5S53.6,159.2,53.6,158.9z"/>
<path class="st3" d="M49,163.5c0.3,0,0.5-0.2,0.5-0.5s-0.2-0.5-0.5-0.5s-0.5,0.2-0.5,0.5S48.7,163.5,49,163.5z"/>
<path class="st3" d="M43.7,163.6c0.3,0,0.5-0.2,0.5-0.5s-0.2-0.5-0.5-0.5s-0.5,0.2-0.5,0.5S43.4,163.6,43.7,163.6z"/>
<path class="st3" d="M44.2,167.2c0.3,0,0.5-0.2,0.5-0.5s-0.2-0.5-0.5-0.5s-0.5,0.2-0.5,0.5S44,167.2,44.2,167.2z"/>
<path class="st3" d="M50.1,164.9c0.3,0,0.5-0.2,0.5-0.5s-0.2-0.5-0.5-0.5s-0.5,0.2-0.5,0.5S49.8,164.9,50.1,164.9z"/>
<path class="st3" d="M56.5,163c0.3,0,0.5-0.2,0.5-0.5s-0.2-0.5-0.5-0.5s-0.5,0.2-0.5,0.5S56.2,163,56.5,163z"/>
<path class="st3" d="M60.4,159.9c0.3,0,0.5-0.2,0.5-0.5s-0.2-0.5-0.5-0.5l0,0c-0.3,0-0.5,0.2-0.5,0.5S60.1,159.9,60.4,159.9z"/>
<path class="st3" d="M64.8,158c0.3,0,0.5-0.2,0.5-0.5s-0.2-0.5-0.5-0.5s-0.5,0.2-0.5,0.5S64.5,158,64.8,158z"/>
<path class="st3" d="M61.5,155.5c0.3,0,0.5-0.2,0.5-0.5s-0.2-0.5-0.5-0.5S61,154.7,61,155S61.2,155.5,61.5,155.5z"/>
<path class="st3" d="M59.3,152.4c0.3,0,0.5-0.2,0.5-0.5s-0.2-0.5-0.5-0.5s-0.5,0.2-0.5,0.5S59,152.4,59.3,152.4z"/>
<path class="st3" d="M62.6,152.4c0.3,0,0.5-0.2,0.5-0.5s-0.2-0.5-0.5-0.5s-0.5,0.2-0.5,0.5S62.3,152.4,62.6,152.4L62.6,152.4z"/>
<path class="st3" d="M67.9,154.1c0.3,0,0.5-0.2,0.5-0.5s-0.2-0.5-0.5-0.5s-0.5,0.2-0.5,0.5S67.6,154.1,67.9,154.1z"/>
<path class="st3" d="M43.5,148.8c0.2,0,0.4-0.2,0.4-0.4s-0.2-0.4-0.4-0.4s-0.4,0.2-0.4,0.4S43.3,148.8,43.5,148.8z"/>
<path class="st3" d="M42.5,154.6c0.2,0,0.4-0.2,0.4-0.4s-0.2-0.4-0.4-0.4s-0.4,0.2-0.4,0.4S42.2,154.6,42.5,154.6z"/>
<path class="st3" d="M46.4,150.4c0.2,0,0.4-0.2,0.4-0.4s-0.2-0.4-0.4-0.4s-0.4,0.2-0.4,0.4S46.1,150.4,46.4,150.4L46.4,150.4z"/>
<path class="st3" d="M45.7,154.3c0.2,0,0.4-0.2,0.4-0.4s-0.2-0.4-0.4-0.4s-0.4,0.2-0.4,0.4S45.5,154.3,45.7,154.3z"/>
<path class="st3" d="M49.2,150.1c0.2,0,0.4-0.2,0.4-0.4s-0.2-0.4-0.4-0.4s-0.4,0.2-0.4,0.4S49,150.1,49.2,150.1z"/>
<path class="st3" d="M48.8,146.8c0.2,0,0.4-0.2,0.4-0.4S49,146,48.8,146s-0.4,0.2-0.4,0.4S48.5,146.8,48.8,146.8z"/>
<path class="st3" d="M51.8,152.6c0.2,0,0.4-0.2,0.4-0.4s-0.2-0.4-0.4-0.4s-0.4,0.2-0.4,0.4S51.6,152.6,51.8,152.6z"/>
<path class="st3" d="M51.4,155.7c0.2,0,0.4-0.2,0.4-0.4s-0.2-0.4-0.4-0.4s-0.4,0.2-0.4,0.4S51.1,155.7,51.4,155.7z"/>
<path class="st3" d="M49.6,155.1c0.2,0,0.4-0.2,0.4-0.4s-0.2-0.4-0.4-0.4s-0.4,0.2-0.4,0.4S49.4,155.1,49.6,155.1z"/>
<path class="st3" d="M50,154.7v-0.3c0-0.2-0.2-0.4-0.4-0.4s-0.4,0.2-0.4,0.4v0.3c0,0.2,0.2,0.4,0.4,0.4S50,155,50,154.7z"/>
<path class="st3" d="M46.4,158.5c0.2,0,0.4-0.2,0.4-0.4s-0.2-0.4-0.4-0.4s-0.4,0.2-0.4,0.4S46.1,158.5,46.4,158.5L46.4,158.5z"/>
<path class="st3" d="M42.2,159.3c0.2,0,0.4-0.2,0.4-0.4s-0.2-0.4-0.4-0.4s-0.4,0.2-0.4,0.4S42,159.3,42.2,159.3z"/>
<path class="st3" d="M42.7,162.9c0.2,0,0.4-0.2,0.4-0.4s-0.2-0.4-0.4-0.4s-0.4,0.2-0.4,0.4S42.4,162.9,42.7,162.9L42.7,162.9z"/>
<path class="st3" d="M47.2,160.7c0.2,0,0.4-0.2,0.4-0.4s-0.2-0.4-0.4-0.4s-0.4,0.2-0.4,0.4S47,160.7,47.2,160.7z"/>
<path class="st3" d="M52.2,158.8c0.2,0,0.4-0.2,0.4-0.4s-0.2-0.4-0.4-0.4s-0.4,0.2-0.4,0.4S52,158.8,52.2,158.8z"/>
<path class="st3" d="M56,155.7c0.2,0,0.4-0.2,0.4-0.4s-0.2-0.4-0.4-0.4s-0.4,0.2-0.4,0.4S55.8,155.7,56,155.7z"/>
<path class="st3" d="M58.8,153.8c0.2,0,0.4-0.2,0.4-0.4s-0.2-0.4-0.4-0.4s-0.4,0.2-0.4,0.4S58.5,153.8,58.8,153.8z"/>
<path class="st3" d="M56.1,151.3c0.2,0,0.4-0.2,0.4-0.4s-0.2-0.4-0.4-0.4s-0.4,0.2-0.4,0.4S55.9,151.3,56.1,151.3z"/>
<path class="st3" d="M54.4,148.2c0.2,0,0.4-0.2,0.4-0.4s-0.2-0.4-0.4-0.4l0,0c-0.2,0-0.4,0.2-0.4,0.4S54.2,148.2,54.4,148.2z"/>
<path class="st3" d="M57,148.2c0.2,0,0.4-0.2,0.4-0.4s-0.2-0.4-0.4-0.4s-0.4,0.2-0.4,0.4S56.8,148.2,57,148.2z"/>
<path class="st3" d="M61.2,149.9c0.2,0,0.4-0.2,0.4-0.4s-0.2-0.4-0.4-0.4s-0.4,0.2-0.4,0.4S60.9,149.9,61.2,149.9L61.2,149.9z"/>
<path class="st3" d="M84.7,159.5c0.3,0,0.5-0.2,0.5-0.5s-0.2-0.5-0.5-0.5s-0.5,0.2-0.5,0.5S84.4,159.5,84.7,159.5z"/>
<path class="st3" d="M88.6,163.9c0.3,0,0.5-0.2,0.5-0.5s-0.2-0.5-0.5-0.5s-0.5,0.2-0.5,0.5S88.3,163.9,88.6,163.9z"/>
<path class="st3" d="M93.6,164.2c0.3,0,0.5-0.2,0.5-0.5s-0.2-0.5-0.5-0.5s-0.5,0.2-0.5,0.5S93.3,164.2,93.6,164.2z"/>
<path class="st3" d="M97.8,167.8c0.3,0,0.5-0.2,0.5-0.5s-0.2-0.5-0.5-0.5l0,0c-0.3,0-0.5,0.2-0.5,0.5S97.5,167.8,97.8,167.8z"/>
<path class="st3" d="M90.8,168.4c0.3,0,0.5-0.2,0.5-0.5s-0.2-0.5-0.5-0.5s-0.5,0.2-0.5,0.5S90.6,168.4,90.8,168.4L90.8,168.4z"/>
<path class="st3" d="M83.6,164.7c0.3,0,0.5-0.2,0.5-0.5s-0.2-0.5-0.5-0.5s-0.5,0.2-0.5,0.5S83.3,164.7,83.6,164.7L83.6,164.7z"/>
<path class="st3" d="M88.6,171.4c0.3,0,0.5-0.2,0.5-0.5s-0.2-0.5-0.5-0.5s-0.5,0.2-0.5,0.5S88.3,171.4,88.6,171.4z"/>
<path class="st3" d="M99.2,172c0.3,0,0.5-0.2,0.5-0.5s-0.2-0.5-0.5-0.5l0,0c-0.3,0-0.5,0.2-0.5,0.5S98.9,172,99.2,172z"/>
<path class="st3" d="M93.6,172.5c0.3,0,0.5-0.2,0.5-0.5s-0.2-0.5-0.5-0.5s-0.5,0.2-0.5,0.5S93.3,172.5,93.6,172.5z"/>
<path class="st3" d="M103.9,170.3c0.3,0,0.5-0.2,0.5-0.5s-0.2-0.5-0.5-0.5s-0.5,0.2-0.5,0.5S103.6,170.3,103.9,170.3z"/>
<path class="st3" d="M108.1,168.6c0.3,0,0.5-0.2,0.5-0.5s-0.2-0.5-0.5-0.5s-0.5,0.2-0.5,0.5S107.8,168.6,108.1,168.6z"/>
<path class="st3" d="M115,168.6c0.3,0,0.5-0.2,0.5-0.5s-0.2-0.5-0.5-0.5s-0.5,0.2-0.5,0.5S114.7,168.6,115,168.6z"/>
<path class="st3" d="M109.7,172c0.3,0,0.5-0.2,0.5-0.5s-0.2-0.5-0.5-0.5s-0.5,0.2-0.5,0.5S109.5,172,109.7,172z"/>
<path class="st3" d="M105.8,175.3c0.3,0,0.5-0.2,0.5-0.5s-0.2-0.5-0.5-0.5s-0.5,0.2-0.5,0.5S105.6,175.3,105.8,175.3z"/>
<path class="st3" d="M99.7,177.8c0.3,0,0.5-0.2,0.5-0.5s-0.2-0.5-0.5-0.5l0,0c-0.3,0-0.5,0.2-0.5,0.5S99.5,177.8,99.7,177.8z"/>
<path class="st3" d="M97.2,177.8c0.3,0,0.5-0.2,0.5-0.5s-0.2-0.5-0.5-0.5s-0.5,0.2-0.5,0.5S97,177.8,97.2,177.8z"/>
<path class="st3" d="M93.1,177.3c0.3,0,0.5-0.2,0.5-0.5s-0.2-0.5-0.5-0.5l0,0c-0.3,0-0.5,0.2-0.5,0.5S92.8,177.3,93.1,177.3z"/>
<path class="st3" d="M104.7,181.4c0.3,0,0.5-0.2,0.5-0.5s-0.2-0.5-0.5-0.5l0,0c-0.3,0-0.5,0.2-0.5,0.5S104.5,181.4,104.7,181.4z"/>
<path class="st3" d="M109.2,177.5c0.3,0,0.5-0.2,0.5-0.5s-0.2-0.5-0.5-0.5s-0.5,0.2-0.5,0.5S108.9,177.5,109.2,177.5z"/>
<path class="st3" d="M113.6,174.2c0.3,0,0.5-0.2,0.5-0.5s-0.2-0.5-0.5-0.5s-0.5,0.2-0.5,0.5S113.4,174.2,113.6,174.2z"/>
<path class="st3" d="M119.8,167.8c0.3,0,0.5-0.2,0.5-0.5s-0.2-0.5-0.5-0.5s-0.5,0.2-0.5,0.5S119.5,167.8,119.8,167.8z"/>
<path class="st3" d="M124.2,163.1c0.3,0,0.5-0.2,0.5-0.5s-0.2-0.5-0.5-0.5s-0.5,0.2-0.5,0.5S123.9,163.1,124.2,163.1L124.2,163.1z"
	/>
<path class="st3" d="M120.9,171.7c0.3,0,0.5-0.2,0.5-0.5s-0.2-0.5-0.5-0.5s-0.5,0.2-0.5,0.5S120.6,171.7,120.9,171.7L120.9,171.7z"
	/>
<path class="st3" d="M125.6,165.6c0.3,0,0.5-0.2,0.5-0.5s-0.2-0.5-0.5-0.5s-0.5,0.2-0.5,0.5S125.3,165.6,125.6,165.6z"/>
<path class="st3" d="M128.7,156.7c0.3,0,0.5-0.2,0.5-0.5s-0.2-0.5-0.5-0.5s-0.5,0.2-0.5,0.5S128.4,156.7,128.7,156.7z"/>
<path class="st3" d="M77.5,162.9c0.3,0,0.5-0.2,0.5-0.5s-0.2-0.5-0.5-0.5s-0.5,0.2-0.5,0.5S77.3,162.9,77.5,162.9z"/>
<path class="st3" d="M81.4,167.4c0.3,0,0.5-0.2,0.5-0.5s-0.2-0.5-0.5-0.5s-0.5,0.2-0.5,0.5S81.2,167.4,81.4,167.4z"/>
<path class="st3" d="M86.4,167.7c0.3,0,0.5-0.2,0.5-0.5s-0.2-0.5-0.5-0.5s-0.5,0.2-0.5,0.5S86.2,167.7,86.4,167.7z"/>
<path class="st3" d="M90.6,171.3c0.3,0,0.5-0.2,0.5-0.5s-0.2-0.5-0.5-0.5s-0.5,0.2-0.5,0.5S90.3,171.3,90.6,171.3z"/>
<path class="st3" d="M83.7,171.8c0.3,0,0.5-0.2,0.5-0.5s-0.2-0.5-0.5-0.5s-0.5,0.2-0.5,0.5S83.4,171.8,83.7,171.8z"/>
<path class="st3" d="M76.4,168.2c0.3,0,0.5-0.2,0.5-0.5s-0.2-0.5-0.5-0.5s-0.5,0.2-0.5,0.5S76.2,168.2,76.4,168.2z"/>
<path class="st3" d="M81.4,174.9c0.3,0,0.5-0.2,0.5-0.5s-0.2-0.5-0.5-0.5s-0.5,0.2-0.5,0.5S81.2,174.9,81.4,174.9z"/>
<path class="st3" d="M92,175.5c0.3,0,0.5-0.2,0.5-0.5s-0.2-0.5-0.5-0.5s-0.5,0.2-0.5,0.5S91.7,175.5,92,175.5z"/>
<path class="st3" d="M86.4,176c0.3,0,0.5-0.2,0.5-0.5s-0.2-0.5-0.5-0.5s-0.5,0.2-0.5,0.5S86.2,176,86.4,176z"/>
<path class="st3" d="M96.7,173.8c0.3,0,0.5-0.2,0.5-0.5s-0.2-0.5-0.5-0.5s-0.5,0.2-0.5,0.5S96.5,173.8,96.7,173.8z"/>
<path class="st3" d="M100.9,172.1c0.3,0,0.5-0.2,0.5-0.5s-0.2-0.5-0.5-0.5s-0.5,0.2-0.5,0.5S100.6,172.1,100.9,172.1z"/>
<path class="st3" d="M107.9,172.1c0.3,0,0.5-0.2,0.5-0.5s-0.2-0.5-0.5-0.5s-0.5,0.2-0.5,0.5S107.6,172.1,107.9,172.1z"/>
<path class="st3" d="M102.6,175.5c0.3,0,0.5-0.2,0.5-0.5s-0.2-0.5-0.5-0.5s-0.5,0.2-0.5,0.5S102.3,175.5,102.6,175.5z"/>
<path class="st3" d="M98.7,178.8c0.3,0,0.5-0.2,0.5-0.5s-0.2-0.5-0.5-0.5s-0.5,0.2-0.5,0.5S98.4,178.8,98.7,178.8z"/>
<path class="st3" d="M92.6,181.3c0.3,0,0.5-0.2,0.5-0.5s-0.2-0.5-0.5-0.5s-0.5,0.2-0.5,0.5S92.3,181.3,92.6,181.3z"/>
<path class="st3" d="M90.1,181.3c0.3,0,0.5-0.2,0.5-0.5s-0.2-0.5-0.5-0.5s-0.5,0.2-0.5,0.5S89.8,181.3,90.1,181.3z"/>
<path class="st3" d="M85.9,180.7c0.3,0,0.5-0.2,0.5-0.5s-0.2-0.5-0.5-0.5s-0.5,0.2-0.5,0.5S85.6,180.7,85.9,180.7L85.9,180.7z"/>
<path class="st3" d="M97.6,184.9c0.3,0,0.5-0.2,0.5-0.5s-0.2-0.5-0.5-0.5s-0.5,0.2-0.5,0.5S97.3,184.9,97.6,184.9z"/>
<path class="st3" d="M102,181c0.3,0,0.5-0.2,0.5-0.5s-0.2-0.5-0.5-0.5s-0.5,0.2-0.5,0.5S101.7,181,102,181z"/>
<path class="st3" d="M106.5,177.7c0.3,0,0.5-0.2,0.5-0.5s-0.2-0.5-0.5-0.5l0,0c-0.3,0-0.5,0.2-0.5,0.5S106.2,177.7,106.5,177.7z"/>
<path class="st3" d="M112.6,171.3c0.3,0,0.5-0.2,0.5-0.5s-0.2-0.5-0.5-0.5s-0.5,0.2-0.5,0.5S112.3,171.3,112.6,171.3z"/>
<path class="st3" d="M117,166.6c0.3,0,0.5-0.2,0.5-0.5s-0.2-0.5-0.5-0.5s-0.5,0.2-0.5,0.5S116.7,166.6,117,166.6z"/>
<path class="st3" d="M113.7,175.2c0.3,0,0.5-0.2,0.5-0.5s-0.2-0.5-0.5-0.5s-0.5,0.2-0.5,0.5S113.4,175.2,113.7,175.2z"/>
<path class="st3" d="M118.4,169.1c0.3,0,0.5-0.2,0.5-0.5s-0.2-0.5-0.5-0.5s-0.5,0.2-0.5,0.5S118.2,169.1,118.4,169.1z"/>
<path class="st3" d="M121.5,160.1c0.3,0,0.5-0.2,0.5-0.5s-0.2-0.5-0.5-0.5l0,0c-0.3,0-0.5,0.2-0.5,0.5S121.2,160.1,121.5,160.1z"/>
<path class="st3" d="M87.7,166.5c0.2,0,0.4-0.2,0.4-0.4c0-0.2-0.2-0.4-0.4-0.4c-0.2,0-0.4,0.2-0.4,0.4
	C87.3,166.3,87.5,166.5,87.7,166.5z"/>
<path class="st3" d="M91.6,169.5c0.2,0,0.4-0.2,0.4-0.4c0-0.2-0.2-0.4-0.4-0.4c-0.2,0-0.4,0.2-0.4,0.4
	C91.2,169.3,91.4,169.5,91.6,169.5z"/>
<path class="st3" d="M96.6,169.7c0.2,0,0.4-0.2,0.4-0.4c0-0.2-0.2-0.4-0.4-0.4c-0.2,0-0.4,0.2-0.4,0.4
	C96.2,169.5,96.4,169.7,96.6,169.7z"/>
<path class="st3" d="M100.8,172.1c0.2,0,0.4-0.2,0.4-0.4c0-0.2-0.2-0.4-0.4-0.4c-0.2,0-0.4,0.2-0.4,0.4
	C100.4,171.9,100.6,172.1,100.8,172.1z"/>
<path class="st3" d="M93.8,172.4c0.2,0,0.4-0.2,0.4-0.4c0-0.2-0.2-0.4-0.4-0.4c-0.2,0-0.4,0.2-0.4,0.4
	C93.4,172.3,93.6,172.4,93.8,172.4z"/>
<path class="st3" d="M86.6,170c0.2,0,0.4-0.2,0.4-0.4c0-0.2-0.2-0.4-0.4-0.4c-0.2,0-0.4,0.2-0.4,0.4C86.2,169.8,86.4,170,86.6,170z"
	/>
<path class="st3" d="M91.6,174.5c0.2,0,0.4-0.2,0.4-0.4c0-0.2-0.2-0.4-0.4-0.4c-0.2,0-0.4,0.2-0.4,0.4
	C91.2,174.3,91.4,174.5,91.6,174.5z"/>
<path class="st3" d="M102.2,174.8c0.2,0,0.4-0.2,0.4-0.4c0-0.2-0.2-0.4-0.4-0.4c-0.2,0-0.4,0.2-0.4,0.4
	C101.8,174.7,102,174.8,102.2,174.8z"/>
<path class="st3" d="M96.6,175.2c0.2,0,0.4-0.2,0.4-0.4c0-0.2-0.2-0.4-0.4-0.4c-0.2,0-0.4,0.2-0.4,0.4
	C96.2,175,96.4,175.2,96.6,175.2z"/>
<path class="st3" d="M106.9,173.7c0.2,0,0.4-0.2,0.4-0.4c0-0.2-0.2-0.4-0.4-0.4c-0.2,0-0.4,0.2-0.4,0.4
	C106.5,173.6,106.7,173.7,106.9,173.7z"/>
<path class="st3" d="M111.1,172.6c0.2,0,0.4-0.2,0.4-0.4c0-0.2-0.2-0.4-0.4-0.4c-0.2,0-0.4,0.2-0.4,0.4
	C110.7,172.4,110.9,172.6,111.1,172.6z"/>
<path class="st3" d="M118,172.6c0.2,0,0.4-0.2,0.4-0.4c0-0.2-0.2-0.4-0.4-0.4c-0.2,0-0.4,0.2-0.4,0.4
	C117.6,172.4,117.8,172.6,118,172.6z"/>
<path class="st3" d="M112.7,174.8c0.2,0,0.4-0.2,0.4-0.4c0-0.2-0.2-0.4-0.4-0.4c-0.2,0-0.4,0.2-0.4,0.4
	C112.4,174.7,112.5,174.8,112.7,174.8z"/>
<path class="st3" d="M108.8,177.1c0.2,0,0.4-0.2,0.4-0.4c0-0.2-0.2-0.4-0.4-0.4c-0.2,0-0.4,0.2-0.4,0.4
	C108.5,176.9,108.6,177.1,108.8,177.1z"/>
<path class="st3" d="M102.7,178.7c0.2,0,0.4-0.2,0.4-0.4c0-0.2-0.2-0.4-0.4-0.4c-0.2,0-0.4,0.2-0.4,0.4
	C102.3,178.6,102.5,178.7,102.7,178.7z"/>
<path class="st3" d="M100.2,178.7c0.2,0,0.4-0.2,0.4-0.4c0-0.2-0.2-0.4-0.4-0.4c-0.2,0-0.4,0.2-0.4,0.4
	C99.8,178.6,100,178.7,100.2,178.7z"/>
<path class="st3" d="M96,178.4c0.2,0,0.4-0.2,0.4-0.4c0-0.2-0.2-0.4-0.4-0.4c-0.2,0-0.4,0.2-0.4,0.4C95.6,178.2,95.8,178.4,96,178.4
	z"/>
<path class="st3" d="M107.7,181.1c0.2,0,0.4-0.2,0.4-0.4c0-0.2-0.2-0.4-0.4-0.4c-0.2,0-0.4,0.2-0.4,0.4
	C107.3,181,107.5,181.1,107.7,181.1z"/>
<path class="st3" d="M112.2,178.5c0.2,0,0.4-0.2,0.4-0.4c0-0.2-0.2-0.4-0.4-0.4c-0.2,0-0.4,0.2-0.4,0.4
	C111.8,178.4,112,178.5,112.2,178.5z"/>
<path class="st3" d="M116.6,176.3c0.2,0,0.4-0.2,0.4-0.4c0-0.2-0.2-0.4-0.4-0.4c-0.2,0-0.4,0.2-0.4,0.4
	C116.2,176.1,116.4,176.3,116.6,176.3z"/>
<path class="st3" d="M122.8,172.1c0.2,0,0.4-0.2,0.4-0.4c0-0.2-0.2-0.4-0.4-0.4c-0.2,0-0.4,0.2-0.4,0.4
	C122.4,171.9,122.5,172.1,122.8,172.1z"/>
<path class="st3" d="M127.2,168.9c0.2,0,0.4-0.2,0.4-0.4c0-0.2-0.2-0.4-0.4-0.4c-0.2,0-0.4,0.2-0.4,0.4
	C126.8,168.7,127,168.9,127.2,168.9z"/>
<path class="st3" d="M123.9,174.7c0.2,0,0.4-0.2,0.4-0.4c0-0.2-0.2-0.4-0.4-0.4c-0.2,0-0.4,0.2-0.4,0.4
	C123.5,174.5,123.7,174.7,123.9,174.7z"/>
<path class="st3" d="M128.6,170.6c0.2,0,0.4-0.2,0.4-0.4c0-0.2-0.2-0.4-0.4-0.4c-0.2,0-0.4,0.2-0.4,0.4
	C128.2,170.4,128.4,170.6,128.6,170.6z"/>
<path class="st3" d="M131.7,164.7c0.2,0,0.4-0.2,0.4-0.4c0-0.2-0.2-0.4-0.4-0.4c-0.2,0-0.4,0.2-0.4,0.4
	C131.3,164.5,131.4,164.7,131.7,164.7z"/>
<path class="st3" d="M155.3,151.9c0.3,0,0.5-0.2,0.5-0.5s-0.2-0.5-0.5-0.5s-0.5,0.2-0.5,0.5S155,151.9,155.3,151.9z"/>
<path class="st3" d="M159.7,153.6c0.3,0,0.5-0.2,0.5-0.5s-0.2-0.5-0.5-0.5s-0.5,0.2-0.5,0.5S159.4,153.6,159.7,153.6z"/>
<path class="st3" d="M163.9,153.3c0.3,0,0.5-0.2,0.5-0.5s-0.2-0.5-0.5-0.5s-0.5,0.2-0.5,0.5S163.6,153.3,163.9,153.3z"/>
<path class="st3" d="M168.9,151.7c0.3,0,0.5-0.2,0.5-0.5s-0.2-0.5-0.5-0.5s-0.5,0.2-0.5,0.5S168.6,151.7,168.9,151.7z"/>
<path class="st3" d="M168.1,155.8c0.3,0,0.5-0.2,0.5-0.5s-0.2-0.5-0.5-0.5s-0.5,0.2-0.5,0.5S167.8,155.8,168.1,155.8z"/>
<path class="st3" d="M159.1,158.1c0.3,0,0.5-0.2,0.5-0.5s-0.2-0.5-0.5-0.5s-0.5,0.2-0.5,0.5S158.9,158.1,159.1,158.1z"/>
<path class="st3" d="M155.3,157.2c0.3,0,0.5-0.2,0.5-0.5s-0.2-0.5-0.5-0.5s-0.5,0.2-0.5,0.5S155,157.2,155.3,157.2z"/>
<path class="st3" d="M153.9,162.5c0.3,0,0.5-0.2,0.5-0.5s-0.2-0.5-0.5-0.5s-0.5,0.2-0.5,0.5S153.6,162.5,153.9,162.5z"/>
<path class="st3" d="M158.3,162.2c0.3,0,0.5-0.2,0.5-0.5s-0.2-0.5-0.5-0.5s-0.5,0.2-0.5,0.5S158,162.2,158.3,162.2L158.3,162.2z"/>
<path class="st3" d="M165,162.5c0.3,0,0.5-0.2,0.5-0.5s-0.2-0.5-0.5-0.5s-0.5,0.2-0.5,0.5S164.7,162.5,165,162.5L165,162.5z"/>
<path class="st3" d="M169.4,158.9c0.3,0,0.5-0.2,0.5-0.5s-0.2-0.5-0.5-0.5s-0.5,0.2-0.5,0.5S169.2,158.9,169.4,158.9z"/>
<path class="st3" d="M150.3,156.7c0.3,0,0.5-0.2,0.5-0.5s-0.2-0.5-0.5-0.5s-0.5,0.2-0.5,0.5S150,156.7,150.3,156.7z"/>
<path class="st3" d="M146.4,154.2c0.3,0,0.5-0.2,0.5-0.5s-0.2-0.5-0.5-0.5l0,0c-0.3,0-0.5,0.2-0.5,0.5S146.1,154.2,146.4,154.2z"/>
<path class="st3" d="M140,150.8c0.3,0,0.5-0.2,0.5-0.5s-0.2-0.5-0.5-0.5s-0.5,0.2-0.5,0.5S139.7,150.8,140,150.8z"/>
<path class="st3" d="M148.6,151.4c0.3,0,0.5-0.2,0.5-0.5s-0.2-0.5-0.5-0.5s-0.5,0.2-0.5,0.5S148.3,151.4,148.6,151.4z"/>
<path class="st3" d="M143.3,150.3c0.3,0,0.5-0.2,0.5-0.5s-0.2-0.5-0.5-0.5s-0.5,0.2-0.5,0.5S143,150.3,143.3,150.3z"/>
<path class="st3" d="M148.3,161.1c0.3,0,0.5-0.2,0.5-0.5s-0.2-0.5-0.5-0.5s-0.5,0.2-0.5,0.5S148,161.1,148.3,161.1z"/>
<path class="st3" d="M142.2,159.2c0.3,0,0.5-0.2,0.5-0.5s-0.2-0.5-0.5-0.5s-0.5,0.2-0.5,0.5S141.9,159.2,142.2,159.2z"/>
<path class="st3" d="M148,150.7c0.3,0,0.6-0.3,0.6-0.6c0-0.3-0.3-0.6-0.6-0.6c-0.3,0-0.6,0.3-0.6,0.6
	C147.4,150.4,147.7,150.7,148,150.7z"/>
<path class="st3" d="M152.4,152.9c0.3,0,0.6-0.3,0.6-0.6c0-0.3-0.3-0.6-0.6-0.6c-0.3,0-0.6,0.3-0.6,0.6
	C151.9,152.7,152.1,152.9,152.4,152.9z"/>
<path class="st3" d="M156.6,152.5c0.3,0,0.6-0.3,0.6-0.6c0-0.3-0.3-0.6-0.6-0.6c-0.3,0-0.6,0.3-0.6,0.6
	C156,152.3,156.3,152.5,156.6,152.5z"/>
<path class="st3" d="M161.6,150.3c0.3,0,0.6-0.3,0.6-0.6c0-0.3-0.3-0.6-0.6-0.6c-0.3,0-0.6,0.3-0.6,0.6
	C161,150,161.3,150.3,161.6,150.3z"/>
<path class="st3" d="M160.8,155.9c0.3,0,0.6-0.3,0.6-0.6c0-0.3-0.3-0.6-0.6-0.6c-0.3,0-0.6,0.3-0.6,0.6
	C160.2,155.7,160.5,155.9,160.8,155.9z"/>
<path class="st3" d="M151.9,158.9c0.3,0,0.6-0.3,0.6-0.6c0-0.3-0.3-0.6-0.6-0.6c-0.3,0-0.6,0.3-0.6,0.6
	C151.3,158.7,151.6,158.9,151.9,158.9z"/>
<path class="st3" d="M148,157.8c0.3,0,0.6-0.3,0.6-0.6c0-0.3-0.3-0.6-0.6-0.6c-0.3,0-0.6,0.3-0.6,0.6
	C147.4,157.6,147.7,157.8,148,157.8z"/>
<path class="st3" d="M146.6,165c0.3,0,0.6-0.3,0.6-0.6c0-0.3-0.3-0.6-0.6-0.6c-0.3,0-0.6,0.3-0.6,0.6C146,164.7,146.3,165,146.6,165
	z"/>
<path class="st3" d="M151,164.6c0.3,0,0.6-0.3,0.6-0.6c0-0.3-0.3-0.6-0.6-0.6c-0.3,0-0.6,0.3-0.6,0.6
	C150.4,164.3,150.7,164.6,151,164.6z"/>
<path class="st3" d="M157.7,165c0.3,0,0.6-0.3,0.6-0.6c0-0.3-0.3-0.6-0.6-0.6c-0.3,0-0.6,0.3-0.6,0.6
	C157.1,164.7,157.4,165,157.7,165z"/>
<path class="st3" d="M162.1,160.1c0.3,0,0.6-0.3,0.6-0.6c0-0.3-0.3-0.6-0.6-0.6c-0.3,0-0.6,0.3-0.6,0.6
	C161.6,159.8,161.8,160.1,162.1,160.1z"/>
<path class="st3" d="M143,157.1c0.3,0,0.6-0.3,0.6-0.6c0-0.3-0.3-0.6-0.6-0.6c-0.3,0-0.6,0.3-0.6,0.6
	C142.4,156.8,142.7,157.1,143,157.1z"/>
<path class="st3" d="M139.1,153.7c0.3,0,0.6-0.3,0.6-0.6c0-0.3-0.3-0.6-0.6-0.6c-0.3,0-0.6,0.3-0.6,0.6
	C138.5,153.4,138.8,153.7,139.1,153.7z"/>
<path class="st3" d="M132.7,149.1c0.3,0,0.6-0.3,0.6-0.6c0-0.3-0.3-0.6-0.6-0.6c-0.3,0-0.6,0.3-0.6,0.6
	C132.1,148.9,132.4,149.1,132.7,149.1z"/>
<path class="st3" d="M141.3,149.9c0.3,0,0.6-0.3,0.6-0.6c0-0.3-0.3-0.6-0.6-0.6c-0.3,0-0.6,0.3-0.6,0.6
	C140.7,149.6,141,149.9,141.3,149.9z"/>
<path class="st3" d="M136,148.4c0.3,0,0.6-0.3,0.6-0.6c0-0.3-0.3-0.6-0.6-0.6c-0.3,0-0.6,0.3-0.6,0.6
	C135.4,148.1,135.7,148.4,136,148.4z"/>
<path class="st3" d="M141,163.1c0.3,0,0.6-0.3,0.6-0.6c0-0.3-0.3-0.6-0.6-0.6c-0.3,0-0.6,0.3-0.6,0.6
	C140.4,162.8,140.7,163.1,141,163.1z"/>
<path class="st3" d="M134.9,160.4c0.3,0,0.6-0.3,0.6-0.6c0-0.3-0.3-0.6-0.6-0.6c-0.3,0-0.6,0.3-0.6,0.6
	C134.3,160.2,134.6,160.4,134.9,160.4z"/>
<path class="st3" d="M139,151.8c0.2,0,0.4-0.2,0.4-0.4c0-0.2-0.2-0.4-0.4-0.4s-0.4,0.2-0.4,0.4C138.6,151.6,138.8,151.8,139,151.8z"
	/>
<path class="st3" d="M142.6,153.5c0.2,0,0.4-0.2,0.4-0.4c0-0.2-0.2-0.4-0.4-0.4l0,0c-0.2,0-0.4,0.2-0.4,0.4
	C142.2,153.3,142.4,153.5,142.6,153.5z"/>
<path class="st3" d="M146,153.2c0.2,0,0.4-0.2,0.4-0.4c0-0.2-0.2-0.4-0.4-0.4s-0.4,0.2-0.4,0.4C145.6,153,145.8,153.2,146,153.2
	L146,153.2z"/>
<path class="st3" d="M150,151.6c0.2,0,0.4-0.2,0.4-0.4c0-0.2-0.2-0.4-0.4-0.4s-0.4,0.2-0.4,0.4C149.6,151.4,149.8,151.6,150,151.6z"
	/>
<path class="st3" d="M149.4,155.7c0.2,0,0.4-0.2,0.4-0.4c0-0.2-0.2-0.4-0.4-0.4s-0.4,0.2-0.4,0.4
	C148.9,155.5,149.1,155.7,149.4,155.7z"/>
<path class="st3" d="M142.1,157.9c0.2,0,0.4-0.2,0.4-0.4c0-0.2-0.2-0.4-0.4-0.4s-0.4,0.2-0.4,0.4
	C141.7,157.8,141.9,157.9,142.1,157.9z"/>
<path class="st3" d="M139,157.1c0.2,0,0.4-0.2,0.4-0.4c0-0.2-0.2-0.4-0.4-0.4s-0.4,0.2-0.4,0.4C138.6,156.9,138.8,157.1,139,157.1z"
	/>
<path class="st3" d="M137.9,162.4c0.2,0,0.4-0.2,0.4-0.4c0-0.2-0.2-0.4-0.4-0.4s-0.4,0.2-0.4,0.4
	C137.4,162.2,137.6,162.4,137.9,162.4z"/>
<path class="st3" d="M141.5,162.1c0.2,0,0.4-0.2,0.4-0.4c0-0.2-0.2-0.4-0.4-0.4s-0.4,0.2-0.4,0.4C141,161.9,141.2,162.1,141.5,162.1
	z"/>
<path class="st3" d="M146.9,162.4c0.2,0,0.4-0.2,0.4-0.4c0-0.2-0.2-0.4-0.4-0.4s-0.4,0.2-0.4,0.4
	C146.5,162.2,146.6,162.4,146.9,162.4z"/>
<path class="st3" d="M150.5,158.8c0.2,0,0.4-0.2,0.4-0.4c0-0.2-0.2-0.4-0.4-0.4s-0.4,0.2-0.4,0.4
	C150.1,158.6,150.3,158.8,150.5,158.8z"/>
<path class="st3" d="M134.9,156.6c0.2,0,0.4-0.2,0.4-0.4c0-0.2-0.2-0.4-0.4-0.4s-0.4,0.2-0.4,0.4
	C134.5,156.4,134.7,156.6,134.9,156.6z"/>
<path class="st3" d="M131.8,154.1c0.2,0,0.4-0.2,0.4-0.4c0-0.2-0.2-0.4-0.4-0.4s-0.4,0.2-0.4,0.4
	C131.3,153.9,131.5,154.1,131.8,154.1L131.8,154.1z"/>
<path class="st3" d="M126.6,150.7c0.2,0,0.4-0.2,0.4-0.4c0-0.2-0.2-0.4-0.4-0.4s-0.4,0.2-0.4,0.4
	C126.1,150.5,126.3,150.7,126.6,150.7z"/>
<path class="st3" d="M133.6,151.3c0.2,0,0.4-0.2,0.4-0.4c0-0.2-0.2-0.4-0.4-0.4s-0.4,0.2-0.4,0.4
	C133.1,151.1,133.3,151.3,133.6,151.3z"/>
<path class="st3" d="M129.3,150.2c0.2,0,0.4-0.2,0.4-0.4c0-0.2-0.2-0.4-0.4-0.4s-0.4,0.2-0.4,0.4C128.8,150,129,150.2,129.3,150.2z"
	/>
<path class="st3" d="M133.3,161c0.2,0,0.4-0.2,0.4-0.4c0-0.2-0.2-0.4-0.4-0.4s-0.4,0.2-0.4,0.4C132.9,160.8,133.1,161,133.3,161z"/>
<path class="st3" d="M128.4,159.1c0.2,0,0.4-0.2,0.4-0.4c0-0.2-0.2-0.4-0.4-0.4s-0.4,0.2-0.4,0.4
	C127.9,158.9,128.1,159.1,128.4,159.1z"/>
<path class="st3" d="M73.6,154.7c0.2,0,0.4-0.2,0.4-0.4c0-0.2-0.2-0.4-0.4-0.4c-0.2,0-0.4,0.2-0.4,0.4
	C73.2,154.6,73.4,154.7,73.6,154.7z"/>
<path class="st3" d="M76.4,157.2c0.2,0,0.4-0.2,0.4-0.4c0-0.2-0.2-0.4-0.4-0.4c-0.2,0-0.4,0.2-0.4,0.4C76,157,76.2,157.2,76.4,157.2
	z"/>
<path class="st3" d="M79.5,157.9c0.2,0,0.4-0.2,0.4-0.4c0-0.2-0.2-0.4-0.4-0.4c-0.2,0-0.4,0.2-0.4,0.4
	C79.1,157.8,79.3,157.9,79.5,157.9z"/>
<path class="st3" d="M83.5,157.8c0.2,0,0.4-0.2,0.4-0.4c0-0.2-0.2-0.4-0.4-0.4c-0.2,0-0.4,0.2-0.4,0.4
	C83.2,157.6,83.3,157.7,83.5,157.8z"/>
<path class="st3" d="M81.8,161c0.2,0,0.4-0.2,0.4-0.4c0-0.2-0.2-0.4-0.4-0.4c-0.2,0-0.4,0.2-0.4,0.4C81.4,160.8,81.6,161,81.8,161z"
	/>
<path class="st3" d="M74.8,160.7c0.2,0,0.4-0.2,0.4-0.4c0-0.2-0.2-0.4-0.4-0.4c-0.2,0-0.4,0.2-0.4,0.4
	C74.4,160.5,74.6,160.7,74.8,160.7z"/>
<path class="st3" d="M72.2,159.1c0.2,0,0.4-0.2,0.4-0.4c0-0.2-0.2-0.4-0.4-0.4c-0.2,0-0.4,0.2-0.4,0.4
	C71.8,158.9,72,159.1,72.2,159.1z"/>
<path class="st3" d="M69.8,163.1c0.2,0,0.4-0.2,0.4-0.4c0-0.2-0.2-0.4-0.4-0.4c-0.2,0-0.4,0.2-0.4,0.4
	C69.4,163,69.5,163.1,69.8,163.1z"/>
<path class="st3" d="M73,164c0.2,0,0.4-0.2,0.4-0.4c0-0.2-0.2-0.4-0.4-0.4c-0.2,0-0.4,0.2-0.4,0.4C72.6,163.8,72.8,164,73,164z"/>
<path class="st3" d="M77.8,165.8c0.2,0,0.4-0.2,0.4-0.4c0-0.2-0.2-0.4-0.4-0.4c-0.2,0-0.4,0.2-0.4,0.4
	C77.4,165.6,77.6,165.8,77.8,165.8z"/>
<path class="st3" d="M82,163.9c0.2,0,0.4-0.2,0.4-0.4c0-0.2-0.2-0.4-0.4-0.4c-0.2,0-0.4,0.2-0.4,0.4C81.6,163.7,81.8,163.8,82,163.9
	z"/>
<path class="st3" d="M68.7,157.4c0.2,0,0.4-0.2,0.4-0.4c0-0.2-0.2-0.4-0.4-0.4c-0.2,0-0.4,0.2-0.4,0.4
	C68.3,157.3,68.5,157.4,68.7,157.4z"/>
<path class="st3" d="M66.6,154.4c0.2,0,0.4-0.2,0.4-0.4c0-0.2-0.2-0.4-0.4-0.4c-0.2,0-0.4,0.2-0.4,0.4
	C66.2,154.3,66.4,154.4,66.6,154.4z"/>
<path class="st3" d="M62.9,150.2c0.2,0,0.4-0.2,0.4-0.4c0-0.2-0.2-0.4-0.4-0.4c-0.2,0-0.4,0.2-0.4,0.4
	C62.5,150,62.7,150.2,62.9,150.2z"/>
<path class="st3" d="M69,152.7c0.2,0,0.4-0.2,0.4-0.4c0-0.2-0.2-0.4-0.4-0.4c-0.2,0-0.4,0.2-0.4,0.4C68.6,152.5,68.8,152.7,69,152.7
	z"/>
<path class="st3" d="M65.5,150.5c0.2,0,0.4-0.2,0.4-0.4c0-0.2-0.2-0.4-0.4-0.4c-0.2,0-0.4,0.2-0.4,0.4
	C65.1,150.3,65.2,150.5,65.5,150.5z"/>
<path class="st3" d="M66.1,160.7c0.2,0,0.4-0.2,0.4-0.4c0-0.2-0.2-0.4-0.4-0.4c-0.2,0-0.4,0.2-0.4,0.4
	C65.7,160.5,65.9,160.7,66.1,160.7z"/>
<path class="st3" d="M62.2,157.6c0.2,0,0.4-0.2,0.4-0.4c0-0.2-0.2-0.4-0.4-0.4c-0.2,0-0.4,0.2-0.4,0.4
	C61.8,157.4,62,157.6,62.2,157.6z"/>
<path class="st3" d="M71.7,158.6c0.3,0,0.5-0.2,0.5-0.5s-0.2-0.5-0.5-0.5s-0.5,0.2-0.5,0.5S71.4,158.6,71.7,158.6z"/>
<path class="st3" d="M75.7,161.1c0.3,0,0.5-0.2,0.5-0.5s-0.2-0.5-0.5-0.5s-0.5,0.2-0.5,0.5S75.5,161.1,75.7,161.1z"/>
<path class="st3" d="M79.9,161.5c0.3,0,0.5-0.2,0.5-0.5s-0.2-0.5-0.5-0.5s-0.5,0.2-0.5,0.5S79.6,161.5,79.9,161.5L79.9,161.5z"/>
<path class="st3" d="M85.1,160.8c0.3,0,0.5-0.2,0.5-0.5s-0.2-0.5-0.5-0.5s-0.5,0.2-0.5,0.5S84.8,160.8,85.1,160.8L85.1,160.8z"/>
<path class="st3" d="M83.6,164.7c0.3,0,0.5-0.2,0.5-0.5s-0.2-0.5-0.5-0.5s-0.5,0.2-0.5,0.5S83.3,164.7,83.6,164.7L83.6,164.7z"/>
<path class="st3" d="M74.4,165.4c0.3,0,0.5-0.2,0.5-0.5s-0.2-0.5-0.5-0.5l0,0c-0.3,0-0.5,0.2-0.5,0.5S74.1,165.4,74.4,165.4z"/>
<path class="st3" d="M70.7,163.9c0.3,0,0.5-0.2,0.5-0.5s-0.2-0.5-0.5-0.5s-0.5,0.2-0.5,0.5S70.5,163.9,70.7,163.9z"/>
<path class="st3" d="M68.4,168.8c0.3,0,0.5-0.2,0.5-0.5s-0.2-0.5-0.5-0.5s-0.5,0.2-0.5,0.5S68.2,168.8,68.4,168.8z"/>
<path class="st3" d="M72.9,169.3c0.3,0,0.5-0.2,0.5-0.5s-0.2-0.5-0.5-0.5s-0.5,0.2-0.5,0.5S72.6,169.3,72.9,169.3z"/>
<path class="st3" d="M79.4,170.8c0.3,0,0.5-0.2,0.5-0.5s-0.2-0.5-0.5-0.5l0,0c-0.3,0-0.5,0.2-0.5,0.5S79.1,170.8,79.4,170.8z"/>
<path class="st3" d="M84.4,168c0.3,0,0.5-0.2,0.5-0.5s-0.2-0.5-0.5-0.5s-0.5,0.2-0.5,0.5S84.1,168,84.4,168z"/>
<path class="st3" d="M65.9,162.4c0.3,0,0.5-0.2,0.5-0.5s-0.2-0.5-0.5-0.5s-0.5,0.2-0.5,0.5S65.6,162.4,65.9,162.4L65.9,162.4z"/>
<path class="st3" d="M62.5,159.3c0.3,0,0.5-0.2,0.5-0.5s-0.2-0.5-0.5-0.5l0,0c-0.3,0-0.5,0.2-0.5,0.5S62.2,159.3,62.5,159.3z"/>
<path class="st3" d="M56.8,154.9c0.3,0,0.5-0.2,0.5-0.5s-0.2-0.5-0.5-0.5s-0.5,0.2-0.5,0.5S56.5,154.9,56.8,154.9z"/>
<path class="st3" d="M65.2,156.9c0.3,0,0.5-0.2,0.5-0.5s-0.2-0.5-0.5-0.5s-0.5,0.2-0.5,0.5S64.9,156.9,65.2,156.9z"/>
<path class="st3" d="M60.2,154.9c0.3,0,0.5-0.2,0.5-0.5s-0.2-0.5-0.5-0.5s-0.5,0.2-0.5,0.5S59.9,154.9,60.2,154.9L60.2,154.9z"/>
<path class="st3" d="M63.2,166.5c0.3,0,0.5-0.2,0.5-0.5s-0.2-0.5-0.5-0.5s-0.5,0.2-0.5,0.5S62.9,166.5,63.2,166.5z"/>
<path class="st3" d="M57.5,163.5c0.3,0,0.5-0.2,0.5-0.5s-0.2-0.5-0.5-0.5S57,162.7,57,163S57.2,163.5,57.5,163.5z"/>
</svg>
