<svg id="Layer_1" data-name="Layer 1" xmlns="http://www.w3.org/2000/svg" viewBox="0 0 288 288"><defs><style>.cls-1,.cls-3,.cls-4,.cls-5{fill:#fff;}.cls-2{fill:none;stroke-width:0.95px;}.cls-2,.cls-3,.cls-4,.cls-5{stroke:#94bbe3;}.cls-2,.cls-3,.cls-5{stroke-miterlimit:10;}.cls-3{stroke-width:1px;}.cls-4{stroke-linecap:round;stroke-linejoin:round;}.cls-4,.cls-5{stroke-width:1.37px;}.cls-6{fill:#87abcc;}</style></defs><title>icon</title><rect class="cls-1" width="288" height="288"/><path class="cls-2" d="M252.2,432.89c-8.16,4.85-4.32,17.54,5.17,17.32,11.16-.26,32.42,2,60,17.56,41.57,23.46,51.73-4.8,51.73-4.8s15.52-27.21,65-12.77c0,0,36.21,1.13,1.85-20.49a223.88,223.88,0,0,0-51.63-23.57,41.92,41.92,0,0,0-30.19,2c-10.24,4.76-23.45,10.25-28.29,9.33-10.56-2-63.56,12.56-63.56,12.56A23.6,23.6,0,0,0,252.2,432.89Z" transform="translate(-204.79 -238.62)"/><path class="cls-2" d="M457.6,382.86,449,479.72l-1.58,1.83L339.26,518a24.54,24.54,0,0,1-16.23-.14l-70.67-25.08-2.19-2.15-9.26-95.34" transform="translate(-204.79 -238.62)"/><path class="cls-2" d="M244.19,390.34a4.85,4.85,0,0,0-.06,9.16l76.23,27.06a26.47,26.47,0,0,0,17.51.15l116.66-39.37a4.85,4.85,0,0,0,.09-9.15l-76.28-27.47a26.47,26.47,0,0,0-17.51-.15Z" transform="translate(-204.79 -238.62)"/><path class="cls-3" d="M303.75,262.45l-2.18-11.5c-1.48-3-6-3.14-9.69-.26l-3.33,2.62c-2.67,2.1-6.41,7.53-5.83,10l2,8.73" transform="translate(-204.79 -238.62)"/><path class="cls-3" d="M314.61,267.41l.5,4.8a4,4,0,0,0,4.32,3.6h37.13c4.33,0,5.32-4.4,5.06-8.41" transform="translate(-204.79 -238.62)"/><polygon class="cls-4" points="211.39 23.83 98.97 23.83 79.95 33.42 194.49 32.09 211.39 23.83"/><path class="cls-5" d="M326.29,266.83c-.8,2.33,2.53,4.22,7.44,4.22s9.54-1.89,10.34-4.22-2.53-4.22-7.44-4.22S327.09,264.5,326.29,266.83Z" transform="translate(-204.79 -238.62)"/><path class="cls-3" d="M297.55,248.6l109.62,1.16a4.33,4.33,0,0,1,4.27,2.59l4.74,10.1" transform="translate(-204.79 -238.62)"/><path class="cls-3" d="M349.45,266.81c-.58,1.7,1.84,3.08,5.43,3.08s7-1.38,7.54-3.08-1.84-3.08-5.43-3.08S350,265.11,349.45,266.81Z" transform="translate(-204.79 -238.62)"/><path class="cls-6" d="M253.83,457.45a.72.72,0,0,0,0-1.45.72.72,0,0,0,0,1.45Z" transform="translate(-204.79 -238.62)"/><path class="cls-6" d="M251.73,466.26a.72.72,0,0,0,0-1.45.72.72,0,0,0,0,1.45Z" transform="translate(-204.79 -238.62)"/><path class="cls-6" d="M259.29,460a.72.72,0,0,0,0-1.45.72.72,0,0,0,0,1.45Z" transform="translate(-204.79 -238.62)"/><path class="cls-6" d="M258,465.84a.72.72,0,0,0,0-1.45.72.72,0,0,0,0,1.45Z" transform="translate(-204.79 -238.62)"/><path class="cls-6" d="M264.74,459.55a.72.72,0,0,0,0-1.45.72.72,0,0,0,0,1.45Z" transform="translate(-204.79 -238.62)"/><path class="cls-6" d="M263.9,454.52a.72.72,0,0,0,0-1.45.72.72,0,0,0,0,1.45Z" transform="translate(-204.79 -238.62)"/><path class="cls-6" d="M269.78,462.07a.72.72,0,0,0,0-1.45.72.72,0,0,0,0,1.45Z" transform="translate(-204.79 -238.62)"/><path class="cls-6" d="M268.94,467.94a.72.72,0,0,0,0-1.45.72.72,0,0,0,0,1.45Z" transform="translate(-204.79 -238.62)"/><path class="cls-6" d="M265.58,467.1a.72.72,0,0,0,0-1.45.72.72,0,0,0,0,1.45Z" transform="translate(-204.79 -238.62)"/><path class="cls-6" d="M266.3,466.38V466a.72.72,0,0,0-1.45,0v.42a.72.72,0,0,0,1.45,0Z" transform="translate(-204.79 -238.62)"/><path class="cls-6" d="M259.29,472.14a.72.72,0,0,0,0-1.45.72.72,0,0,0,0,1.45Z" transform="translate(-204.79 -238.62)"/><path class="cls-6" d="M251.31,473.4a.72.72,0,0,0,0-1.45.72.72,0,0,0,0,1.45Z" transform="translate(-204.79 -238.62)"/><path class="cls-6" d="M252.15,478.85a.72.72,0,0,0,0-1.45.72.72,0,0,0,0,1.45Z" transform="translate(-204.79 -238.62)"/><path class="cls-6" d="M261,475.5a.72.72,0,0,0,0-1.45.72.72,0,0,0,0,1.45Z" transform="translate(-204.79 -238.62)"/><path class="cls-6" d="M270.62,472.56a.72.72,0,0,0,0-1.45.72.72,0,0,0,0,1.45Z" transform="translate(-204.79 -238.62)"/><path class="cls-6" d="M276.49,467.94a.72.72,0,0,0,0-1.45.72.72,0,0,0,0,1.45Z" transform="translate(-204.79 -238.62)"/><path class="cls-6" d="M283.2,465a.72.72,0,0,0,0-1.45.72.72,0,0,0,0,1.45Z" transform="translate(-204.79 -238.62)"/><path class="cls-6" d="M278.17,461.23a.72.72,0,0,0,0-1.45.72.72,0,0,0,0,1.45Z" transform="translate(-204.79 -238.62)"/><path class="cls-6" d="M274.81,456.61a.72.72,0,0,0,0-1.45.72.72,0,0,0,0,1.45Z" transform="translate(-204.79 -238.62)"/><path class="cls-6" d="M279.85,456.61a.72.72,0,0,0,0-1.45.72.72,0,0,0,0,1.45Z" transform="translate(-204.79 -238.62)"/><path class="cls-6" d="M287.82,459.13a.72.72,0,0,0,0-1.45.72.72,0,0,0,0,1.45Z" transform="translate(-204.79 -238.62)"/><path class="cls-6" d="M307.54,466.68a.72.72,0,0,0,0-1.45.72.72,0,0,0,0,1.45Z" transform="translate(-204.79 -238.62)"/><path class="cls-6" d="M313.42,473.4a.72.72,0,0,0,0-1.45.72.72,0,0,0,0,1.45Z" transform="translate(-204.79 -238.62)"/><path class="cls-6" d="M321,473.82a.72.72,0,0,0,0-1.45.72.72,0,0,0,0,1.45Z" transform="translate(-204.79 -238.62)"/><path class="cls-6" d="M327.26,479.27a.72.72,0,0,0,0-1.45.72.72,0,0,0,0,1.45Z" transform="translate(-204.79 -238.62)"/><path class="cls-6" d="M316.77,480.11a.72.72,0,0,0,0-1.45.72.72,0,0,0,0,1.45Z" transform="translate(-204.79 -238.62)"/><path class="cls-6" d="M305.86,474.66a.72.72,0,0,0,0-1.45.72.72,0,0,0,0,1.45Z" transform="translate(-204.79 -238.62)"/><path class="cls-6" d="M313.42,484.73a.72.72,0,0,0,0-1.45.72.72,0,0,0,0,1.45Z" transform="translate(-204.79 -238.62)"/><path class="cls-6" d="M329.36,485.57a.72.72,0,0,0,0-1.45.72.72,0,0,0,0,1.45Z" transform="translate(-204.79 -238.62)"/><path class="cls-6" d="M321,486.41a.72.72,0,0,0,0-1.45.72.72,0,0,0,0,1.45Z" transform="translate(-204.79 -238.62)"/><path class="cls-6" d="M336.49,483a.72.72,0,0,0,0-1.45.72.72,0,0,0,0,1.45Z" transform="translate(-204.79 -238.62)"/><path class="cls-6" d="M342.79,480.53a.72.72,0,0,0,0-1.45.72.72,0,0,0,0,1.45Z" transform="translate(-204.79 -238.62)"/><path class="cls-6" d="M353.28,480.53a.72.72,0,0,0,0-1.45.72.72,0,0,0,0,1.45Z" transform="translate(-204.79 -238.62)"/><path class="cls-6" d="M345.31,485.57a.72.72,0,0,0,0-1.45.72.72,0,0,0,0,1.45Z" transform="translate(-204.79 -238.62)"/><path class="cls-6" d="M339.43,490.6a.72.72,0,0,0,0-1.45.72.72,0,0,0,0,1.45Z" transform="translate(-204.79 -238.62)"/><path class="cls-6" d="M330.2,494.38a.72.72,0,0,0,0-1.45.72.72,0,0,0,0,1.45Z" transform="translate(-204.79 -238.62)"/><path class="cls-6" d="M326.42,494.38a.72.72,0,0,0,0-1.45.72.72,0,0,0,0,1.45Z" transform="translate(-204.79 -238.62)"/><path class="cls-6" d="M320.13,493.54a.72.72,0,0,0,0-1.45.72.72,0,0,0,0,1.45Z" transform="translate(-204.79 -238.62)"/><path class="cls-6" d="M337.75,499.83a.72.72,0,0,0,0-1.45.72.72,0,0,0,0,1.45Z" transform="translate(-204.79 -238.62)"/><path class="cls-6" d="M344.47,494a.72.72,0,0,0,0-1.45.72.72,0,0,0,0,1.45Z" transform="translate(-204.79 -238.62)"/><path class="cls-6" d="M351.18,488.92a.72.72,0,0,0,0-1.45.72.72,0,0,0,0,1.45Z" transform="translate(-204.79 -238.62)"/><path class="cls-6" d="M425.87,452a.72.72,0,0,0,0-1.45.72.72,0,0,0,0,1.45Z" transform="translate(-204.79 -238.62)"/><path class="cls-6" d="M432.58,454.52a.72.72,0,0,0,0-1.45.72.72,0,0,0,0,1.45Z" transform="translate(-204.79 -238.62)"/><path class="cls-6" d="M438.88,454.1a.72.72,0,0,0,0-1.45.72.72,0,0,0,0,1.45Z" transform="translate(-204.79 -238.62)"/><path class="cls-6" d="M446.43,451.58a.72.72,0,0,0,0-1.45.72.72,0,0,0,0,1.45Z" transform="translate(-204.79 -238.62)"/><path class="cls-6" d="M445.17,457.87a.72.72,0,0,0,0-1.45.72.72,0,0,0,0,1.45Z" transform="translate(-204.79 -238.62)"/><path class="cls-6" d="M431.75,461.23a.72.72,0,0,0,0-1.45.72.72,0,0,0,0,1.45Z" transform="translate(-204.79 -238.62)"/><path class="cls-6" d="M425.87,460a.72.72,0,0,0,0-1.45.72.72,0,0,0,0,1.45Z" transform="translate(-204.79 -238.62)"/><path class="cls-6" d="M423.77,467.94a.72.72,0,0,0,0-1.45.72.72,0,0,0,0,1.45Z" transform="translate(-204.79 -238.62)"/><path class="cls-6" d="M430.49,467.52a.72.72,0,0,0,0-1.45.72.72,0,0,0,0,1.45Z" transform="translate(-204.79 -238.62)"/><path class="cls-6" d="M440.56,467.94a.72.72,0,0,0,0-1.45.72.72,0,0,0,0,1.45Z" transform="translate(-204.79 -238.62)"/><path class="cls-6" d="M447.27,462.49a.72.72,0,0,0,0-1.45.72.72,0,0,0,0,1.45Z" transform="translate(-204.79 -238.62)"/><path class="cls-6" d="M418.32,459.13a.72.72,0,0,0,0-1.45.72.72,0,0,0,0,1.45Z" transform="translate(-204.79 -238.62)"/><path class="cls-6" d="M412.44,455.35a.72.72,0,0,0,0-1.45.72.72,0,0,0,0,1.45Z" transform="translate(-204.79 -238.62)"/><path class="cls-6" d="M402.79,450.32a.72.72,0,0,0,0-1.45.72.72,0,0,0,0,1.45Z" transform="translate(-204.79 -238.62)"/><path class="cls-6" d="M415.8,451.16a.72.72,0,0,0,0-1.45.72.72,0,0,0,0,1.45Z" transform="translate(-204.79 -238.62)"/><path class="cls-6" d="M407.83,449.48a.72.72,0,0,0,0-1.45.72.72,0,0,0,0,1.45Z" transform="translate(-204.79 -238.62)"/><path class="cls-6" d="M415.38,465.84a.72.72,0,0,0,0-1.45.72.72,0,0,0,0,1.45Z" transform="translate(-204.79 -238.62)"/><path class="cls-6" d="M406.15,462.91a.72.72,0,0,0,0-1.45.72.72,0,0,0,0,1.45Z" transform="translate(-204.79 -238.62)"/><path class="cls-6" d="M360.41,479.27a.72.72,0,0,0,0-1.45.72.72,0,0,0,0,1.45Z" transform="translate(-204.79 -238.62)"/><path class="cls-6" d="M367.13,472.14a.72.72,0,0,0,0-1.45.72.72,0,0,0,0,1.45Z" transform="translate(-204.79 -238.62)"/><path class="cls-6" d="M362.09,485.15a.72.72,0,0,0,0-1.45.72.72,0,0,0,0,1.45Z" transform="translate(-204.79 -238.62)"/><path class="cls-6" d="M369.22,475.92a.72.72,0,0,0,0-1.45.72.72,0,0,0,0,1.45Z" transform="translate(-204.79 -238.62)"/><path class="cls-6" d="M373.84,462.49a.72.72,0,0,0,0-1.45.72.72,0,0,0,0,1.45Z" transform="translate(-204.79 -238.62)"/><path class="cls-6" d="M255.17,461.64a.72.72,0,0,0,0-1.45.72.72,0,0,0,0,1.45Z" transform="translate(-204.79 -238.62)"/><path class="cls-6" d="M253.07,470.45a.72.72,0,0,0,0-1.45.72.72,0,0,0,0,1.45Z" transform="translate(-204.79 -238.62)"/><path class="cls-6" d="M260.62,464.16a.72.72,0,0,0,0-1.45.72.72,0,0,0,0,1.45Z" transform="translate(-204.79 -238.62)"/><path class="cls-6" d="M259.36,470a.72.72,0,0,0,0-1.45.72.72,0,0,0,0,1.45Z" transform="translate(-204.79 -238.62)"/><path class="cls-6" d="M266.08,463.74a.72.72,0,0,0,0-1.45.72.72,0,0,0,0,1.45Z" transform="translate(-204.79 -238.62)"/><path class="cls-6" d="M265.24,458.7a.72.72,0,0,0,0-1.45.72.72,0,0,0,0,1.45Z" transform="translate(-204.79 -238.62)"/><path class="cls-6" d="M271.11,466.26a.72.72,0,0,0,0-1.45.72.72,0,0,0,0,1.45Z" transform="translate(-204.79 -238.62)"/><path class="cls-6" d="M270.27,472.13a.72.72,0,0,0,0-1.45.72.72,0,0,0,0,1.45Z" transform="translate(-204.79 -238.62)"/><path class="cls-6" d="M266.92,471.29a.72.72,0,0,0,0-1.45.72.72,0,0,0,0,1.45Z" transform="translate(-204.79 -238.62)"/><path class="cls-6" d="M267.64,470.57v-.42a.72.72,0,0,0-1.45,0v.42a.72.72,0,0,0,1.45,0Z" transform="translate(-204.79 -238.62)"/><path class="cls-6" d="M260.62,477.49a.72.72,0,0,0,0-1.45.72.72,0,0,0,0,1.45Z" transform="translate(-204.79 -238.62)"/><path class="cls-6" d="M252.65,477.59a.72.72,0,0,0,0-1.45.72.72,0,0,0,0,1.45Z" transform="translate(-204.79 -238.62)"/><path class="cls-6" d="M253.49,483a.72.72,0,0,0,0-1.45.72.72,0,0,0,0,1.45Z" transform="translate(-204.79 -238.62)"/><path class="cls-6" d="M262.3,479.68a.72.72,0,0,0,0-1.45.72.72,0,0,0,0,1.45Z" transform="translate(-204.79 -238.62)"/><path class="cls-6" d="M272,476.75a.72.72,0,0,0,0-1.45.72.72,0,0,0,0,1.45Z" transform="translate(-204.79 -238.62)"/><path class="cls-6" d="M277.83,472.13a.72.72,0,0,0,0-1.45.72.72,0,0,0,0,1.45Z" transform="translate(-204.79 -238.62)"/><path class="cls-6" d="M284.54,469.19a.72.72,0,0,0,0-1.45.72.72,0,0,0,0,1.45Z" transform="translate(-204.79 -238.62)"/><path class="cls-6" d="M279.51,465.42a.72.72,0,0,0,0-1.45.72.72,0,0,0,0,1.45Z" transform="translate(-204.79 -238.62)"/><path class="cls-6" d="M276.15,460.8a.72.72,0,0,0,0-1.45.72.72,0,0,0,0,1.45Z" transform="translate(-204.79 -238.62)"/><path class="cls-6" d="M281.18,460.8a.72.72,0,0,0,0-1.45.72.72,0,0,0,0,1.45Z" transform="translate(-204.79 -238.62)"/><path class="cls-6" d="M289.16,463.32a.72.72,0,0,0,0-1.45.72.72,0,0,0,0,1.45Z" transform="translate(-204.79 -238.62)"/><path class="cls-6" d="M252.44,455.26a.64.64,0,0,0,0-1.28.64.64,0,0,0,0,1.28Z" transform="translate(-204.79 -238.62)"/><path class="cls-6" d="M250.8,464.07a.64.64,0,0,0,0-1.28.64.64,0,0,0,0,1.28Z" transform="translate(-204.79 -238.62)"/><path class="cls-6" d="M256.71,457.78a.64.64,0,0,0,0-1.28.64.64,0,0,0,0,1.28Z" transform="translate(-204.79 -238.62)"/><path class="cls-6" d="M255.72,463.66a.64.64,0,0,0,0-1.28.64.64,0,0,0,0,1.28Z" transform="translate(-204.79 -238.62)"/><path class="cls-6" d="M261,457.36a.64.64,0,0,0,0-1.28.64.64,0,0,0,0,1.28Z" transform="translate(-204.79 -238.62)"/><path class="cls-6" d="M260.31,452.33a.64.64,0,0,0,0-1.28.64.64,0,0,0,0,1.28Z" transform="translate(-204.79 -238.62)"/><path class="cls-6" d="M264.9,461a.64.64,0,0,0,0-1.28.64.64,0,0,0,0,1.28Z" transform="translate(-204.79 -238.62)"/><path class="cls-6" d="M264.25,465.75a.64.64,0,0,0,0-1.28.64.64,0,0,0,0,1.28Z" transform="translate(-204.79 -238.62)"/><path class="cls-6" d="M261.63,464.91a.64.64,0,0,0,0-1.28.64.64,0,0,0,0,1.28Z" transform="translate(-204.79 -238.62)"/><path class="cls-6" d="M262.26,464.27v-.42a.64.64,0,0,0-1.28,0v.42a.64.64,0,0,0,1.28,0Z" transform="translate(-204.79 -238.62)"/><path class="cls-6" d="M256.71,469.95a.64.64,0,0,0,0-1.28.64.64,0,0,0,0,1.28Z" transform="translate(-204.79 -238.62)"/><path class="cls-6" d="M250.47,471.21a.64.64,0,0,0,0-1.28.64.64,0,0,0,0,1.28Z" transform="translate(-204.79 -238.62)"/><path class="cls-6" d="M251.13,476.66a.64.64,0,0,0,0-1.28.64.64,0,0,0,0,1.28Z" transform="translate(-204.79 -238.62)"/><path class="cls-6" d="M258,473.31a.64.64,0,0,0,0-1.28.64.64,0,0,0,0,1.28Z" transform="translate(-204.79 -238.62)"/><path class="cls-6" d="M265.56,470.37a.64.64,0,0,0,0-1.28.64.64,0,0,0,0,1.28Z" transform="translate(-204.79 -238.62)"/><path class="cls-6" d="M271.31,465.75a.64.64,0,0,0,0-1.28.64.64,0,0,0,0,1.28Z" transform="translate(-204.79 -238.62)"/><path class="cls-6" d="M275.4,462.82a.64.64,0,0,0,0-1.28.64.64,0,0,0,0,1.28Z" transform="translate(-204.79 -238.62)"/><path class="cls-6" d="M271.46,459a.64.64,0,0,0,0-1.28.64.64,0,0,0,0,1.28Z" transform="translate(-204.79 -238.62)"/><path class="cls-6" d="M268.84,454.42a.64.64,0,0,0,0-1.28.64.64,0,0,0,0,1.28Z" transform="translate(-204.79 -238.62)"/><path class="cls-6" d="M272.78,454.42a.64.64,0,0,0,0-1.28.64.64,0,0,0,0,1.28Z" transform="translate(-204.79 -238.62)"/><path class="cls-6" d="M279,456.94a.64.64,0,0,0,0-1.28.64.64,0,0,0,0,1.28Z" transform="translate(-204.79 -238.62)"/><path class="cls-6" d="M314.54,471.41a.72.72,0,0,0,0-1.45.72.72,0,0,0,0,1.45Z" transform="translate(-204.79 -238.62)"/><path class="cls-6" d="M320.42,478.12a.72.72,0,0,0,0-1.45.72.72,0,0,0,0,1.45Z" transform="translate(-204.79 -238.62)"/><path class="cls-6" d="M328,478.54a.72.72,0,0,0,0-1.45.72.72,0,0,0,0,1.45Z" transform="translate(-204.79 -238.62)"/><path class="cls-6" d="M334.26,484a.72.72,0,0,0,0-1.45.72.72,0,0,0,0,1.45Z" transform="translate(-204.79 -238.62)"/><path class="cls-6" d="M323.77,484.84a.72.72,0,0,0,0-1.45.72.72,0,0,0,0,1.45Z" transform="translate(-204.79 -238.62)"/><path class="cls-6" d="M312.86,479.38a.72.72,0,0,0,0-1.45.72.72,0,0,0,0,1.45Z" transform="translate(-204.79 -238.62)"/><path class="cls-6" d="M320.42,489.45a.72.72,0,0,0,0-1.45.72.72,0,0,0,0,1.45Z" transform="translate(-204.79 -238.62)"/><path class="cls-6" d="M336.36,490.29a.72.72,0,0,0,0-1.45.72.72,0,0,0,0,1.45Z" transform="translate(-204.79 -238.62)"/><path class="cls-6" d="M328,491.13a.72.72,0,0,0,0-1.45.72.72,0,0,0,0,1.45Z" transform="translate(-204.79 -238.62)"/><path class="cls-6" d="M343.5,487.77a.72.72,0,0,0,0-1.45.72.72,0,0,0,0,1.45Z" transform="translate(-204.79 -238.62)"/><path class="cls-6" d="M349.79,485.26a.72.72,0,0,0,0-1.45.72.72,0,0,0,0,1.45Z" transform="translate(-204.79 -238.62)"/><path class="cls-6" d="M360.28,485.26a.72.72,0,0,0,0-1.45.72.72,0,0,0,0,1.45Z" transform="translate(-204.79 -238.62)"/><path class="cls-6" d="M352.31,490.29a.72.72,0,0,0,0-1.45.72.72,0,0,0,0,1.45Z" transform="translate(-204.79 -238.62)"/><path class="cls-6" d="M346.43,495.33a.72.72,0,0,0,0-1.45.72.72,0,0,0,0,1.45Z" transform="translate(-204.79 -238.62)"/><path class="cls-6" d="M337.2,499.1a.72.72,0,0,0,0-1.45.72.72,0,0,0,0,1.45Z" transform="translate(-204.79 -238.62)"/><path class="cls-6" d="M333.42,499.1a.72.72,0,0,0,0-1.45.72.72,0,0,0,0,1.45Z" transform="translate(-204.79 -238.62)"/><path class="cls-6" d="M327.13,498.26a.72.72,0,0,0,0-1.45.72.72,0,0,0,0,1.45Z" transform="translate(-204.79 -238.62)"/><path class="cls-6" d="M344.75,504.56a.72.72,0,0,0,0-1.45.72.72,0,0,0,0,1.45Z" transform="translate(-204.79 -238.62)"/><path class="cls-6" d="M351.47,498.68a.72.72,0,0,0,0-1.45.72.72,0,0,0,0,1.45Z" transform="translate(-204.79 -238.62)"/><path class="cls-6" d="M358.18,493.65a.72.72,0,0,0,0-1.45.72.72,0,0,0,0,1.45Z" transform="translate(-204.79 -238.62)"/><path class="cls-6" d="M367.41,484a.72.72,0,0,0,0-1.45.72.72,0,0,0,0,1.45Z" transform="translate(-204.79 -238.62)"/><path class="cls-6" d="M374.13,476.86a.72.72,0,0,0,0-1.45.72.72,0,0,0,0,1.45Z" transform="translate(-204.79 -238.62)"/><path class="cls-6" d="M369.09,489.87a.72.72,0,0,0,0-1.45.72.72,0,0,0,0,1.45Z" transform="translate(-204.79 -238.62)"/><path class="cls-6" d="M376.23,480.64a.72.72,0,0,0,0-1.45.72.72,0,0,0,0,1.45Z" transform="translate(-204.79 -238.62)"/><path class="cls-6" d="M380.84,467.21a.72.72,0,0,0,0-1.45.72.72,0,0,0,0,1.45Z" transform="translate(-204.79 -238.62)"/><path class="cls-6" d="M303.73,476.65a.72.72,0,0,0,0-1.45.72.72,0,0,0,0,1.45Z" transform="translate(-204.79 -238.62)"/><path class="cls-6" d="M309.61,483.37a.72.72,0,0,0,0-1.45.72.72,0,0,0,0,1.45Z" transform="translate(-204.79 -238.62)"/><path class="cls-6" d="M317.16,483.79a.72.72,0,0,0,0-1.45.72.72,0,0,0,0,1.45Z" transform="translate(-204.79 -238.62)"/><path class="cls-6" d="M323.46,489.24a.72.72,0,0,0,0-1.45.72.72,0,0,0,0,1.45Z" transform="translate(-204.79 -238.62)"/><path class="cls-6" d="M313,490.08a.72.72,0,0,0,0-1.45.72.72,0,0,0,0,1.45Z" transform="translate(-204.79 -238.62)"/><path class="cls-6" d="M302.06,484.63a.72.72,0,0,0,0-1.45.72.72,0,0,0,0,1.45Z" transform="translate(-204.79 -238.62)"/><path class="cls-6" d="M309.61,494.7a.72.72,0,0,0,0-1.45.72.72,0,0,0,0,1.45Z" transform="translate(-204.79 -238.62)"/><path class="cls-6" d="M325.55,495.54a.72.72,0,0,0,0-1.45.72.72,0,0,0,0,1.45Z" transform="translate(-204.79 -238.62)"/><path class="cls-6" d="M317.16,496.38a.72.72,0,0,0,0-1.45.72.72,0,0,0,0,1.45Z" transform="translate(-204.79 -238.62)"/><path class="cls-6" d="M332.69,493a.72.72,0,0,0,0-1.45.72.72,0,0,0,0,1.45Z" transform="translate(-204.79 -238.62)"/><path class="cls-6" d="M339,490.5a.72.72,0,0,0,0-1.45.72.72,0,0,0,0,1.45Z" transform="translate(-204.79 -238.62)"/><path class="cls-6" d="M349.47,490.5a.72.72,0,0,0,0-1.45.72.72,0,0,0,0,1.45Z" transform="translate(-204.79 -238.62)"/><path class="cls-6" d="M341.5,495.54a.72.72,0,0,0,0-1.45.72.72,0,0,0,0,1.45Z" transform="translate(-204.79 -238.62)"/><path class="cls-6" d="M335.62,500.57a.72.72,0,0,0,0-1.45.72.72,0,0,0,0,1.45Z" transform="translate(-204.79 -238.62)"/><path class="cls-6" d="M326.39,504.35a.72.72,0,0,0,0-1.45.72.72,0,0,0,0,1.45Z" transform="translate(-204.79 -238.62)"/><path class="cls-6" d="M322.62,504.35a.72.72,0,0,0,0-1.45.72.72,0,0,0,0,1.45Z" transform="translate(-204.79 -238.62)"/><path class="cls-6" d="M316.32,503.51a.72.72,0,0,0,0-1.45.72.72,0,0,0,0,1.45Z" transform="translate(-204.79 -238.62)"/><path class="cls-6" d="M333.95,509.8a.72.72,0,0,0,0-1.45.72.72,0,0,0,0,1.45Z" transform="translate(-204.79 -238.62)"/><path class="cls-6" d="M340.66,503.93a.72.72,0,0,0,0-1.45.72.72,0,0,0,0,1.45Z" transform="translate(-204.79 -238.62)"/><path class="cls-6" d="M347.37,498.89a.72.72,0,0,0,0-1.45.72.72,0,0,0,0,1.45Z" transform="translate(-204.79 -238.62)"/><path class="cls-6" d="M356.6,489.24a.72.72,0,0,0,0-1.45.72.72,0,0,0,0,1.45Z" transform="translate(-204.79 -238.62)"/><path class="cls-6" d="M363.32,482.11a.72.72,0,0,0,0-1.45.72.72,0,0,0,0,1.45Z" transform="translate(-204.79 -238.62)"/><path class="cls-6" d="M358.28,495.12a.72.72,0,0,0,0-1.45.72.72,0,0,0,0,1.45Z" transform="translate(-204.79 -238.62)"/><path class="cls-6" d="M365.42,485.88a.72.72,0,0,0,0-1.45.72.72,0,0,0,0,1.45Z" transform="translate(-204.79 -238.62)"/><path class="cls-6" d="M370,472.46a.72.72,0,0,0,0-1.45.72.72,0,0,0,0,1.45Z" transform="translate(-204.79 -238.62)"/><path class="cls-6" d="M319.06,482a.59.59,0,0,0,0-1.18.59.59,0,0,0,0,1.18Z" transform="translate(-204.79 -238.62)"/><path class="cls-6" d="M324.93,486.51a.59.59,0,0,0,0-1.18.59.59,0,0,0,0,1.18Z" transform="translate(-204.79 -238.62)"/><path class="cls-6" d="M332.48,486.79a.59.59,0,0,0,0-1.18.59.59,0,0,0,0,1.18Z" transform="translate(-204.79 -238.62)"/><path class="cls-6" d="M338.78,490.42a.59.59,0,0,0,0-1.18.59.59,0,0,0,0,1.18Z" transform="translate(-204.79 -238.62)"/><path class="cls-6" d="M328.29,491a.59.59,0,0,0,0-1.18.59.59,0,0,0,0,1.18Z" transform="translate(-204.79 -238.62)"/><path class="cls-6" d="M317.38,487.35a.59.59,0,0,0,0-1.18.59.59,0,0,0,0,1.18Z" transform="translate(-204.79 -238.62)"/><path class="cls-6" d="M324.93,494.05a.59.59,0,0,0,0-1.18.59.59,0,0,0,0,1.18Z" transform="translate(-204.79 -238.62)"/><path class="cls-6" d="M340.88,494.61a.59.59,0,0,0,0-1.18.59.59,0,0,0,0,1.18Z" transform="translate(-204.79 -238.62)"/><path class="cls-6" d="M332.48,495.17a.59.59,0,0,0,0-1.18.59.59,0,0,0,0,1.18Z" transform="translate(-204.79 -238.62)"/><path class="cls-6" d="M348,492.93a.59.59,0,0,0,0-1.18.59.59,0,0,0,0,1.18Z" transform="translate(-204.79 -238.62)"/><path class="cls-6" d="M354.3,491.26a.59.59,0,0,0,0-1.18.59.59,0,0,0,0,1.18Z" transform="translate(-204.79 -238.62)"/><path class="cls-6" d="M364.79,491.26a.59.59,0,0,0,0-1.18.59.59,0,0,0,0,1.18Z" transform="translate(-204.79 -238.62)"/><path class="cls-6" d="M356.82,494.61a.59.59,0,0,0,0-1.18.59.59,0,0,0,0,1.18Z" transform="translate(-204.79 -238.62)"/><path class="cls-6" d="M350.95,498a.59.59,0,0,0,0-1.18.59.59,0,0,0,0,1.18Z" transform="translate(-204.79 -238.62)"/><path class="cls-6" d="M341.72,500.47a.59.59,0,0,0,0-1.18.59.59,0,0,0,0,1.18Z" transform="translate(-204.79 -238.62)"/><path class="cls-6" d="M337.94,500.47a.59.59,0,0,0,0-1.18.59.59,0,0,0,0,1.18Z" transform="translate(-204.79 -238.62)"/><path class="cls-6" d="M331.65,499.92a.59.59,0,0,0,0-1.18.59.59,0,0,0,0,1.18Z" transform="translate(-204.79 -238.62)"/><path class="cls-6" d="M349.27,504.11a.59.59,0,0,0,0-1.18.59.59,0,0,0,0,1.18Z" transform="translate(-204.79 -238.62)"/><path class="cls-6" d="M356,500.2a.59.59,0,0,0,0-1.18.59.59,0,0,0,0,1.18Z" transform="translate(-204.79 -238.62)"/><path class="cls-6" d="M362.7,496.84a.59.59,0,0,0,0-1.18.59.59,0,0,0,0,1.18Z" transform="translate(-204.79 -238.62)"/><path class="cls-6" d="M371.93,490.42a.59.59,0,0,0,0-1.18.59.59,0,0,0,0,1.18Z" transform="translate(-204.79 -238.62)"/><path class="cls-6" d="M378.64,485.67a.59.59,0,0,0,0-1.18.59.59,0,0,0,0,1.18Z" transform="translate(-204.79 -238.62)"/><path class="cls-6" d="M373.61,494.33a.59.59,0,0,0,0-1.18.59.59,0,0,0,0,1.18Z" transform="translate(-204.79 -238.62)"/><path class="cls-6" d="M380.74,488.19a.59.59,0,0,0,0-1.18.59.59,0,0,0,0,1.18Z" transform="translate(-204.79 -238.62)"/><path class="cls-6" d="M385.36,479.25a.59.59,0,0,0,0-1.18.59.59,0,0,0,0,1.18Z" transform="translate(-204.79 -238.62)"/><path class="cls-6" d="M421,460.07a.72.72,0,0,0,0-1.45.72.72,0,0,0,0,1.45Z" transform="translate(-204.79 -238.62)"/><path class="cls-6" d="M427.67,462.59a.72.72,0,0,0,0-1.45.72.72,0,0,0,0,1.45Z" transform="translate(-204.79 -238.62)"/><path class="cls-6" d="M434,462.17a.72.72,0,0,0,0-1.45.72.72,0,0,0,0,1.45Z" transform="translate(-204.79 -238.62)"/><path class="cls-6" d="M441.51,459.65a.72.72,0,0,0,0-1.45.72.72,0,0,0,0,1.45Z" transform="translate(-204.79 -238.62)"/><path class="cls-6" d="M440.25,465.95a.72.72,0,0,0,0-1.45.72.72,0,0,0,0,1.45Z" transform="translate(-204.79 -238.62)"/><path class="cls-6" d="M426.83,469.3a.72.72,0,0,0,0-1.45.72.72,0,0,0,0,1.45Z" transform="translate(-204.79 -238.62)"/><path class="cls-6" d="M421,468a.72.72,0,0,0,0-1.45.72.72,0,0,0,0,1.45Z" transform="translate(-204.79 -238.62)"/><path class="cls-6" d="M418.85,476a.72.72,0,0,0,0-1.45.72.72,0,0,0,0,1.45Z" transform="translate(-204.79 -238.62)"/><path class="cls-6" d="M425.57,475.6a.72.72,0,0,0,0-1.45.72.72,0,0,0,0,1.45Z" transform="translate(-204.79 -238.62)"/><path class="cls-6" d="M435.64,476a.72.72,0,0,0,0-1.45.72.72,0,0,0,0,1.45Z" transform="translate(-204.79 -238.62)"/><path class="cls-6" d="M442.35,470.56a.72.72,0,0,0,0-1.45.72.72,0,0,0,0,1.45Z" transform="translate(-204.79 -238.62)"/><path class="cls-6" d="M413.4,467.2a.72.72,0,0,0,0-1.45.72.72,0,0,0,0,1.45Z" transform="translate(-204.79 -238.62)"/><path class="cls-6" d="M407.52,463.43a.72.72,0,0,0,0-1.45.72.72,0,0,0,0,1.45Z" transform="translate(-204.79 -238.62)"/><path class="cls-6" d="M397.87,458.39a.72.72,0,0,0,0-1.45.72.72,0,0,0,0,1.45Z" transform="translate(-204.79 -238.62)"/><path class="cls-6" d="M410.88,459.23a.72.72,0,0,0,0-1.45.72.72,0,0,0,0,1.45Z" transform="translate(-204.79 -238.62)"/><path class="cls-6" d="M402.91,457.55a.72.72,0,0,0,0-1.45.72.72,0,0,0,0,1.45Z" transform="translate(-204.79 -238.62)"/><path class="cls-6" d="M410.46,473.92a.72.72,0,0,0,0-1.45.72.72,0,0,0,0,1.45Z" transform="translate(-204.79 -238.62)"/><path class="cls-6" d="M401.23,471a.72.72,0,0,0,0-1.45.72.72,0,0,0,0,1.45Z" transform="translate(-204.79 -238.62)"/><path class="cls-6" d="M410,458.13a.84.84,0,0,0,0-1.68.84.84,0,0,0,0,1.68Z" transform="translate(-204.79 -238.62)"/><path class="cls-6" d="M416.67,461.54a.84.84,0,0,0,0-1.68.84.84,0,0,0,0,1.68Z" transform="translate(-204.79 -238.62)"/><path class="cls-6" d="M423,461a.84.84,0,0,0,0-1.68.84.84,0,0,0,0,1.68Z" transform="translate(-204.79 -238.62)"/><path class="cls-6" d="M430.51,457.56a.84.84,0,0,0,0-1.68.84.84,0,0,0,0,1.68Z" transform="translate(-204.79 -238.62)"/><path class="cls-6" d="M429.26,466.09a.84.84,0,0,0,0-1.68.84.84,0,0,0,0,1.68Z" transform="translate(-204.79 -238.62)"/><path class="cls-6" d="M415.83,470.63a.84.84,0,0,0,0-1.68.84.84,0,0,0,0,1.68Z" transform="translate(-204.79 -238.62)"/><path class="cls-6" d="M410,468.93a.84.84,0,0,0,0-1.68.84.84,0,0,0,0,1.68Z" transform="translate(-204.79 -238.62)"/><path class="cls-6" d="M407.86,479.72a.84.84,0,0,0,0-1.68.84.84,0,0,0,0,1.68Z" transform="translate(-204.79 -238.62)"/><path class="cls-6" d="M414.57,479.15a.84.84,0,0,0,0-1.68.84.84,0,0,0,0,1.68Z" transform="translate(-204.79 -238.62)"/><path class="cls-6" d="M424.64,479.72a.84.84,0,0,0,0-1.68.84.84,0,0,0,0,1.68Z" transform="translate(-204.79 -238.62)"/><path class="cls-6" d="M431.35,472.33a.84.84,0,0,0,0-1.68.84.84,0,0,0,0,1.68Z" transform="translate(-204.79 -238.62)"/><path class="cls-6" d="M402.4,467.79a.84.84,0,0,0,0-1.68.84.84,0,0,0,0,1.68Z" transform="translate(-204.79 -238.62)"/><path class="cls-6" d="M396.53,462.68a.84.84,0,0,0,0-1.68.84.84,0,0,0,0,1.68Z" transform="translate(-204.79 -238.62)"/><path class="cls-6" d="M386.87,455.86a.84.84,0,0,0,0-1.68.84.84,0,0,0,0,1.68Z" transform="translate(-204.79 -238.62)"/><path class="cls-6" d="M399.88,457a.84.84,0,0,0,0-1.68.84.84,0,0,0,0,1.68Z" transform="translate(-204.79 -238.62)"/><path class="cls-6" d="M391.91,454.72a.84.84,0,0,0,0-1.68.84.84,0,0,0,0,1.68Z" transform="translate(-204.79 -238.62)"/><path class="cls-6" d="M399.46,476.88a.84.84,0,0,0,0-1.68.84.84,0,0,0,0,1.68Z" transform="translate(-204.79 -238.62)"/><path class="cls-6" d="M390.23,472.9a.84.84,0,0,0,0-1.68.84.84,0,0,0,0,1.68Z" transform="translate(-204.79 -238.62)"/><path class="cls-6" d="M396.4,459.9a.65.65,0,0,0,0-1.3.65.65,0,0,0,0,1.3Z" transform="translate(-204.79 -238.62)"/><path class="cls-6" d="M401.85,462.42a.65.65,0,0,0,0-1.3.65.65,0,0,0,0,1.3Z" transform="translate(-204.79 -238.62)"/><path class="cls-6" d="M407,462a.65.65,0,0,0,0-1.3.65.65,0,0,0,0,1.3Z" transform="translate(-204.79 -238.62)"/><path class="cls-6" d="M413.08,459.48a.65.65,0,0,0,0-1.3.65.65,0,0,0,0,1.3Z" transform="translate(-204.79 -238.62)"/><path class="cls-6" d="M412.06,465.77a.65.65,0,0,0,0-1.3.65.65,0,0,0,0,1.3Z" transform="translate(-204.79 -238.62)"/><path class="cls-6" d="M401.17,469.13a.65.65,0,0,0,0-1.3.65.65,0,0,0,0,1.3Z" transform="translate(-204.79 -238.62)"/><path class="cls-6" d="M396.4,467.87a.65.65,0,0,0,0-1.3.65.65,0,0,0,0,1.3Z" transform="translate(-204.79 -238.62)"/><path class="cls-6" d="M394.7,475.84a.65.65,0,0,0,0-1.3.65.65,0,0,0,0,1.3Z" transform="translate(-204.79 -238.62)"/><path class="cls-6" d="M400.15,475.42a.65.65,0,0,0,0-1.3.65.65,0,0,0,0,1.3Z" transform="translate(-204.79 -238.62)"/><path class="cls-6" d="M408.32,475.84a.65.65,0,0,0,0-1.3.65.65,0,0,0,0,1.3Z" transform="translate(-204.79 -238.62)"/><path class="cls-6" d="M413.76,470.39a.65.65,0,0,0,0-1.3.65.65,0,0,0,0,1.3Z" transform="translate(-204.79 -238.62)"/><path class="cls-6" d="M390.27,467a.65.65,0,0,0,0-1.3.65.65,0,0,0,0,1.3Z" transform="translate(-204.79 -238.62)"/><path class="cls-6" d="M385.51,463.26a.65.65,0,0,0,0-1.3.65.65,0,0,0,0,1.3Z" transform="translate(-204.79 -238.62)"/><path class="cls-6" d="M377.68,458.22a.65.65,0,0,0,0-1.3.65.65,0,0,0,0,1.3Z" transform="translate(-204.79 -238.62)"/><path class="cls-6" d="M388.23,459.06a.65.65,0,0,0,0-1.3.65.65,0,0,0,0,1.3Z" transform="translate(-204.79 -238.62)"/><path class="cls-6" d="M381.76,457.38a.65.65,0,0,0,0-1.3.65.65,0,0,0,0,1.3Z" transform="translate(-204.79 -238.62)"/><path class="cls-6" d="M387.89,473.75a.65.65,0,0,0,0-1.3.65.65,0,0,0,0,1.3Z" transform="translate(-204.79 -238.62)"/><path class="cls-6" d="M380.4,470.81a.65.65,0,0,0,0-1.3.65.65,0,0,0,0,1.3Z" transform="translate(-204.79 -238.62)"/><path class="cls-6" d="M297.84,464.28a.59.59,0,0,0,0-1.18.59.59,0,0,0,0,1.18Z" transform="translate(-204.79 -238.62)"/><path class="cls-6" d="M302,468a.59.59,0,0,0,0-1.18.59.59,0,0,0,0,1.18Z" transform="translate(-204.79 -238.62)"/><path class="cls-6" d="M306.65,469.11a.59.59,0,0,0,0-1.18.59.59,0,0,0,0,1.18Z" transform="translate(-204.79 -238.62)"/><path class="cls-6" d="M312.78,468.83a.59.59,0,0,0,0-1.18.59.59,0,0,0,0,1.18Z" transform="translate(-204.79 -238.62)"/><path class="cls-6" d="M310.16,473.72a.59.59,0,0,0,0-1.18.59.59,0,0,0,0,1.18Z" transform="translate(-204.79 -238.62)"/><path class="cls-6" d="M299.56,473.3a.59.59,0,0,0,0-1.18.59.59,0,0,0,0,1.18Z" transform="translate(-204.79 -238.62)"/><path class="cls-6" d="M295.66,470.86a.59.59,0,0,0,0-1.18.59.59,0,0,0,0,1.18Z" transform="translate(-204.79 -238.62)"/><path class="cls-6" d="M292,476.94a.59.59,0,0,0,0-1.18.59.59,0,0,0,0,1.18Z" transform="translate(-204.79 -238.62)"/><path class="cls-6" d="M296.93,478.2a.59.59,0,0,0,0-1.18.59.59,0,0,0,0,1.18Z" transform="translate(-204.79 -238.62)"/><path class="cls-6" d="M304.08,480.94a.59.59,0,0,0,0-1.18.59.59,0,0,0,0,1.18Z" transform="translate(-204.79 -238.62)"/><path class="cls-6" d="M310.41,478a.59.59,0,0,0,0-1.18.59.59,0,0,0,0,1.18Z" transform="translate(-204.79 -238.62)"/><path class="cls-6" d="M290.45,468.37a.59.59,0,0,0,0-1.18.59.59,0,0,0,0,1.18Z" transform="translate(-204.79 -238.62)"/><path class="cls-6" d="M287.24,463.85a.59.59,0,0,0,0-1.18.59.59,0,0,0,0,1.18Z" transform="translate(-204.79 -238.62)"/><path class="cls-6" d="M281.65,457.39a.59.59,0,0,0,0-1.18.59.59,0,0,0,0,1.18Z" transform="translate(-204.79 -238.62)"/><path class="cls-6" d="M290.8,461.18a.59.59,0,0,0,0-1.18.59.59,0,0,0,0,1.18Z" transform="translate(-204.79 -238.62)"/><path class="cls-6" d="M285.51,457.9a.59.59,0,0,0,0-1.18.59.59,0,0,0,0,1.18Z" transform="translate(-204.79 -238.62)"/><path class="cls-6" d="M286.5,473.21a.59.59,0,0,0,0-1.18.59.59,0,0,0,0,1.18Z" transform="translate(-204.79 -238.62)"/><path class="cls-6" d="M280.64,468.59a.59.59,0,0,0,0-1.18.59.59,0,0,0,0,1.18Z" transform="translate(-204.79 -238.62)"/><path class="cls-6" d="M294.86,470.19a.72.72,0,0,0,0-1.45.72.72,0,0,0,0,1.45Z" transform="translate(-204.79 -238.62)"/><path class="cls-6" d="M301,473.85a.72.72,0,0,0,0-1.45.72.72,0,0,0,0,1.45Z" transform="translate(-204.79 -238.62)"/><path class="cls-6" d="M307.3,474.54a.72.72,0,0,0,0-1.45.72.72,0,0,0,0,1.45Z" transform="translate(-204.79 -238.62)"/><path class="cls-6" d="M315.17,473.38a.72.72,0,0,0,0-1.45.72.72,0,0,0,0,1.45Z" transform="translate(-204.79 -238.62)"/><path class="cls-6" d="M312.83,479.36a.72.72,0,0,0,0-1.45.72.72,0,0,0,0,1.45Z" transform="translate(-204.79 -238.62)"/><path class="cls-6" d="M299,480.31a.72.72,0,0,0,0-1.45.72.72,0,0,0,0,1.45Z" transform="translate(-204.79 -238.62)"/><path class="cls-6" d="M293.46,478a.72.72,0,0,0,0-1.45.72.72,0,0,0,0,1.45Z" transform="translate(-204.79 -238.62)"/><path class="cls-6" d="M290,485.52a.72.72,0,0,0,0-1.45.72.72,0,0,0,0,1.45Z" transform="translate(-204.79 -238.62)"/><path class="cls-6" d="M296.68,486.29a.72.72,0,0,0,0-1.45.72.72,0,0,0,0,1.45Z" transform="translate(-204.79 -238.62)"/><path class="cls-6" d="M306.52,488.46a.72.72,0,0,0,0-1.45.72.72,0,0,0,0,1.45Z" transform="translate(-204.79 -238.62)"/><path class="cls-6" d="M314.09,484.27a.72.72,0,0,0,0-1.45.72.72,0,0,0,0,1.45Z" transform="translate(-204.79 -238.62)"/><path class="cls-6" d="M286.17,475.89a.72.72,0,0,0,0-1.45.72.72,0,0,0,0,1.45Z" transform="translate(-204.79 -238.62)"/><path class="cls-6" d="M281,471.14a.72.72,0,0,0,0-1.45.72.72,0,0,0,0,1.45Z" transform="translate(-204.79 -238.62)"/><path class="cls-6" d="M272.43,464.49a.72.72,0,0,0,0-1.45.72.72,0,0,0,0,1.45Z" transform="translate(-204.79 -238.62)"/><path class="cls-6" d="M285.09,467.6a.72.72,0,0,0,0-1.45.72.72,0,0,0,0,1.45Z" transform="translate(-204.79 -238.62)"/><path class="cls-6" d="M277.54,464.55a.72.72,0,0,0,0-1.45.72.72,0,0,0,0,1.45Z" transform="translate(-204.79 -238.62)"/><path class="cls-6" d="M282.1,482a.72.72,0,0,0,0-1.45.72.72,0,0,0,0,1.45Z" transform="translate(-204.79 -238.62)"/><path class="cls-6" d="M273.53,477.47a.72.72,0,0,0,0-1.45.72.72,0,0,0,0,1.45Z" transform="translate(-204.79 -238.62)"/></svg>