<svg id="Layer_1" data-name="Layer 1" xmlns="http://www.w3.org/2000/svg" viewBox="0 0 216 216"><defs><style>.cls-1,.cls-5{fill:#4579ad;}.cls-2,.cls-3,.cls-6{fill:#fff;}.cls-2{stroke:#fff;}.cls-2,.cls-4,.cls-5,.cls-6{stroke-miterlimit:10;stroke-width:0.47px;}.cls-4{fill:none;stroke-dasharray:10.94 5.47;}.cls-4,.cls-5,.cls-6{stroke:#4579ad;}</style></defs><title>derby-portfolio</title><circle class="cls-1" cx="108" cy="108" r="108"/><circle class="cls-2" cx="125.61" cy="102.28" r="49.62"/><circle class="cls-3" cx="121.66" cy="103.1" r="49.62"/><circle class="cls-4" cx="310.84" cy="303.15" r="49.62" transform="translate(-312.5 108.54) rotate(-45)"/><circle class="cls-2" cx="117.29" cy="103.56" r="49.62"/><circle class="cls-3" cx="113.21" cy="103.56" r="49.62"/><circle class="cls-4" cx="113.21" cy="103.56" r="49.62"/><circle class="cls-2" cx="108.06" cy="103.56" r="49.62"/><circle class="cls-3" cx="103.72" cy="103.56" r="49.62"/><circle class="cls-4" cx="103.72" cy="103.56" r="49.62"/><circle class="cls-2" cx="98.37" cy="103.56" r="49.62"/><circle class="cls-3" cx="94.42" cy="103.56" r="49.62"/><circle class="cls-4" cx="94.42" cy="103.56" r="49.62"/><circle class="cls-2" cx="90.39" cy="104.49" r="49.62"/><circle class="cls-5" cx="90.69" cy="104.49" r="29.35"/><polygon class="cls-2" points="57.63 122.63 75.69 103.28 62.87 80.13 86.85 91.32 104.9 71.97 101.67 98.24 125.65 109.43 99.67 114.47 96.44 140.74 83.61 117.59 57.63 122.63"/><circle class="cls-6" cx="90.39" cy="105.02" r="6.3"/><path class="cls-1" d="M283.33,261.31l-1.28,3.09-1.25-.1-.24-5.54a.61.61,0,0,1-.38-.2.6.6,0,0,1,.11-.79.86.86,0,0,1,.58-.11l1.49.12a.84.84,0,0,1,.56.2.48.48,0,0,1,.14.41.54.54,0,0,1-.2.4.89.89,0,0,1-.59.11l-.58,0,.13,3.15,1.08-2.53,1.16.09.67,2.67.61-3.09-.58-.05a.89.89,0,0,1-.57-.2.55.55,0,0,1-.14-.42.54.54,0,0,1,.21-.39.82.82,0,0,1,.58-.11l1.49.12a.83.83,0,0,1,.56.2.5.5,0,0,1,.14.41.56.56,0,0,1-.17.36.61.61,0,0,1-.4.16l-1.07,5.44-1.23-.1Z" transform="translate(-189.19 -200.05)"/><path class="cls-1" d="M290.25,258.38l-.57,2.32a3,3,0,0,1,.76-.13,2.56,2.56,0,0,1,.73.08,2.51,2.51,0,0,1,.95.43,1.72,1.72,0,0,1,.58.79,1.77,1.77,0,0,1,0,1.1l-.51,2a1.13,1.13,0,0,1,.52.21.52.52,0,0,1,.14.53.5.5,0,0,1-.26.35.82.82,0,0,1-.59,0l-1.24-.3a.88.88,0,0,1-.52-.29.52.52,0,0,1-.07-.44.54.54,0,0,1,.37-.4,1.24,1.24,0,0,1,.56.06l.49-2a.83.83,0,0,0-.05-.64,1.12,1.12,0,0,0-.68-.41,1.43,1.43,0,0,0-.68,0,3.28,3.28,0,0,0-.9.42l-.5,2a1.11,1.11,0,0,1,.52.22.55.55,0,0,1-.12.88.82.82,0,0,1-.59,0l-1.24-.3a.9.9,0,0,1-.52-.29.52.52,0,0,1-.07-.44.54.54,0,0,1,.37-.4,1.11,1.11,0,0,1,.56.06l1.17-4.71-.19,0a.9.9,0,0,1-.52-.29.52.52,0,0,1-.07-.44.5.5,0,0,1,.26-.35.85.85,0,0,1,.6,0Z" transform="translate(-189.19 -200.05)"/><path class="cls-1" d="M296.93,268.07l.1-.24a3.3,3.3,0,0,1-1-.06,4.82,4.82,0,0,1-.9-.26,2.2,2.2,0,0,1-1.15-1,1.4,1.4,0,0,1-.1-1.2,1.72,1.72,0,0,1,1.18-.91,3,3,0,0,1,2.06.23,6.91,6.91,0,0,1,1,.57l.11-.25a.5.5,0,0,0,0-.46,1.52,1.52,0,0,0-.69-.47,5.92,5.92,0,0,0-1.26-.33,2.74,2.74,0,0,1-.45-.12.5.5,0,0,1-.29-.3.61.61,0,0,1,0-.44.53.53,0,0,1,.15-.2.51.51,0,0,1,.21-.1,1.93,1.93,0,0,1,.43,0,8,8,0,0,1,.85.17,5.53,5.53,0,0,1,.75.24,2.55,2.55,0,0,1,1.3,1.06,1.48,1.48,0,0,1,.05,1.36l-.92,2.12.18.07a.86.86,0,0,1,.46.37.51.51,0,0,1,0,.45.5.5,0,0,1-.32.3.84.84,0,0,1-.59-.09Zm.79-1.84a6.33,6.33,0,0,0-1.08-.61,2,2,0,0,0-1.21-.16.59.59,0,0,0-.46.27.3.3,0,0,0,0,.3,1.38,1.38,0,0,0,.61.46,3.11,3.11,0,0,0,.91.22,3.31,3.31,0,0,0,1,0Z" transform="translate(-189.19 -200.05)"/><path class="cls-1" d="M303.75,267.44l-1.21,1.89a.56.56,0,0,0-.14.48,1.41,1.41,0,0,0,.59.6,3.5,3.5,0,0,0,1.53.55,1.21,1.21,0,0,1,.45.11.54.54,0,0,1,.23.35.57.57,0,0,1-.08.42.49.49,0,0,1-.35.22,2.61,2.61,0,0,1-1.15-.17,5.59,5.59,0,0,1-1.23-.54,2.36,2.36,0,0,1-1.08-1.23,1.39,1.39,0,0,1,.17-1.21l1.33-2.07-.34-.22a.86.86,0,0,1-.4-.45.52.52,0,0,1,.08-.43.54.54,0,0,1,.36-.25.89.89,0,0,1,.57.19l.34.22.55-.85a.81.81,0,0,1,.44-.4.48.48,0,0,1,.43.07.54.54,0,0,1,.25.36.9.9,0,0,1-.18.57l-.55.85,1.74,1.12a.86.86,0,0,1,.4.45.52.52,0,0,1-.08.43.54.54,0,0,1-.36.25.93.93,0,0,1-.57-.18Z" transform="translate(-189.19 -200.05)"/><path class="cls-1" d="M308,275.57l.18-.2a3.77,3.77,0,0,1-.92-.37,4.8,4.8,0,0,1-.76-.54,2.17,2.17,0,0,1-.76-1.34A1.36,1.36,0,0,1,306,272a1.73,1.73,0,0,1,1.41-.49,3,3,0,0,1,1.88.89,7.85,7.85,0,0,1,.8.87l.18-.2a.48.48,0,0,0,.11-.45,1.45,1.45,0,0,0-.5-.67,6,6,0,0,0-1.09-.72,1.89,1.89,0,0,1-.39-.25.5.5,0,0,1-.17-.38.56.56,0,0,1,.16-.41.41.41,0,0,1,.21-.14.34.34,0,0,1,.22,0,1.52,1.52,0,0,1,.41.16c.25.13.5.27.75.43a4.78,4.78,0,0,1,.62.48,2.51,2.51,0,0,1,.9,1.42,1.49,1.49,0,0,1-.4,1.3l-1.55,1.71.14.13a.87.87,0,0,1,.33.5.58.58,0,0,1-.15.42.52.52,0,0,1-.4.18.86.86,0,0,1-.53-.27Zm1.35-1.49a6,6,0,0,0-.84-.93,2,2,0,0,0-1.09-.54.58.58,0,0,0-.52.11.3.3,0,0,0-.06.29,1.39,1.39,0,0,0,.43.64,3.25,3.25,0,0,0,.79.49,3.55,3.55,0,0,0,1,.3Z" transform="translate(-189.19 -200.05)"/><path class="cls-1" d="M311.23,277.28l3.43-2.72-.11-.14a.89.89,0,0,1-.23-.55.57.57,0,0,1,.63-.51.85.85,0,0,1,.48.36l1.75,2.2a2.27,2.27,0,0,1,.57,1.61,1.77,1.77,0,0,1-.66,1.31,1.71,1.71,0,0,1-.63.32,1.78,1.78,0,0,1-.73,0,2.36,2.36,0,0,1-.09,1.08,1.79,1.79,0,0,1-.59.81,1.73,1.73,0,0,1-.74.34,1.32,1.32,0,0,1-.56,0,2.41,2.41,0,0,1-.72-.3,3.16,3.16,0,0,1-.74-.7l-2.05-2.58a.87.87,0,0,1-.23-.55.55.55,0,0,1,.21-.39.54.54,0,0,1,.42-.11.87.87,0,0,1,.48.35Zm.7.88,1.2,1.51a1.67,1.67,0,0,0,.76.63.49.49,0,0,0,.47-.11.85.85,0,0,0,.26-.74,2,2,0,0,0-.49-1.15l-.92-1.16Zm2.15-1.71.77,1a1.78,1.78,0,0,0,.94.65.67.67,0,0,0,.62-.12.62.62,0,0,0,.23-.53,1.44,1.44,0,0,0-.37-.84l-.91-1.14Z" transform="translate(-189.19 -200.05)"/><path class="cls-1" d="M319,286.7a2.36,2.36,0,0,1-1.27.29,2.47,2.47,0,0,1-1.36-.46,3.34,3.34,0,0,1-1-1.12,3.28,3.28,0,0,1-.4-1.45,2.61,2.61,0,0,1,.32-1.4,2.31,2.31,0,0,1,.93-.93,2.57,2.57,0,0,1,1.33-.32,2.6,2.6,0,0,1,1.41.44,3,3,0,0,1,1,1.09,3.21,3.21,0,0,1,.38,1.47,2.63,2.63,0,0,1-.37,1.43A2.72,2.72,0,0,1,319,286.7Zm-.55-1a1.51,1.51,0,0,0,.68-.82,1.76,1.76,0,0,0-.14-1.51,1.79,1.79,0,0,0-1-.88,1.53,1.53,0,0,0-1.23.11,1.31,1.31,0,0,0-.61.92,1.85,1.85,0,0,0,.21,1.33,1.82,1.82,0,0,0,1,.88A1.33,1.33,0,0,0,318.44,285.72Z" transform="translate(-189.19 -200.05)"/><path class="cls-1" d="M323.71,292l-3.62,1.29a.74.74,0,0,1,0,.54.55.55,0,0,1-.33.3.53.53,0,0,1-.43,0,.83.83,0,0,1-.34-.49l-.36-1,.24-.09a5.85,5.85,0,0,1-.62-.75,3.78,3.78,0,0,1-.38-.75,1.88,1.88,0,0,1-.1-1,1.83,1.83,0,0,1,.39-.82,1.5,1.5,0,0,1,.64-.4l2.27-.81-.07-.18a.86.86,0,0,1,0-.6.53.53,0,0,1,.32-.3.56.56,0,0,1,.44,0,.88.88,0,0,1,.34.49l.44,1.24-3.14,1.12a.69.69,0,0,0-.43.33.73.73,0,0,0,0,.56,2.24,2.24,0,0,0,.37.64,5.2,5.2,0,0,0,.78.74l2.15-.76-.14-.38a.93.93,0,0,1-.05-.6.55.55,0,0,1,.33-.3.56.56,0,0,1,.44,0,.88.88,0,0,1,.34.49Z" transform="translate(-189.19 -200.05)"/><path class="cls-1" d="M323.68,296.9l-2.21.4a.59.59,0,0,0-.44.23,1.39,1.39,0,0,0,0,.84,3.39,3.39,0,0,0,.64,1.49,1,1,0,0,1,.21.41.49.49,0,0,1-.09.4.58.58,0,0,1-.36.23.52.52,0,0,1-.41-.11,2.58,2.58,0,0,1-.65-1,5.07,5.07,0,0,1-.44-1.27,2.34,2.34,0,0,1,.16-1.62,1.45,1.45,0,0,1,1-.71l2.43-.43-.07-.4a.84.84,0,0,1,.05-.59.51.51,0,0,1,.37-.24.48.48,0,0,1,.42.1.81.81,0,0,1,.26.54l.07.39,1-.17a.84.84,0,0,1,.59.05.51.51,0,0,1,.24.37.48.48,0,0,1-.1.42.81.81,0,0,1-.54.26l-1,.18.36,2a.86.86,0,0,1,0,.6.53.53,0,0,1-.37.24.51.51,0,0,1-.43-.1.85.85,0,0,1-.25-.54Z" transform="translate(-189.19 -200.05)"/></svg>