<svg id="Layer_1" data-name="Layer 1" xmlns="http://www.w3.org/2000/svg" viewBox="0 0 46.87 26.2"><defs><style>.cls-1{fill:#231f20;}</style></defs><title>button</title><path class="cls-1" d="M392.73,282.83a3.23,3.23,0,0,1,1.51.51,2.27,2.27,0,0,1,.77.93,3.08,3.08,0,0,1,.25,1.18,8.52,8.52,0,0,1-.06,1.23,4,4,0,0,1-.46,1.54,2.17,2.17,0,0,1-.83.84,2.48,2.48,0,0,1-1.09.29,5.5,5.5,0,0,1-1.25-.1l.26-2.1q.36,0,.68.06a1.7,1.7,0,0,0,.58-.07.83.83,0,0,0,.43-.31,1.38,1.38,0,0,0,.22-.66,1,1,0,0,0-.21-.83,1.25,1.25,0,0,0-.79-.37,1.11,1.11,0,0,0-.82.22,4,4,0,0,0-.73.71q-.36.44-.72.94a6.34,6.34,0,0,1-.82.93,3.6,3.6,0,0,1-1,.67,2.48,2.48,0,0,1-1.32.16,3.71,3.71,0,0,1-1.08-.29,2.2,2.2,0,0,1-.83-.65,2.61,2.61,0,0,1-.48-1.09,5,5,0,0,1,0-1.62,3.17,3.17,0,0,1,1-2.18,2.84,2.84,0,0,1,2.37-.36l-.25,2a4.32,4.32,0,0,0-.55,0,1.58,1.58,0,0,0-.5.08.9.9,0,0,0-.38.25.87.87,0,0,0-.19.49,1.12,1.12,0,0,0,.17.83,1.06,1.06,0,0,0,.76.38,1.14,1.14,0,0,0,.84-.21,3.54,3.54,0,0,0,.71-.71q.34-.44.69-.95a6.21,6.21,0,0,1,.79-.93,3.34,3.34,0,0,1,1-.67A2.61,2.61,0,0,1,392.73,282.83Z" transform="translate(-384.84 -263.16)"/><path class="cls-1" d="M395.11,283.88l-8.69-5.17,1.46-2.45,7.39,1.27v0l-6-3.58,1-1.7L399,277.4l-1.42,2.39-7.76-1.41v0l6.35,3.78Z" transform="translate(-384.84 -263.16)"/><path class="cls-1" d="M398,278.34l-3.46-9.9,2.29-1.59,8,6.74L403,274.86l-1.74-1.52L398.89,275l.8,2.17Zm-1.3-9,0,0,1.69,4.14,1.66-1.15Z" transform="translate(-384.84 -263.16)"/><path class="cls-1" d="M401.26,264.55l5.93-1.38.42,1.79L405,272.46l4.24-1,.35,1.51-6.22,1.45-.42-1.8,2.61-7.49-3.94.92Z" transform="translate(-384.84 -263.16)"/><path class="cls-1" d="M414.25,266.71a6.29,6.29,0,0,0,.06-.67,1.49,1.49,0,0,0-.09-.58,1,1,0,0,0-.33-.44,1.32,1.32,0,0,0-.64-.24.94.94,0,0,0-.79.2,2,2,0,0,0-.5.76,5.81,5.81,0,0,0-.31,1.16q-.12.67-.22,1.39-.17,1.18-.2,1.91a4,4,0,0,0,.08,1.15,1,1,0,0,0,.38.6,1.73,1.73,0,0,0,.71.24,2.68,2.68,0,0,0,.54,0,3.84,3.84,0,0,0,.53-.07l.32-2.22-1.14-.16.22-1.54,3.23.46-.73,5.07-.58,0H414l-.82,0-.71-.07a6.39,6.39,0,0,1-2.06-.58,2.29,2.29,0,0,1-1.05-1.08,3.88,3.88,0,0,1-.29-1.7,21.47,21.47,0,0,1,.23-2.44q.13-.94.34-1.85a4.73,4.73,0,0,1,.65-1.57,2.75,2.75,0,0,1,1.22-1,3.83,3.83,0,0,1,2.07-.16,4.22,4.22,0,0,1,1.35.41,2.83,2.83,0,0,1,1,.77,2.5,2.5,0,0,1,.48,1.1,3.81,3.81,0,0,1,0,1.42Z" transform="translate(-384.84 -263.16)"/><path class="cls-1" d="M415.34,274.29l4.34-9.13,1.91.91-4.34,9.13Z" transform="translate(-384.84 -263.16)"/><path class="cls-1" d="M419.09,276.44l-1.58-1.4,6.7-7.57,2.92,2.59a2.27,2.27,0,0,1,.85,1.65,2.77,2.77,0,0,1-.83,1.9,3,3,0,0,1-1.4.94,2,2,0,0,1-1.64-.33l0,0,.3.38a1.67,1.67,0,0,1,.29.59,1.7,1.7,0,0,1,0,.78,2.13,2.13,0,0,1-.54,1l-.44.51q-.28.33-.57.69t-.51.69a2.08,2.08,0,0,0-.27.49L420.8,278a2.38,2.38,0,0,1,.48-.87l.65-.75.56-.64a1.81,1.81,0,0,0,.36-.62,1,1,0,0,0,0-.66,1.88,1.88,0,0,0-.57-.74l-.41-.36Zm3.8-4.3.7.62a.92.92,0,0,0,.48.24,1.06,1.06,0,0,0,.49,0,1.48,1.48,0,0,0,.45-.25,2.77,2.77,0,0,0,.37-.35,1.47,1.47,0,0,0,.47-1,1,1,0,0,0-.39-.75l-.7-.62Z" transform="translate(-384.84 -263.16)"/><path class="cls-1" d="M421.86,279l8.81-5,1,1.84-7.35,4.13,1.55,2.76-1.46.82Z" transform="translate(-384.84 -263.16)"/></svg>