<?xml version="1.0" encoding="utf-8"?>
<!-- Generator: Adobe Illustrator 22.0.1, SVG Export Plug-In . SVG Version: 6.00 Build 0)  -->
<svg version="1.1" id="Layer_1" xmlns="http://www.w3.org/2000/svg" xmlns:xlink="http://www.w3.org/1999/xlink" x="0px" y="0px"
	 viewBox="0 0 216 216" style="enable-background:new 0 0 216 216;" xml:space="preserve">
<style type="text/css">
	.st0{fill:#4578AD;}
	.st1{fill:#4578AD;stroke:#FFFFFF;stroke-miterlimit:10;}
	.st2{fill:#F1F2F2;}
</style>
<title>icon</title>
<circle class="st0" cx="108" cy="108" r="108"/>
<path class="st1" d="M80.9,72.9c6.1-10-2.3-18.2-2.3-18.2c-5.2-5.2-12.9-5.8-17.3-1.4s-3.8,12.2,1.4,17.3
	C62.7,70.7,71,79.1,80.9,72.9L80.9,72.9c12-7.4,22,2.8,22,2.8c6.2,6.2,7,15.6,1.7,20.9s-14.7,4.6-20.9-1.7c0,0-8.1-7.9-4.6-18.1l0,0
	c1.4-0.5,2.7-1.1,3.9-1.8c-6.1,10,2.3,18.2,2.3,18.2c5.2,5.2,12.9,5.8,17.3,1.4s3.8-12.2-1.4-17.3c0,0-7.6-8.2-17.7-2.6L82.9,75
	c-12,7.4-22-2.8-22-2.8c-6.2-6.2-7-15.6-1.7-20.9l0.5-0.4c5.8-4.7,14.2-4.1,20.5,2.1c0,0,8,8,4.6,18.1"/>
<path class="st1" d="M135.4,127c6.1-10-2.3-18.2-2.3-18.2c-5.2-5.2-12.9-5.8-17.3-1.4s-3.8,12.2,1.4,17.3
	C117.2,124.7,125.4,133.2,135.4,127L135.4,127c12-7.4,22,2.8,22,2.8c6.2,6.2,7,15.6,1.7,20.9s-14.7,4.6-20.9-1.7
	c0,0-8.1-7.9-4.6-18.1l0,0c1.4-0.5,2.7-1.1,3.9-1.8c-6.1,10,2.3,18.2,2.3,18.2c5.2,5.2,12.9,5.8,17.3,1.4s3.8-12.2-1.4-17.3
	c0,0-7.6-8.2-17.7-2.6l-0.5,0.3c-12,7.4-22-2.8-22-2.8c-6.2-6.2-7-15.6-1.7-20.9l0.5-0.4c5.8-4.7,14.2-4.1,20.5,2.1
	c0,0,8,8,4.6,18.1"/>
<path class="st1" d="M135.4,75c-10-6.1-18.2,2.3-18.2,2.3c-5.2,5.2-5.8,12.9-1.4,17.3s12.2,3.8,17.3-1.4
	C133.1,93.3,141.5,85,135.4,75L135.4,75c-7.4-12,2.8-22,2.8-22c6.2-6.2,15.6-7,20.9-1.7s4.6,14.7-1.7,20.9c0,0-7.9,8.1-18.1,4.6l0,0
	c-0.5-1.4-1.1-2.7-1.8-3.9c10,6.1,18.2-2.3,18.2-2.3c5.2-5.2,5.8-12.9,1.4-17.3s-12.2-3.8-17.3,1.4c0,0-8.2,7.6-2.6,17.7l0.3,0.5
	c7.4,12-2.8,22-2.8,22c-6.2,6.2-15.6,7-20.9,1.7l-0.4-0.5c-4.7-5.8-4.1-14.2,2.1-20.5c0,0,8-8,18.1-4.6"/>
<path class="st1" d="M80.9,129.1c-10-6.1-18.2,2.3-18.2,2.3c-5.2,5.2-5.8,12.9-1.4,17.3s12.2,3.8,17.3-1.4
	C78.6,147.3,87,139,80.9,129.1L80.9,129.1c-7.4-12,2.8-22,2.8-22c6.2-6.2,15.6-7,20.9-1.7s4.6,14.7-1.7,20.9c0,0-7.9,8.1-18.1,4.6
	l0,0c-0.5-1.4-1.1-2.7-1.8-3.9c10,6.1,18.2-2.3,18.2-2.3c5.2-5.2,5.8-12.9,1.4-17.3s-12.2-3.8-17.3,1.4c0,0-8.2,7.6-2.6,17.7L83,127
	c7.4,12-2.8,22-2.8,22c-6.2,6.2-15.6,7-20.9,1.7l-0.4-0.5c-4.7-5.8-4.1-14.2,2.1-20.5c0,0,8-8,18.1-4.6"/>
<path class="st1" d="M97,71.8c1.4-4,4.4-7.3,8.2-9.2l0,0c1.3,0.6,2.6,1.1,4,1.4c-4.7,1-8.5,4.3-10.1,8.8L97,71.8z"/>
<path class="st1" d="M120.1,75.1c0.3,1.1,0.4,2.3,0.4,3.5c0,7.3-5,13.2-11.3,13.2s-11.3-5.9-11.3-13.2c0-1.2,0.2-2.4,0.5-3.5
	L96.3,74c-0.4,1.5-0.7,3.1-0.7,4.7c0,8.8,6.1,16,13.6,16s13.6-7.1,13.6-16c0-1.6-0.3-3.2-0.7-4.7L120.1,75.1z"/>
<path class="st1" d="M109.2,61.2c11.4-2.7,11.3-14.5,11.3-14.5c0-7.3-5-13.2-11.3-13.2s-11.3,5.9-11.3,13.2
	C97.9,46.7,97.8,58.5,109.2,61.2L109.2,61.2c5.6,1.2,10.2,5.2,12.2,10.6l-2,1c-1.6-4.3-5.2-7.5-9.6-8.6l-0.6-0.1
	c-13.8-3.3-13.6-17.5-13.6-17.5c0-8.8,6.1-16,13.6-16h0.6c7.4,0.8,13,7.1,13,16c0,0,0,11.4-9.5,16.1"/>
<path class="st1" d="M97.1,130.2c1.4,4,4.4,7.3,8.2,9.2l0,0c1.3-0.6,2.6-1.1,4-1.4c-4.7-1-8.5-4.3-10.1-8.8L97.1,130.2z"/>
<path class="st1" d="M120.2,126.9c0.3-1.1,0.4-2.3,0.4-3.5c0-7.3-5-13.2-11.3-13.2S98,116.1,98,123.4c0,1.2,0.2,2.4,0.5,3.5
	l-2.1,1.1c-0.4-1.5-0.7-3.1-0.7-4.7c0-8.8,6.1-16,13.6-16s13.6,7.1,13.6,16c0,1.6-0.3,3.2-0.7,4.7L120.2,126.9z"/>
<path class="st1" d="M109.3,140.8c11.4,2.7,11.3,14.5,11.3,14.5c0,7.3-5,13.2-11.3,13.2S98,162.6,98,155.3
	C98,155.3,97.9,143.4,109.3,140.8L109.3,140.8c5.6-1.1,10.2-5,12.1-10.4l-2.1-1.1c-1.5,4.2-5.1,7.4-9.4,8.5l-0.6,0.1
	c-13.8,3.3-13.6,17.5-13.6,17.5c0,8.8,6.1,16,13.6,16h0.6c7.4-0.8,13-7.1,13-16c0,0,0-11.4-9.5-16.1"/>
<path class="st1" d="M79.6,113.4c-3.9-1.4-7-4.3-8.8-8l0,0c0.6-1.3,1.1-2.6,1.4-4c0.9,4.6,4,8.4,8.4,10L79.6,113.4z"/>
<path class="st1" d="M83.2,90.4c1.1-0.3,2.3-0.4,3.5-0.4c7.3,0,13.2,5,13.2,11.3s-5.9,11.3-13.2,11.3c-1.3-0.1-2.6-0.3-3.9-0.6
	l-1.1,2.2c1.7,0.4,3.4,0.7,5.1,0.7c8.8,0,16-6.1,16-13.6s-7.1-13.6-16-13.6c-1.6,0-3.2,0.3-4.7,0.7L83.2,90.4z"/>
<path class="st1" d="M69.3,101.3C66.6,89.9,54.8,90,54.8,90c-7.3,0-13.2,5-13.2,11.3s5.9,11.3,13.2,11.3
	C54.8,112.6,66.6,112.7,69.3,101.3L69.3,101.3c1.1-5.6,5-10.2,10.4-12.1l0.9,2.1c-4.1,1.6-7.2,5.1-8.3,9.4l-0.1,0.6
	c-3.3,13.8-17.5,13.6-17.5,13.6c-8.8,0-16-6.1-16-13.6v-0.6c0.8-7.4,7.1-13,16-13c0,0,11.4,0,16.1,9.5"/>
<path class="st1" d="M138.8,112.9c3.9-1.4,7-4.3,8.8-8l0,0c-0.6-1.3-1.1-2.6-1.4-4c-0.9,4.6-4,8.4-8.4,10L138.8,112.9z"/>
<path class="st1" d="M135.5,90.1c-1.2-0.3-2.5-0.5-3.8-0.6c-7.3,0-13.2,5-13.2,11.3s5.9,11.3,13.2,11.3c1.2,0,2.4-0.2,3.5-0.5
	l1.1,2.1c-1.5,0.4-3.1,0.7-4.7,0.7c-8.8,0-16-6.1-16-13.6s7.1-13.6,16-13.6c1.7,0,3.4,0.2,5,0.7L135.5,90.1z"/>
<path class="st1" d="M149.1,100.8c2.7-11.4,14.5-11.3,14.5-11.3c7.3,0,13.2,5,13.2,11.3s-5.9,11.3-13.2,11.3
	C163.6,112.1,151.8,112.2,149.1,100.8L149.1,100.8c-1.1-5.6-5-10.2-10.4-12.1l-0.9,2.1c4.1,1.6,7.2,5.1,8.3,9.4l0.1,0.6
	c3.3,13.8,17.5,13.6,17.5,13.6c8.8,0,16-6.1,16-13.6v-0.6c-0.8-7.4-7.1-13-16-13c0,0-11.4,0-16.1,9.5"/>
<g>
	<path class="st2" d="M27.1,148.2c0-0.1,0.1-0.2,0.3-0.2h0.4c0.1,0,0.2,0.1,0.2,0.2c0,0,0,0,0,0c-0.3,1.3,0,2.6,0.7,3.7
		c0.6,1,2.3,2.4,3.9,1.4c1.4-0.9,0.8-2.5,0.2-4.2c-0.7-2.4-0.8-3.9,0.7-4.9c1.2-0.8,3.2-0.9,4.8,1.6c0.8,1.1,1.1,2.4,1,3.7
		c0,0.1-0.1,0.2-0.3,0.2h-0.4c-0.1,0-0.2-0.1-0.2-0.3c0.1-1.1-0.2-2.3-0.8-3.2c-1.1-1.7-2.5-1.9-3.5-1.2s-1,2-0.3,4.1
		c0.4,1.4,1.4,3.7-0.6,5c-1.4,0.9-3.5,0.7-5.1-1.7C27.1,151.2,26.8,149.6,27.1,148.2z"/>
</g>
<g>
	<path class="st2" d="M45.4,156.2l-0.2,0.2c-0.1,0.1-0.3,0.1-0.4,0l-3.3-4l-4,3.2l2.3,2.9c0.1,0.1,0.1,0.3,0,0.4l-0.3,0.2
		c-0.1,0.1-0.2,0.1-0.3,0l-2.3-2.9l-3.8,3.1c-0.1,0.1-0.2,0.1-0.3,0c0,0,0,0,0,0l-0.3-0.4c-0.1-0.1-0.1-0.3,0-0.4l8.8-7.1
		c0.1-0.1,0.3-0.1,0.4,0l0.3,0.4l3.4,4.2C45.5,156.1,45.5,156.2,45.4,156.2z"/>
</g>
<g>
	<path class="st2" d="M52.4,163.4l-4.8,4.9c-2,2-4.1,2.8-6.3,0.6s-1.5-4.3,0.5-6.3l4.8-4.9c0.1-0.1,0.3-0.1,0.4,0c0,0,0,0,0,0
		l0.3,0.3c0.1,0.1,0.1,0.3,0,0.4c0,0,0,0,0,0l-4.5,4.6c-2.1,2.1-2.6,3.6-0.9,5.4s3.3,1.1,5.4-0.9l4.5-4.6c0.1-0.1,0.3-0.1,0.4,0
		c0,0,0,0,0,0l0.3,0.3C52.5,163.1,52.5,163.3,52.4,163.4z"/>
</g>
<g>
	<path class="st2" d="M58.1,182.2l-0.8-0.6c-0.1-0.1-0.1-0.2-0.1-0.3l0.5-2.5l-4.7-3.3L51,177c-0.1,0.1-0.2,0.1-0.3,0l-0.8-0.6
		c-0.1-0.1-0.1-0.2-0.1-0.3c0,0,0-0.1,0.1-0.1l10.5-6.7c0.1-0.1,0.2-0.1,0.3,0l0.3,0.2l0.1,0.1c0.1,0.1,0.1,0.2,0.1,0.2L58.5,182
		C58.5,182.1,58.4,182.2,58.1,182.2C58.2,182.2,58.1,182.2,58.1,182.2z M58.1,177.6l1.3-6l-5.2,3.3L58.1,177.6z"/>
</g>
<g>
	<path class="st2" d="M73.9,177.5l-3.1,5.9c-1.4,2.6-3.3,4-6.2,2.4s-3-3.8-1.6-6.5l3.1-5.9c0.1-0.1,0.2-0.2,0.3-0.1l0.9,0.5
		c0.1,0.1,0.2,0.2,0.1,0.3c0,0,0,0,0,0l-2.9,5.6c-1.3,2.5-1.2,4,0.7,5s3.2,0.2,4.5-2.3l2.9-5.6c0.1-0.1,0.2-0.2,0.3-0.1l0.9,0.5
		C74,177.3,74,177.4,73.9,177.5z"/>
</g>
<g>
	<path class="st2" d="M83.6,181.2l-0.3,0.7c0,0.1-0.2,0.2-0.3,0.2c0,0,0,0,0,0l-3.2-1.2l-3.6,9.7c-0.1,0.1-0.2,0.2-0.3,0.1l-0.9-0.4
		c-0.1-0.1-0.2-0.2-0.1-0.3l3.6-9.7l-3.2-1.2c-0.1-0.1-0.2-0.2-0.2-0.3l0.3-0.7c0.1-0.1,0.2-0.2,0.3-0.2l3.6,1.4l0.7,0.3l3.4,1.3
		C83.6,180.9,83.7,181,83.6,181.2C83.6,181.2,83.6,181.2,83.6,181.2z"/>
</g>
<g>
	<path class="st2" d="M82.1,192.5l3.1-10.9c0-0.1,0.2-0.2,0.3-0.2l1,0.3c0.1,0,0.2,0.2,0.2,0.3l-3.1,10.9c0,0.1-0.2,0.2-0.3,0.2
		c0,0,0,0,0,0l-1-0.3C82.1,192.8,82.1,192.6,82.1,192.5z"/>
</g>
<g>
	<path class="st2" d="M86.9,192.6c-0.1-0.1,0-0.2,0.1-0.3l0.6-0.5c0.1-0.1,0.3-0.1,0.4,0c0,0,0,0,0,0c0.7,1,1.8,1.7,3,2
		c0.8,0.2,2.9,0.1,3.2-1.5c0.3-1.4-1.2-2-2.6-2.7c-2.3-1.1-3.6-2.2-3.3-4.1c0.3-1.4,1.6-3,4.7-2.4c1.4,0.2,2.7,0.8,3.6,1.9
		c0.1,0.1,0.1,0.3-0.1,0.4l-0.6,0.6c-0.1,0.1-0.2,0.1-0.3,0c-0.7-0.8-1.7-1.4-2.8-1.6c-1.6-0.3-2.8,0.3-3,1.4s0.8,1.9,2.5,2.7
		c1.4,0.6,3.8,1.7,3.4,4.1c-0.3,1.4-1.7,3.1-4.9,2.5C89.2,194.8,87.8,193.9,86.9,192.6z"/>
</g>
<g>
	<path class="st2" d="M107.3,185.1l-0.1,0.7c0,0.1-0.1,0.2-0.3,0.2c0,0,0,0,0,0l-3.4-0.3l-0.8,10.4c0,0.1-0.1,0.2-0.3,0.2l-1-0.1
		c-0.1,0-0.2-0.1-0.2-0.3l0.8-10.4l-3.4-0.3c-0.1,0-0.2-0.1-0.2-0.3l0.1-0.7c0-0.1,0.1-0.3,0.3-0.3l3.8,0.3l0.8,0.1l3.6,0.3
		C107.2,184.9,107.3,185,107.3,185.1z"/>
</g>
<g>
	<path class="st2" d="M109,196.4l-0.2-11.4c0-0.1,0.1-0.3,0.3-0.3h1c0.1,0,0.2,0.1,0.2,0.3l0.2,11.4c0,0.1-0.1,0.2-0.2,0.3h-1
		C109.1,196.6,109,196.5,109,196.4C109,196.4,109,196.4,109,196.4z"/>
</g>
<g>
	<path class="st2" d="M113,190.7c-0.3-3.3,2.1-6.3,5.4-6.6c1.7-0.2,3.4,0.4,4.7,1.6c0.1,0.1,0.1,0.2,0,0.3l-0.6,0.7
		c-0.1,0.1-0.2,0.1-0.3,0c0,0,0,0,0,0c-0.9-1-2.3-1.5-3.6-1.4c-2.6,0.3-4.4,2.7-4.1,5.3c0.3,2.5,2.4,4.4,5,4.3
		c1.4-0.2,2.7-1,3.4-2.2c0.1-0.1,0.2-0.2,0.3-0.1c0,0,0,0,0,0l0.6,0.5c0.1,0.1,0.1,0.2,0.1,0.3c-0.9,1.5-2.5,2.5-4.3,2.7
		C116.3,196.4,113.4,194,113,190.7z"/>
</g>
<g>
	<path class="st2" d="M127,193.5c-0.1-0.1-0.1-0.2-0.1-0.3l0.3-0.7c0-0.1,0.2-0.2,0.3-0.2c0,0,0,0,0,0c1.1,0.6,2.4,0.8,3.6,0.5
		c0.8-0.2,2.7-1.1,2.3-2.7c-0.3-1.4-1.9-1.3-3.5-1.4c-2.6,0-4.2-0.5-4.7-2.4c-0.3-1.4,0.3-3.4,3.3-4.1c1.3-0.4,2.8-0.3,4.1,0.3
		c0.2,0.1,0.1,0.2,0.1,0.4l-0.3,0.8c0,0.1-0.1,0.2-0.3,0.1c-1-0.4-2.1-0.5-3.2-0.3c-1.5,0.4-2.4,1.4-2.2,2.5s1.5,1.4,3.4,1.4
		c1.6,0,4.2,0,4.8,2.4c0.3,1.4-0.3,3.6-3.5,4.3C130,194.6,128.3,194.3,127,193.5z"/>
</g>
<g>
	<path class="st2" d="M147.3,176l2.7,6.1c1.2,2.8,1.1,5-2,6.4s-4.8-0.1-6.1-2.8l-2.7-6.1c-0.1-0.1,0-0.3,0.1-0.4l0.9-0.4
		c0.1-0.1,0.3,0,0.3,0.1c0,0,0,0,0,0l2.6,5.8c1.1,2.6,2.4,3.4,4.3,2.6s2.1-2.3,1-4.9l-2.5-5.8c-0.1-0.1,0-0.3,0.1-0.4l0.9-0.4
		C147.2,175.8,147.3,175.9,147.3,176z"/>
</g>
<g>
	<path class="st2" d="M157.1,170.3l5.9,9.7c0.1,0.1,0,0.3-0.1,0.3c0,0,0,0,0,0l-0.5,0.3l-0.1,0.1c-0.2,0.1-0.3,0.1-0.5,0l-9.8-4.4
		l4.6,7.5c0.1,0.1,0,0.2-0.1,0.3c0,0,0,0,0,0l-0.9,0.5c-0.1,0.1-0.3,0-0.3-0.1l-5.9-9.7c-0.1-0.1,0-0.3,0.1-0.4l0.5-0.3l0.1-0.1
		c0.2-0.1,0.3-0.1,0.5,0l9.8,4.4l-4.6-7.6c-0.1-0.1,0-0.3,0.1-0.3l0.9-0.5C156.9,170.1,157.1,170.1,157.1,170.3z"/>
</g>
<g>
	<path class="st2" d="M165.8,177.8l-6.8-9.1c-0.1-0.1-0.1-0.3,0.1-0.4l0.8-0.6c0.1-0.1,0.3,0,0.3,0.1l6.8,9.1c0.1,0.1,0.1,0.3,0,0.4
		l-0.8,0.6C166.1,177.9,165.9,177.9,165.8,177.8z"/>
</g>
<g>
	<path class="st2" d="M168.6,160.8l0.5,0.6c0.1,0.1,0.1,0.3,0,0.4l-2.5,2.3l6.9,7.8c0.1,0.1,0.1,0.3,0,0.4l-0.8,0.7
		c-0.1,0.1-0.3,0.1-0.4,0l-6.9-7.8l-2.5,2.3c-0.1,0.1-0.3,0.1-0.4,0l-0.5-0.6c-0.1-0.1-0.1-0.3,0-0.4l2.9-2.6l0.6-0.5l2.7-2.4
		C168.3,160.7,168.4,160.7,168.6,160.8z"/>
</g>
<g>
	<path class="st2" d="M182.3,161.5l0.6,0.5c0.1,0.1,0.1,0.3,0,0.4l-4.1,4.5l-0.4,0.4c-0.1,0.1-0.3,0.1-0.4,0l-8.4-7.6
		c-0.1-0.1-0.1-0.3,0-0.4l0.7-0.7l3.8-4.2c0.1-0.1,0.3-0.1,0.4,0l0.6,0.5c0.1,0.1,0.1,0.3,0,0.4l-3.6,4l3,2.7l2.5-2.8
		c0.1-0.1,0.3-0.1,0.4,0l0.6,0.5c0.1,0.1,0.1,0.3,0,0.4l-2.5,2.8l3,2.7l3.6-4C181.9,161.4,182.1,161.4,182.3,161.5
		C182.2,161.5,182.2,161.5,182.3,161.5z"/>
</g>
<g>
	<path class="st2" d="M187.4,156.4l-2,2.8l-0.3,0.4c-0.1,0.1-0.2,0.1-0.4,0.1l-9.2-6.6c-0.1-0.1-0.1-0.2-0.1-0.4l0.6-0.8l1.7-2.4
		c1.7-2.3,4.8-2.9,7.8-0.7S189,154,187.4,156.4z M184.7,149.9c-2.4-1.7-4.9-1.3-6,0.4l-1.5,2.1l7.6,5.4l1.5-2.1
		C187.5,154.1,187.1,151.7,184.7,149.9L184.7,149.9z"/>
</g>
</svg>
