<svg id="Layer_1" data-name="Layer 1" xmlns="http://www.w3.org/2000/svg" viewBox="0 0 216 216"><defs><style>.cls-1{fill:#94bbe3;}.cls-2{fill:none;stroke:#f1f2f2;stroke-miterlimit:10;stroke-width:1.5px;}.cls-3,.cls-4{font-size:16.95px;fill:#f1f2f2;}.cls-3{font-family:WoodfordBourne-Thin, Woodford Bourne;}.cls-4{font-family:WoodfordBourne-Regular, Woodford Bourne;}</style></defs><title>icon</title><circle class="cls-1" cx="108" cy="108" r="108"/><path class="cls-2" d="M270.1,273c6.14-10-2.28-18.23-2.28-18.23-5.16-5.16-12.92-5.78-17.32-1.38s-3.79,12.16,1.38,17.32c0,0,8.27,8.42,18.23,2.28h0c12-7.42,22,2.76,22,2.76,6.24,6.24,7,15.61,1.66,20.93s-14.69,4.58-20.93-1.66c0,0-8.06-7.91-4.61-18.13h0a19,19,0,0,0,3.88-1.84c-6.13,9.95,2.29,18.21,2.29,18.21,5.16,5.16,12.92,5.78,17.32,1.38s3.79-12.16-1.38-17.32c0,0-7.6-8.17-17.68-2.6l-.54.33c-12,7.43-22-2.76-22-2.76-6.24-6.24-7-15.61-1.66-20.93l.46-.44c5.82-4.69,14.23-4.14,20.47,2.1,0,0,8,8,4.62,18.12" transform="translate(-189.19 -200.05)"/><path class="cls-2" d="M324.59,327.08c6.14-10-2.28-18.23-2.28-18.23-5.16-5.16-12.92-5.78-17.32-1.38s-3.79,12.16,1.38,17.32c0,0,8.27,8.42,18.23,2.28h0c12-7.42,22,2.76,22,2.76,6.24,6.24,7,15.61,1.66,20.93s-14.69,4.58-20.93-1.66c0,0-8.06-7.91-4.61-18.13h0a19,19,0,0,0,3.88-1.84c-6.13,9.95,2.29,18.21,2.29,18.21,5.16,5.16,12.92,5.78,17.32,1.38s3.79-12.16-1.38-17.32c0,0-7.6-8.17-17.68-2.6l-.54.33c-12,7.43-22-2.76-22-2.76-6.24-6.24-7-15.61-1.66-20.93l.46-.44c5.82-4.69,14.23-4.14,20.47,2.1,0,0,8,8,4.62,18.12" transform="translate(-189.19 -200.05)"/><path class="cls-2" d="M324.59,275.09c-10-6.14-18.23,2.28-18.23,2.28-5.16,5.16-5.78,12.92-1.38,17.32s12.16,3.79,17.32-1.38c0,0,8.42-8.27,2.28-18.23h0c-7.42-12,2.76-22,2.76-22,6.24-6.24,15.61-7,20.93-1.66s4.58,14.69-1.66,20.93c0,0-7.91,8.06-18.13,4.61h0a19,19,0,0,0-1.84-3.88c9.95,6.13,18.21-2.29,18.21-2.29,5.16-5.16,5.78-12.92,1.38-17.32s-12.16-3.79-17.32,1.38c0,0-8.17,7.6-2.6,17.68l.33.54c7.43,12-2.76,22-2.76,22-6.24,6.24-15.61,7-20.93,1.66l-.44-.46c-4.69-5.82-4.14-14.23,2.1-20.47,0,0,8-8,18.12-4.62" transform="translate(-189.19 -200.05)"/><path class="cls-2" d="M270.1,329.12c-10-6.14-18.23,2.28-18.23,2.28-5.16,5.16-5.78,12.92-1.38,17.32s12.16,3.79,17.32-1.38c0,0,8.42-8.27,2.28-18.23h0c-7.42-12,2.76-22,2.76-22,6.24-6.24,15.61-7,20.93-1.66s4.58,14.69-1.66,20.93c0,0-7.91,8.06-18.13,4.61h0a19,19,0,0,0-1.84-3.88c9.95,6.13,18.21-2.29,18.21-2.29,5.16-5.16,5.78-12.92,1.38-17.32s-12.16-3.79-17.32,1.38c0,0-8.17,7.6-2.6,17.68l.33.54c7.43,12-2.76,22-2.76,22-6.24,6.24-15.61,7-20.93,1.66l-.44-.46c-4.69-5.82-4.14-14.23,2.1-20.47,0,0,8-8,18.12-4.62" transform="translate(-189.19 -200.05)"/><path class="cls-2" d="M286.16,271.86a16.56,16.56,0,0,1,8.16-9.16h0a19,19,0,0,0,4.05,1.44,13.75,13.75,0,0,0-10.1,8.78Z" transform="translate(-189.19 -200.05)"/><path class="cls-2" d="M309.26,275.17a14.93,14.93,0,0,1,.4,3.48c0,7.3-5,13.22-11.28,13.22s-11.28-5.92-11.28-13.22a16,16,0,0,1,.47-3.49l-2.13-1.1a19.77,19.77,0,0,0-.69,4.72c0,8.82,6.1,16,13.63,16s13.63-7.15,13.63-16a19.76,19.76,0,0,0-.69-4.7Z" transform="translate(-189.19 -200.05)"/><path class="cls-2" d="M298.39,261.27c11.38-2.69,11.28-14.5,11.28-14.5,0-7.3-5-13.22-11.28-13.22s-11.28,5.92-11.28,13.22c0,0-.11,11.81,11.28,14.5h0a16.62,16.62,0,0,1,12.23,10.61l-2,1a13.89,13.89,0,0,0-9.57-8.6l-.61-.15c-13.76-3.26-13.63-17.53-13.63-17.53,0-8.82,6.1-16,13.63-16l.64,0c7.43.8,13,7.14,13,16,0,0,0,11.37-9.55,16.08" transform="translate(-189.19 -200.05)"/><path class="cls-2" d="M286.29,330.22a16.56,16.56,0,0,0,8.16,9.16h0a19,19,0,0,1,4.05-1.44,13.75,13.75,0,0,1-10.1-8.78Z" transform="translate(-189.19 -200.05)"/><path class="cls-2" d="M309.38,326.91a14.93,14.93,0,0,0,.4-3.48c0-7.3-5-13.22-11.28-13.22s-11.28,5.92-11.28,13.22a16,16,0,0,0,.47,3.49l-2.13,1.1a19.77,19.77,0,0,1-.69-4.72c0-8.82,6.1-16,13.63-16s13.63,7.15,13.63,16a19.76,19.76,0,0,1-.69,4.7Z" transform="translate(-189.19 -200.05)"/><path class="cls-2" d="M298.51,340.81c11.38,2.69,11.28,14.5,11.28,14.5,0,7.3-5,13.22-11.28,13.22s-11.28-5.92-11.28-13.22c0,0-.11-11.81,11.28-14.5h0a16.24,16.24,0,0,0,12.13-10.38l-2.11-1.12a13.45,13.45,0,0,1-9.41,8.45l-.61.15c-13.76,3.26-13.63,17.53-13.63,17.53,0,8.82,6.1,16,13.63,16l.64,0c7.43-.8,13-7.14,13-16,0,0,0-11.37-9.55-16.08" transform="translate(-189.19 -200.05)"/><path class="cls-2" d="M268.77,313.41a15.76,15.76,0,0,1-8.82-8h0a19,19,0,0,0,1.44-4.05c1.42,6,5,8.64,8.41,10Z" transform="translate(-189.19 -200.05)"/><path class="cls-2" d="M272.41,290.45a14.93,14.93,0,0,1,3.48-.4c7.3,0,13.22,5,13.22,11.28s-5.92,11.28-13.22,11.28A25.9,25.9,0,0,1,272,312l-1.1,2.22a23.2,23.2,0,0,0,5.12.73c8.82,0,16-6.1,16-13.63s-7.15-13.63-16-13.63a19.76,19.76,0,0,0-4.7.69Z" transform="translate(-189.19 -200.05)"/><path class="cls-2" d="M258.5,301.32C255.81,289.94,244,290,244,290c-7.3,0-13.22,5-13.22,11.28S236.7,312.6,244,312.6c0,0,11.81.11,14.5-11.28h0a16.2,16.2,0,0,1,10.36-12.13l.94,2.08c-3.24,1.25-6.62,3.77-8.25,9.43l-.15.61c-3.26,13.76-17.53,13.63-17.53,13.63-8.82,0-16-6.1-16-13.63l0-.64c.8-7.43,7.14-13,16-13,0,0,11.37,0,16.08,9.55" transform="translate(-189.19 -200.05)"/><path class="cls-2" d="M328,313a15.76,15.76,0,0,0,8.82-8h0a19,19,0,0,1-1.44-4.05c-1.42,6-5,8.64-8.41,10Z" transform="translate(-189.19 -200.05)"/><path class="cls-2" d="M324.64,290.19a26.23,26.23,0,0,0-3.76-.56c-7.3,0-13.22,5-13.22,11.28s5.92,11.28,13.22,11.28a16,16,0,0,0,3.49-.47l1.1,2.13a19.77,19.77,0,0,1-4.72.69c-8.82,0-16-6.1-16-13.63s7.15-13.63,16-13.63a20.59,20.59,0,0,1,5,.67Z" transform="translate(-189.19 -200.05)"/><path class="cls-2" d="M338.27,300.9c2.69-11.38,14.5-11.28,14.5-11.28,7.3,0,13.22,5,13.22,11.28s-5.92,11.28-13.22,11.28c0,0-11.81.11-14.5-11.28h0a16.2,16.2,0,0,0-10.36-12.13l-.94,2.08c3.24,1.25,6.62,3.77,8.25,9.43l.15.61c3.26,13.76,17.53,13.63,17.53,13.63,8.82,0,16-6.1,16-13.63l0-.64c-.8-7.43-7.14-13-16-13,0,0-11.37,0-16.08,9.55" transform="translate(-189.19 -200.05)"/><text class="cls-3" transform="translate(25.35 148.09) rotate(57.25)">S</text><text class="cls-3" transform="translate(31.56 157.54) rotate(51.09)">F</text><text class="cls-3" transform="matrix(0.71, 0.7, -0.7, 0.71, 37.53, 164.94)">U</text><text class="cls-3" transform="translate(45.96 173.02) rotate(40.05)"> </text><text class="cls-4" transform="translate(49.1 175.86) rotate(34.95)">A</text><text class="cls-4" transform="translate(59.72 183.17) rotate(27.51)">U</text><text class="cls-4" transform="matrix(0.94, 0.35, -0.35, 0.94, 70.63, 188.74)">T</text><text class="cls-4" transform="matrix(0.96, 0.27, -0.27, 0.96, 80.83, 192.4)">I</text><text class="cls-4" transform="translate(85.72 193.88) rotate(10.87)">S</text><text class="cls-4" transform="matrix(1, 0.08, -0.08, 1, 96.84, 195.95)">T</text><text class="cls-4" transform="translate(107.76 196.63) rotate(-0.93)">I</text><text class="cls-4" transform="translate(112.85 196.72) rotate(-5.78)">C</text><text class="cls-4" transform="translate(126.4 195.19) rotate(-13.4)">S</text><text class="cls-4" transform="translate(138.83 191.93) rotate(-18.96)"> </text><text class="cls-4" transform="translate(142.9 190.67) rotate(-23.87)">U</text><text class="cls-4" transform="matrix(0.85, -0.52, 0.52, 0.85, 154.48, 185.45)">N</text><text class="cls-4" transform="matrix(0.8, -0.6, 0.6, 0.8, 164.99, 178.75)">I</text><text class="cls-4" transform="translate(169.12 175.77) rotate(-41.48)">T</text><text class="cls-4" transform="translate(177.36 168.37) rotate(-47.75)">E</text><text class="cls-4" transform="translate(184.29 160.72) rotate(-54.58)">D</text></svg>