<svg id="Layer_1" data-name="Layer 1" xmlns="http://www.w3.org/2000/svg" viewBox="0 0 288 288"><defs><style>.cls-1,.cls-2{fill:#fff;}.cls-2{stroke:#94bbe3;stroke-linejoin:round;stroke-width:1.35px;}.cls-3,.cls-4{font-size:25.92px;fill:#94bbe3;}.cls-3{font-family:WoodfordBourne-Thin, Woodford Bourne;}.cls-4{font-family:WoodfordBourne-Regular, Woodford Bourne;}</style></defs><title>icon</title><rect class="cls-1" width="288" height="288"/><path class="cls-2" d="M227.72,396.07c9.39-15.22-3.49-27.87-3.49-27.87-7.9-7.9-19.75-8.84-26.49-2.1s-5.79,18.59,2.1,26.49c0,0,12.65,12.88,27.87,3.49h0c18.4-11.35,33.69,4.22,33.69,4.22,9.54,9.54,10.68,23.87,2.54,32s-22.47,7-32-2.54c0,0-12.32-12.1-7-27.72h0a29,29,0,0,0,5.94-2.82c-9.37,15.21,3.5,27.85,3.5,27.85,7.9,7.9,19.75,8.84,26.49,2.1s5.79-18.59-2.1-26.49c0,0-11.61-12.49-27-4l-.83.5c-18.4,11.35-33.69-4.22-33.69-4.22-9.54-9.54-10.68-23.87-2.54-32l.71-.67c8.89-7.17,21.76-6.33,31.3,3.21,0,0,12.3,12.3,7.06,27.72" transform="translate(-126.97 -311.99)"/><path class="cls-2" d="M311,478.68c9.39-15.22-3.49-27.87-3.49-27.87-7.9-7.9-19.75-8.84-26.49-2.1s-5.79,18.59,2.1,26.49c0,0,12.65,12.88,27.87,3.49h0c18.4-11.35,33.69,4.22,33.69,4.22,9.54,9.54,10.68,23.87,2.54,32s-22.47,7-32-2.54c0,0-12.32-12.1-7-27.72h0a29,29,0,0,0,5.94-2.82c-9.37,15.21,3.5,27.85,3.5,27.85,7.9,7.9,19.75,8.84,26.49,2.1s5.79-18.59-2.1-26.49c0,0-11.61-12.49-27-4l-.83.5c-18.4,11.35-33.69-4.22-33.69-4.22-9.54-9.54-10.68-23.87-2.54-32l.71-.67c8.89-7.17,21.76-6.33,31.3,3.21,0,0,12.3,12.3,7.06,27.72" transform="translate(-126.97 -311.99)"/><path class="cls-2" d="M311,399.19c-15.22-9.39-27.87,3.49-27.87,3.49-7.9,7.9-8.84,19.75-2.1,26.49s18.59,5.79,26.49-2.1c0,0,12.88-12.65,3.49-27.87h0c-11.35-18.4,4.22-33.69,4.22-33.69,9.54-9.54,23.87-10.68,32-2.54s7,22.47-2.54,32c0,0-12.1,12.32-27.72,7h0a29,29,0,0,0-2.82-5.94c15.21,9.37,27.85-3.5,27.85-3.5,7.9-7.9,8.84-19.75,2.1-26.49s-18.59-5.79-26.49,2.1c0,0-12.49,11.61-4,27l.5.83c11.35,18.4-4.22,33.69-4.22,33.69-9.54,9.54-23.87,10.68-32,2.54l-.67-.71c-7.17-8.89-6.33-21.76,3.21-31.3,0,0,12.3-12.3,27.72-7.06" transform="translate(-126.97 -311.99)"/><path class="cls-2" d="M227.72,481.8c-15.22-9.39-27.87,3.49-27.87,3.49-7.9,7.9-8.84,19.75-2.1,26.49s18.59,5.79,26.49-2.1c0,0,12.88-12.65,3.49-27.87h0c-11.35-18.4,4.22-33.69,4.22-33.69,9.54-9.54,23.87-10.68,32-2.54s7,22.47-2.54,32c0,0-12.1,12.32-27.72,7h0a29,29,0,0,0-2.82-5.94c15.21,9.37,27.85-3.5,27.85-3.5,7.9-7.9,8.84-19.75,2.1-26.49s-18.59-5.79-26.49,2.1c0,0-12.49,11.61-4,27l.5.83c11.35,18.4-4.22,33.69-4.22,33.69-9.54,9.54-23.87,10.68-32,2.54l-.67-.71c-7.17-8.89-6.33-21.76,3.21-31.3,0,0,12.3-12.3,27.72-7.06" transform="translate(-126.97 -311.99)"/><path class="cls-2" d="M252.27,394.26a25.33,25.33,0,0,1,12.47-14h0a29,29,0,0,0,6.2,2.21,21,21,0,0,0-15.45,13.42Z" transform="translate(-126.97 -311.99)"/><path class="cls-2" d="M287.59,399.32a22.82,22.82,0,0,1,.62,5.32c0,11.17-7.72,20.22-17.24,20.22s-17.24-9.05-17.24-20.22a24.46,24.46,0,0,1,.72-5.33l-3.25-1.68a30.24,30.24,0,0,0-1.06,7.21c0,13.49,9.33,24.43,20.84,24.43s20.84-10.94,20.84-24.43a30.21,30.21,0,0,0-1.05-7.18Z" transform="translate(-126.97 -311.99)"/><path class="cls-2" d="M271,378.05c17.41-4.12,17.24-22.18,17.24-22.18,0-11.17-7.72-20.22-17.24-20.22s-17.24,9.05-17.24,20.22c0,0-.16,18.06,17.24,22.18h0a25.42,25.42,0,0,1,18.7,16.23l-3.13,1.58a21.24,21.24,0,0,0-14.63-13.14l-.94-.23c-21-5-20.84-26.8-20.84-26.8,0-13.49,9.33-24.43,20.84-24.43l1,0c11.36,1.22,19.86,10.91,19.86,24.41,0,0,0,17.39-14.6,24.59" transform="translate(-126.97 -311.99)"/><path class="cls-2" d="M252.47,483.49a25.33,25.33,0,0,0,12.47,14h0a29,29,0,0,1,6.2-2.21,21,21,0,0,1-15.45-13.42Z" transform="translate(-126.97 -311.99)"/><path class="cls-2" d="M287.78,478.43a22.82,22.82,0,0,0,.62-5.32c0-11.17-7.72-20.22-17.24-20.22s-17.24,9.05-17.24,20.22a24.46,24.46,0,0,0,.72,5.33l-3.25,1.68a30.24,30.24,0,0,1-1.06-7.21c0-13.49,9.33-24.43,20.84-24.43S292,459.41,292,472.9a30.21,30.21,0,0,1-1.05,7.18Z" transform="translate(-126.97 -311.99)"/><path class="cls-2" d="M271.16,499.69c17.41,4.12,17.24,22.18,17.24,22.18,0,11.17-7.72,20.22-17.24,20.22s-17.24-9.05-17.24-20.22c0,0-.16-18.06,17.24-22.18h0c11.08-2.62,16.12-9.55,18.56-15.87l-3.23-1.72c-1.91,5-5.73,10.42-14.39,12.93l-.94.23c-21,5-20.84,26.8-20.84,26.8,0,13.49,9.33,24.43,20.84,24.43l1,0c11.36-1.22,19.86-10.91,19.86-24.41,0,0,0-17.39-14.6-24.59" transform="translate(-126.97 -311.99)"/><path class="cls-2" d="M225.67,457.79a24.1,24.1,0,0,1-13.49-12.27h0a29,29,0,0,0,2.21-6.2c2.17,9.15,7.63,13.21,12.85,15.22Z" transform="translate(-126.97 -311.99)"/><path class="cls-2" d="M231.25,422.68a22.82,22.82,0,0,1,5.32-.62c11.17,0,20.22,7.72,20.22,17.24s-9.05,17.24-20.22,17.24a39.6,39.6,0,0,1-5.94-.92l-1.68,3.4a35.48,35.48,0,0,0,7.82,1.12c13.49,0,24.43-9.33,24.43-20.84s-10.94-20.84-24.43-20.84a30.21,30.21,0,0,0-7.18,1.05Z" transform="translate(-126.97 -311.99)"/><path class="cls-2" d="M210,439.3c-4.12-17.41-22.18-17.24-22.18-17.24-11.17,0-20.22,7.72-20.22,17.24s9.05,17.24,20.22,17.24c0,0,18.06.16,22.18-17.24h0c2.62-11.08,9.52-16.11,15.84-18.54l1.44,3.18c-5,1.91-10.12,5.76-12.62,14.42l-.23.94c-5,21-26.8,20.84-26.8,20.84-13.49,0-24.43-9.33-24.43-20.84l0-1c1.22-11.36,10.91-19.86,24.41-19.86,0,0,17.39,0,24.59,14.6" transform="translate(-126.97 -311.99)"/><path class="cls-2" d="M316.26,457.14a24.1,24.1,0,0,0,13.49-12.27h0a29,29,0,0,1-2.21-6.2c-2.17,9.15-7.63,13.21-12.85,15.22Z" transform="translate(-126.97 -311.99)"/><path class="cls-2" d="M311.11,422.27a40.11,40.11,0,0,0-5.74-.86c-11.17,0-20.22,7.72-20.22,17.24s9.05,17.24,20.22,17.24a24.46,24.46,0,0,0,5.33-.72l1.68,3.25a30.24,30.24,0,0,1-7.21,1.06c-13.49,0-24.43-9.33-24.43-20.84s10.94-20.84,24.43-20.84a31.48,31.48,0,0,1,7.64,1Z" transform="translate(-126.97 -311.99)"/><path class="cls-2" d="M332,438.65c4.12-17.41,22.18-17.24,22.18-17.24,11.17,0,20.22,7.72,20.22,17.24s-9.05,17.24-20.22,17.24c0,0-18.06.16-22.18-17.24h0c-2.62-11.08-9.52-16.11-15.84-18.54l-1.44,3.18c5,1.91,10.12,5.76,12.62,14.42l.23.94c5,21,26.8,20.84,26.8,20.84,13.49,0,24.43-9.33,24.43-20.84l0-1c-1.22-11.36-10.91-19.86-24.41-19.86,0,0-17.39,0-24.59,14.6" transform="translate(-126.97 -311.99)"/><text x="-126.97" y="-311.99"></text><text class="cls-3" transform="translate(15.83 199) rotate(57.21)">S</text><text class="cls-3" transform="matrix(0.63, 0.78, -0.78, 0.63, 25.5, 213.65)">F</text><text class="cls-3" transform="translate(34.82 225.12) rotate(44.49)">U</text><text class="cls-3" transform="translate(47.89 237.53) rotate(39.75)"> </text><text class="cls-4" transform="matrix(0.82, 0.57, -0.57, 0.82, 52.82, 241.93)">A</text><text class="cls-4" transform="translate(69.37 253.16) rotate(27.05)">U</text><text class="cls-4" transform="translate(86.37 261.64) rotate(20)">T</text><text class="cls-4" transform="translate(102.2 267.14) rotate(15.16)">I</text><text class="cls-4" transform="translate(109.87 269.36) rotate(10.16)">S</text><text class="cls-4" transform="translate(127.13 272.34) rotate(3.51)">T</text><text class="cls-4" transform="matrix(1, -0.02, 0.02, 1, 143.82, 273.12)">I</text><text class="cls-4" transform="matrix(0.99, -0.12, 0.12, 0.99, 152.01, 273.15)">C</text><text class="cls-4" transform="matrix(0.97, -0.25, 0.25, 0.97, 172.91, 270.43)">S</text><text class="cls-4" transform="translate(192.04 265.03) rotate(-20.09)"> </text><text class="cls-4" transform="translate(198.41 262.9) rotate(-25.07)">U</text><text class="cls-4" transform="translate(216.14 254.44) rotate(-32.8)">N</text><text class="cls-4" transform="matrix(0.79, -0.62, 0.62, 0.79, 232.17, 243.7)">I</text><text class="cls-4" transform="translate(238.45 238.92) rotate(-42.89)">T</text><text class="cls-4" transform="translate(250.96 227.1) rotate(-49.27)">E</text><text class="cls-4" transform="translate(261.39 214.95) rotate(-56.19)">D</text></svg>