<?xml version="1.0" encoding="utf-8"?>
<!-- Generator: Adobe Illustrator 21.0.0, SVG Export Plug-In . SVG Version: 6.00 Build 0)  -->
<svg version="1.1" id="Layer_1" xmlns="http://www.w3.org/2000/svg" xmlns:xlink="http://www.w3.org/1999/xlink" x="0px" y="0px"
	 viewBox="0 0 216 216" style="enable-background:new 0 0 216 216;" xml:space="preserve">
<style type="text/css">
	.st0{fill:#94BBE3;}
	.st1{fill:none;stroke:#F1F2F2;stroke-miterlimit:10;}
	.st2{fill:#F1F2F2;}
	.st3{font-family:'WoodfordBourne-Thin';}
	.st4{font-size:16.95px;}
	.st5{font-size:16.8999px;}
	.st6{font-family:'WoodfordBourne-Regular';}
	.st7{font-size:17.0016px;}
	.st8{font-size:16.9033px;}
	.st9{font-size:17.0042px;}
	.st10{font-size:16.8897px;}
</style>
<title>icon</title>
<circle class="st0" cx="108" cy="108" r="108"/>
<path class="st1" d="M80.9,72.9c6.1-10-2.3-18.2-2.3-18.2c-5.2-5.2-12.9-5.8-17.3-1.4c-4.4,4.4-3.8,12.2,1.4,17.3
	C62.7,70.7,71,79.1,80.9,72.9L80.9,72.9c12-7.4,22,2.8,22,2.8c6.2,6.2,7,15.6,1.7,20.9s-14.7,4.6-20.9-1.7c0,0-8.1-7.9-4.6-18.1l0,0
	c1.4-0.5,2.7-1.1,3.9-1.8c-6.1,10,2.3,18.2,2.3,18.2c5.2,5.2,12.9,5.8,17.3,1.4s3.8-12.2-1.4-17.3c0,0-7.6-8.2-17.7-2.6L82.9,75
	c-12,7.4-22-2.8-22-2.8c-6.2-6.2-7-15.6-1.7-20.9l0.5-0.4c5.8-4.7,14.2-4.1,20.5,2.1c0,0,8,8,4.6,18.1"/>
<path class="st1" d="M135.4,127c6.1-10-2.3-18.2-2.3-18.2c-5.2-5.2-12.9-5.8-17.3-1.4s-3.8,12.2,1.4,17.3
	C117.2,124.7,125.4,133.2,135.4,127L135.4,127c12-7.4,22,2.8,22,2.8c6.2,6.2,7,15.6,1.7,20.9s-14.7,4.6-20.9-1.7
	c0,0-8.1-7.9-4.6-18.1l0,0c1.4-0.5,2.7-1.1,3.9-1.8c-6.1,10,2.3,18.2,2.3,18.2c5.2,5.2,12.9,5.8,17.3,1.4s3.8-12.2-1.4-17.3
	c0,0-7.6-8.2-17.7-2.6l-0.5,0.3c-12,7.4-22-2.8-22-2.8c-6.2-6.2-7-15.6-1.7-20.9l0.5-0.4c5.8-4.7,14.2-4.1,20.5,2.1
	c0,0,8,8,4.6,18.1"/>
<path class="st1" d="M135.4,75c-10-6.1-18.2,2.3-18.2,2.3c-5.2,5.2-5.8,12.9-1.4,17.3s12.2,3.8,17.3-1.4
	C133.1,93.3,141.5,85,135.4,75L135.4,75c-7.4-12,2.8-22,2.8-22c6.2-6.2,15.6-7,20.9-1.7s4.6,14.7-1.7,20.9c0,0-7.9,8.1-18.1,4.6l0,0
	c-0.5-1.4-1.1-2.7-1.8-3.9c10,6.1,18.2-2.3,18.2-2.3c5.2-5.2,5.8-12.9,1.4-17.3s-12.2-3.8-17.3,1.4c0,0-8.2,7.6-2.6,17.7l0.3,0.5
	c7.4,12-2.8,22-2.8,22c-6.2,6.2-15.6,7-20.9,1.7l-0.4-0.5c-4.7-5.8-4.1-14.2,2.1-20.5c0,0,8-8,18.1-4.6"/>
<path class="st1" d="M80.9,129.1c-10-6.1-18.2,2.3-18.2,2.3c-5.2,5.2-5.8,12.9-1.4,17.3s12.2,3.8,17.3-1.4
	C78.6,147.3,87,139,80.9,129.1L80.9,129.1c-7.4-12,2.8-22,2.8-22c6.2-6.2,15.6-7,20.9-1.7s4.6,14.7-1.7,20.9c0,0-7.9,8.1-18.1,4.6
	l0,0c-0.5-1.4-1.1-2.7-1.8-3.9c10,6.1,18.2-2.3,18.2-2.3c5.2-5.2,5.8-12.9,1.4-17.3s-12.2-3.8-17.3,1.4c0,0-8.2,7.6-2.6,17.7L83,127
	c7.4,12-2.8,22-2.8,22c-6.2,6.2-15.6,7-20.9,1.7l-0.4-0.5c-4.7-5.8-4.1-14.2,2.1-20.5c0,0,8-8,18.1-4.6"/>
<path class="st1" d="M97,71.8c1.4-4,4.4-7.3,8.2-9.2l0,0c1.3,0.6,2.6,1.1,4,1.4c-4.7,1-8.5,4.3-10.1,8.8L97,71.8z"/>
<path class="st1" d="M120.1,75.1c0.3,1.1,0.4,2.3,0.4,3.5c0,7.3-5,13.2-11.3,13.2s-11.3-5.9-11.3-13.2c0-1.2,0.2-2.3,0.5-3.5
	L96.3,74c-0.4,1.5-0.7,3.1-0.7,4.7c0,8.8,6.1,16,13.6,16s13.6-7.1,13.6-16c0-1.6-0.3-3.2-0.7-4.7L120.1,75.1z"/>
<path class="st1" d="M109.2,61.2c11.4-2.7,11.3-14.5,11.3-14.5c0-7.3-5-13.2-11.3-13.2s-11.3,5.9-11.3,13.2
	C97.9,46.7,97.8,58.5,109.2,61.2L109.2,61.2c5.6,1.2,10.3,5.2,12.2,10.6l-2,1c-1.6-4.3-5.2-7.5-9.6-8.6l-0.6-0.1
	c-13.8-3.3-13.6-17.5-13.6-17.5c0-8.8,6.1-16,13.6-16h0.6c7.4,0.8,13,7.1,13,16c0,0,0,11.4-9.5,16.1"/>
<path class="st1" d="M97.1,130.2c1.4,4,4.4,7.3,8.2,9.2l0,0c1.3-0.6,2.6-1.1,4-1.4c-4.7-1-8.5-4.3-10.1-8.8L97.1,130.2z"/>
<path class="st1" d="M120.2,126.9c0.3-1.1,0.4-2.3,0.4-3.5c0-7.3-5-13.2-11.3-13.2S98,116.1,98,123.4c0,1.2,0.2,2.3,0.5,3.5
	l-2.1,1.1c-0.4-1.5-0.7-3.1-0.7-4.7c0-8.8,6.1-16,13.6-16s13.6,7.1,13.6,16c0,1.6-0.3,3.2-0.7,4.7L120.2,126.9z"/>
<path class="st1" d="M109.3,140.8c11.4,2.7,11.3,14.5,11.3,14.5c0,7.3-5,13.2-11.3,13.2S98,162.6,98,155.3
	C98,155.3,97.9,143.4,109.3,140.8L109.3,140.8c5.6-1.1,10.2-5,12.1-10.4l-2.1-1.1c-1.5,4.2-5.1,7.4-9.4,8.5l-0.6,0.1
	c-13.8,3.3-13.6,17.5-13.6,17.5c0,8.8,6.1,16,13.6,16h0.6c7.4-0.8,13-7.1,13-16c0,0,0-11.4-9.5-16.1"/>
<path class="st1" d="M79.6,113.4c-3.9-1.4-7-4.3-8.8-8l0,0c0.6-1.3,1.1-2.6,1.4-4c1.4,6,5,8.6,8.4,10L79.6,113.4z"/>
<path class="st1" d="M83.2,90.4c1.1-0.3,2.3-0.4,3.5-0.4c7.3,0,13.2,5,13.2,11.3s-5.9,11.3-13.2,11.3c-1.3-0.1-2.6-0.3-3.9-0.6
	l-1.1,2.2c1.7,0.4,3.4,0.7,5.1,0.7c8.8,0,16-6.1,16-13.6s-7.1-13.6-16-13.6c-1.6,0-3.2,0.3-4.7,0.7L83.2,90.4z"/>
<path class="st1" d="M69.3,101.3c-2.7-11.4-14.5-11.3-14.5-11.3c-7.3,0-13.2,5-13.2,11.3s5.9,11.3,13.2,11.3
	C54.8,112.6,66.6,112.7,69.3,101.3L69.3,101.3c1.1-5.6,5-10.2,10.4-12.1l0.9,2.1c-3.2,1.3-6.6,3.8-8.3,9.4l-0.1,0.6
	c-3.3,13.8-17.5,13.6-17.5,13.6c-8.8,0-16-6.1-16-13.6v-0.6c0.8-7.4,7.1-13,16-13c0,0,11.4,0,16.1,9.5"/>
<path class="st1" d="M138.8,112.9c3.9-1.4,7-4.3,8.8-8l0,0c-0.6-1.3-1.1-2.6-1.4-4c-1.4,6-5,8.6-8.4,10L138.8,112.9z"/>
<path class="st1" d="M135.5,90.1c-1.2-0.3-2.5-0.5-3.8-0.6c-7.3,0-13.2,5-13.2,11.3s5.9,11.3,13.2,11.3c1.2,0,2.3-0.2,3.5-0.5
	l1.1,2.1c-1.5,0.4-3.1,0.7-4.7,0.7c-8.8,0-16-6.1-16-13.6s7.1-13.6,16-13.6c1.7,0,3.4,0.2,5,0.7L135.5,90.1z"/>
<path class="st1" d="M149.1,100.8c2.7-11.4,14.5-11.3,14.5-11.3c7.3,0,13.2,5,13.2,11.3s-5.9,11.3-13.2,11.3
	C163.6,112.1,151.8,112.2,149.1,100.8L149.1,100.8c-1.1-5.6-5-10.2-10.4-12.1l-0.9,2.1c3.2,1.3,6.6,3.8,8.3,9.4l0.1,0.6
	c3.3,13.8,17.5,13.6,17.5,13.6c8.8,0,16-6.1,16-13.6v-0.6c-0.8-7.4-7.1-13-16-13c0,0-11.4,0-16.1,9.5"/>
<text transform="matrix(0.541 0.841 -0.841 0.541 25.3503 148.0899)" class="st2 st3 st4">S</text>
<text transform="matrix(0.6281 0.7781 -0.7781 0.6281 31.5603 157.5399)" class="st2 st3 st4">F</text>
<text transform="matrix(0.7121 0.7021 -0.7021 0.7121 37.5304 164.9398)" class="st2 st3 st5">U</text>
<text transform="matrix(0.8197 0.5729 -0.5729 0.8197 49.0999 175.86)" class="st2 st6 st4">A</text>
<text transform="matrix(0.8869 0.4619 -0.4619 0.8869 59.72 183.17)" class="st2 st6 st4">U</text>
<text transform="matrix(0.9371 0.3489 -0.3489 0.9371 70.63 188.7399)" class="st2 st6 st7">T</text>
<text transform="matrix(0.9627 0.2707 -0.2707 0.9627 80.8301 192.4008)" class="st2 st6 st8">I</text>
<text transform="matrix(0.9821 0.1886 -0.1886 0.9821 85.72 193.88)" class="st2 st6 st4">S</text>
<text transform="matrix(0.9968 7.974522e-02 -7.974522e-02 0.9968 96.8404 195.9507)" class="st2 st6 st9">T</text>
<text transform="matrix(0.9999 -1.623085e-02 1.623085e-02 0.9999 107.76 196.63)" class="st2 st6 st4">I</text>
<text transform="matrix(0.9949 -0.1007 0.1007 0.9949 112.85 196.72)" class="st2 st6 st4">C</text>
<text transform="matrix(0.9728 -0.2317 0.2317 0.9728 126.4 195.19)" class="st2 st6 st4">S</text>
<text transform="matrix(0.9145 -0.4047 0.4047 0.9145 142.8999 190.67)" class="st2 st6 st4">U</text>
<text transform="matrix(0.853 -0.5219 0.5219 0.853 154.4801 185.4495)" class="st2 st6 st10">N</text>
<text transform="matrix(0.8 -0.6 0.6 0.8 164.9899 178.7501)" class="st2 st6 st4">I</text>
<text transform="matrix(0.7492 -0.6624 0.6624 0.7492 169.1199 175.7699)" class="st2 st6 st4">T</text>
<text transform="matrix(0.6724 -0.7402 0.7402 0.6724 177.3599 168.3695)" class="st2 st6 st4">E</text>
<text transform="matrix(0.5796 -0.8149 0.8149 0.5796 184.2899 160.7199)" class="st2 st6 st4">D</text>
</svg>
