<svg id="Layer_1" data-name="Layer 1" xmlns="http://www.w3.org/2000/svg" viewBox="0 0 216 216"><defs><style>.cls-1,.cls-2{fill:#94bbe3;}.cls-2{stroke:#fff;stroke-miterlimit:10;}.cls-3{isolation:isolate;}.cls-4{fill:#f1f2f2;}</style></defs><title>icon</title><circle class="cls-1" cx="108" cy="108" r="108"/><path class="cls-2" d="M80.9,72.9c6.1-10-2.3-18.2-2.3-18.2-5.2-5.2-12.9-5.8-17.3-1.4s-3.8,12.2,1.4,17.3c0,.1,8.3,8.5,18.2,2.3h0c12-7.4,22,2.8,22,2.8,6.2,6.2,7,15.6,1.7,20.9s-14.7,4.6-20.9-1.7c0,0-8.1-7.9-4.6-18.1h0A23.22,23.22,0,0,0,83,75c-6.1,10,2.3,18.2,2.3,18.2,5.2,5.2,12.9,5.8,17.3,1.4s3.8-12.2-1.4-17.3c0,0-7.6-8.2-17.7-2.6l-.6.3c-12,7.4-22-2.8-22-2.8-6.2-6.2-7-15.6-1.7-20.9l.5-.4c5.8-4.7,14.2-4.1,20.5,2.1,0,0,8,8,4.6,18.1"/><path class="cls-2" d="M135.4,127c6.1-10-2.3-18.2-2.3-18.2-5.2-5.2-12.9-5.8-17.3-1.4s-3.8,12.2,1.4,17.3c0,0,8.2,8.5,18.2,2.3h0c12-7.4,22,2.8,22,2.8,6.2,6.2,7,15.6,1.7,20.9s-14.7,4.6-20.9-1.7c0,0-8.1-7.9-4.6-18.1h0a23.22,23.22,0,0,0,3.9-1.8c-6.1,10,2.3,18.2,2.3,18.2,5.2,5.2,12.9,5.8,17.3,1.4s3.8-12.2-1.4-17.3c0,0-7.6-8.2-17.7-2.6l-.5.3c-12,7.4-22-2.8-22-2.8-6.2-6.2-7-15.6-1.7-20.9l.5-.4c5.8-4.7,14.2-4.1,20.5,2.1,0,0,8,8,4.6,18.1"/><path class="cls-2" d="M135.4,75c-10-6.1-18.2,2.3-18.2,2.3-5.2,5.2-5.8,12.9-1.4,17.3s12.2,3.8,17.3-1.4c0,.1,8.4-8.2,2.3-18.2h0c-7.4-12,2.8-22,2.8-22,6.2-6.2,15.6-7,20.9-1.7s4.6,14.7-1.7,20.9c0,0-7.9,8.1-18.1,4.6h0a23.22,23.22,0,0,0-1.8-3.9c10,6.1,18.2-2.3,18.2-2.3,5.2-5.2,5.8-12.9,1.4-17.3s-12.2-3.8-17.3,1.4c0,0-8.2,7.6-2.6,17.7l.3.5c7.4,12-2.8,22-2.8,22-6.2,6.2-15.6,7-20.9,1.7l-.4-.5c-4.7-5.8-4.1-14.2,2.1-20.5,0,0,8-8,18.1-4.6"/><path class="cls-2" d="M80.9,129.1c-10-6.1-18.2,2.3-18.2,2.3-5.2,5.2-5.8,12.9-1.4,17.3s12.2,3.8,17.3-1.4c0,0,8.4-8.3,2.3-18.2h0c-7.4-12,2.8-22,2.8-22,6.2-6.2,15.6-7,20.9-1.7s4.6,14.7-1.7,20.9c0,0-7.9,8.1-18.1,4.6h0A23.22,23.22,0,0,0,83,127c10,6.1,18.2-2.3,18.2-2.3,5.2-5.2,5.8-12.9,1.4-17.3s-12.2-3.8-17.3,1.4c0,0-8.2,7.6-2.6,17.7l.3.5c7.4,12-2.8,22-2.8,22-6.2,6.2-15.6,7-20.9,1.7l-.4-.5c-4.7-5.8-4.1-14.2,2.1-20.5,0,0,8-8,18.1-4.6"/><path class="cls-2" d="M97,71.8a16.47,16.47,0,0,1,8.2-9.2h0a19,19,0,0,0,4,1.4,13.67,13.67,0,0,0-10.1,8.8Z"/><path class="cls-2" d="M120.1,75.1a13.42,13.42,0,0,1,.4,3.5c0,7.3-5,13.2-11.3,13.2S97.9,85.9,97.9,78.6a14.08,14.08,0,0,1,.5-3.5L96.3,74a18.42,18.42,0,0,0-.7,4.7c0,8.8,6.1,16,13.6,16s13.6-7.1,13.6-16a18.42,18.42,0,0,0-.7-4.7Z"/><path class="cls-2" d="M109.2,61.2c11.4-2.7,11.3-14.5,11.3-14.5,0-7.3-5-13.2-11.3-13.2S97.9,39.4,97.9,46.7c0,0-.1,11.8,11.3,14.5h0a16.6,16.6,0,0,1,12.2,10.6l-2,1a13.82,13.82,0,0,0-9.6-8.6l-.6-.1C95.4,60.8,95.6,46.6,95.6,46.6c0-8.8,6.1-16,13.6-16h.6c7.4.8,13,7.1,13,16,0,0,0,11.4-9.5,16.1"/><path class="cls-2" d="M97.1,130.2a16.47,16.47,0,0,0,8.2,9.2h0a19,19,0,0,1,4-1.4,13.67,13.67,0,0,1-10.1-8.8Z"/><path class="cls-2" d="M120.2,126.9a13.42,13.42,0,0,0,.4-3.5c0-7.3-5-13.2-11.3-13.2S98,116.1,98,123.4a14.08,14.08,0,0,0,.5,3.5L96.4,128a18.42,18.42,0,0,1-.7-4.7c0-8.8,6.1-16,13.6-16s13.6,7.1,13.6,16a18.42,18.42,0,0,1-.7,4.7Z"/><path class="cls-2" d="M109.3,140.8c11.4,2.7,11.3,14.5,11.3,14.5,0,7.3-5,13.2-11.3,13.2S98,162.6,98,155.3c0,0-.1-11.9,11.3-14.5h0a16,16,0,0,0,12.1-10.4l-2.1-1.1a13.6,13.6,0,0,1-9.4,8.5l-.6.1c-13.8,3.3-13.6,17.5-13.6,17.5,0,8.8,6.1,16,13.6,16h.6c7.4-.8,13-7.1,13-16,0,0,0-11.4-9.5-16.1"/><path class="cls-2" d="M79.6,113.4a15.72,15.72,0,0,1-8.8-8h0a19,19,0,0,0,1.4-4,13.32,13.32,0,0,0,8.4,10Z"/><path class="cls-2" d="M83.2,90.4a13.42,13.42,0,0,1,3.5-.4c7.3,0,13.2,5,13.2,11.3S94,112.6,86.7,112.6a26.29,26.29,0,0,1-3.9-.6l-1.1,2.2a22.36,22.36,0,0,0,5.1.7c8.8,0,16-6.1,16-13.6s-7.1-13.6-16-13.6a18.42,18.42,0,0,0-4.7.7Z"/><path class="cls-2" d="M69.3,101.3C66.6,89.9,54.8,90,54.8,90c-7.3,0-13.2,5-13.2,11.3s5.9,11.3,13.2,11.3c0,0,11.8.1,14.5-11.3h0A16,16,0,0,1,79.7,89.2l.9,2.1a13.74,13.74,0,0,0-8.3,9.4l-.1.6c-3.3,13.8-17.5,13.6-17.5,13.6-8.8,0-16-6.1-16-13.6v-.6c.8-7.4,7.1-13,16-13,0,0,11.4,0,16.1,9.5"/><path class="cls-2" d="M138.8,112.9a15.72,15.72,0,0,0,8.8-8h0a19,19,0,0,1-1.4-4,13.32,13.32,0,0,1-8.4,10Z"/><path class="cls-2" d="M135.5,90.1a23.18,23.18,0,0,0-3.8-.6c-7.3,0-13.2,5-13.2,11.3s5.9,11.3,13.2,11.3a14.08,14.08,0,0,0,3.5-.5l1.1,2.1a18.42,18.42,0,0,1-4.7.7c-8.8,0-16-6.1-16-13.6s7.1-13.6,16-13.6a16.79,16.79,0,0,1,5,.7Z"/><path class="cls-2" d="M149.1,100.8c2.7-11.4,14.5-11.3,14.5-11.3,7.3,0,13.2,5,13.2,11.3s-5.9,11.3-13.2,11.3c0,0-11.8.1-14.5-11.3h0a16,16,0,0,0-10.4-12.1l-.9,2.1a13.74,13.74,0,0,1,8.3,9.4l.1.6c3.3,13.8,17.5,13.6,17.5,13.6,8.8,0,16-6.1,16-13.6v-.6c-.8-7.4-7.1-13-16-13,0,0-11.4,0-16.1,9.5"/><g class="cls-3"><path class="cls-4" d="M27.09,148.16a.23.23,0,0,1,.26-.19l.38,0a.23.23,0,0,1,.22.24,4.9,4.9,0,0,0,.66,3.69c.64,1,2.25,2.43,3.87,1.38,1.4-.9.76-2.46.23-4.22-.7-2.37-.81-3.92.68-4.87,1.23-.79,3.18-.88,4.76,1.57a5.52,5.52,0,0,1,1,3.7c0,.15-.11.21-.27.21h-.38c-.12,0-.22-.08-.2-.25a5.09,5.09,0,0,0-.81-3.21C36.4,144.55,35,144.35,34,145s-1,2-.35,4.09c.43,1.39,1.41,3.73-.6,5-1.38.89-3.52.7-5.07-1.7A5.46,5.46,0,0,1,27.09,148.16Z"/></g><g class="cls-3"><path class="cls-4" d="M45.42,156.22l-.22.18a.26.26,0,0,1-.36,0l-3.27-4-4,3.24,2.32,2.88a.25.25,0,0,1,0,.35l-.25.2a.25.25,0,0,1-.34,0l-2.32-2.88-3.79,3.06a.24.24,0,0,1-.35,0l-.29-.36a.26.26,0,0,1,0-.36l8.84-7.13a.26.26,0,0,1,.36,0l.29.36,3.42,4.23A.26.26,0,0,1,45.42,156.22Z"/></g><g class="cls-3"><path class="cls-4" d="M52.4,163.36l-4.81,4.88c-2,2-4.07,2.8-6.33.57s-1.53-4.3.48-6.34l4.81-4.88a.26.26,0,0,1,.37,0l.33.32a.25.25,0,0,1,0,.36l-4.54,4.6c-2.06,2.09-2.63,3.65-.87,5.38s3.31,1.15,5.37-.95l4.54-4.6a.26.26,0,0,1,.37,0l.33.32A.25.25,0,0,1,52.4,163.36Z"/></g><g class="cls-3"><path class="cls-4" d="M58.12,182.16l-.79-.55a.22.22,0,0,1-.08-.27l.54-2.46-4.7-3.28L51,177a.23.23,0,0,1-.27,0l-.79-.55a.25.25,0,0,1,0-.42l10.5-6.68a.23.23,0,0,1,.27,0l.25.17.11.08a.2.2,0,0,1,.08.24L58.51,182A.25.25,0,0,1,58.12,182.16Zm0-4.61,1.31-6-5.16,3.3Z"/></g><g class="cls-3"><path class="cls-4" d="M73.93,177.5l-3.09,5.94c-1.4,2.65-3.26,4-6.22,2.44s-3-3.83-1.57-6.49l3.09-5.94a.27.27,0,0,1,.35-.12l.89.46a.25.25,0,0,1,.08.35l-2.94,5.65c-1.32,2.53-1.17,4,.68,5s3.15.23,4.47-2.3l2.94-5.65a.27.27,0,0,1,.35-.12l.89.46A.25.25,0,0,1,73.93,177.5Z"/></g><g class="cls-3"><path class="cls-4" d="M83.61,181.17l-.26.68A.25.25,0,0,1,83,182l-3.19-1.19-3.62,9.73a.26.26,0,0,1-.33.15l-.94-.35a.25.25,0,0,1-.13-.32l3.62-9.73-3.19-1.19a.26.26,0,0,1-.15-.33l.26-.68a.28.28,0,0,1,.33-.17l3.62,1.35.73.27,3.43,1.28A.26.26,0,0,1,83.61,181.17Z"/></g><g class="cls-3"><path class="cls-4" d="M82.1,192.5l3.07-10.91a.26.26,0,0,1,.31-.17l1,.27a.25.25,0,0,1,.16.31l-3.07,10.9a.24.24,0,0,1-.3.18l-1-.27A.26.26,0,0,1,82.1,192.5Z"/></g><g class="cls-3"><path class="cls-4" d="M86.93,192.61a.28.28,0,0,1,.06-.33l.62-.5a.26.26,0,0,1,.38,0,4.81,4.81,0,0,0,3,2c.82.16,2.91.14,3.23-1.54.27-1.38-1.16-2-2.61-2.66-2.31-1.08-3.63-2.23-3.28-4.06.26-1.37,1.63-3,4.69-2.41A5.89,5.89,0,0,1,96.65,185c.11.13.06.25-.05.37l-.61.56c-.07.09-.21.1-.32,0a5,5,0,0,0-2.81-1.56c-1.55-.3-2.8.27-3,1.36s.81,1.88,2.51,2.67c1.43.64,3.84,1.69,3.37,4.13-.27,1.4-1.74,3.12-4.94,2.5A5.72,5.72,0,0,1,86.93,192.61Z"/></g><g class="cls-3"><path class="cls-4" d="M107.26,185.12l-.06.73a.25.25,0,0,1-.26.24l-3.39-.27-.83,10.35a.26.26,0,0,1-.27.23l-1-.08a.25.25,0,0,1-.22-.27l.83-10.35-3.39-.27a.26.26,0,0,1-.23-.27l.06-.73a.28.28,0,0,1,.28-.25l3.85.31.78.06,3.64.29A.26.26,0,0,1,107.26,185.12Z"/></g><g class="cls-3"><path class="cls-4" d="M109,196.36,108.83,185a.26.26,0,0,1,.25-.26l1,0a.25.25,0,0,1,.24.25l.19,11.36a.25.25,0,0,1-.23.26l-1,0A.26.26,0,0,1,109,196.36Z"/></g><g class="cls-3"><path class="cls-4" d="M113,190.74a6.08,6.08,0,0,1,5.43-6.65,5.61,5.61,0,0,1,4.65,1.63.23.23,0,0,1,0,.32l-.55.67a.23.23,0,0,1-.36,0,4.46,4.46,0,0,0-3.63-1.39,4.73,4.73,0,0,0-4.07,5.25,4.81,4.81,0,0,0,5,4.33,4.44,4.44,0,0,0,3.37-2.23.25.25,0,0,1,.37-.07l.63.5a.24.24,0,0,1,.07.33,5.68,5.68,0,0,1-4.31,2.72A6.1,6.1,0,0,1,113,190.74Z"/></g><g class="cls-3"><path class="cls-4" d="M127,193.54a.28.28,0,0,1-.08-.33l.35-.71a.26.26,0,0,1,.35-.15,4.81,4.81,0,0,0,3.58.54c.81-.19,2.71-1.06,2.31-2.73-.33-1.37-1.86-1.32-3.48-1.35-2.55,0-4.22-.54-4.66-2.36-.32-1.35.25-3.41,3.29-4.13a5.9,5.9,0,0,1,4.06.27c.16.07.15.21.1.36l-.33.76c0,.11-.15.17-.31.11a5,5,0,0,0-3.2-.27c-1.53.37-2.44,1.4-2.18,2.47s1.51,1.38,3.38,1.41c1.57,0,4.19,0,4.77,2.39.33,1.38-.3,3.56-3.47,4.31A5.72,5.72,0,0,1,127,193.54Z"/></g><g class="cls-3"><path class="cls-4" d="M147.34,176l2.71,6.12c1.2,2.75,1.08,5-2,6.38s-4.84-.08-6.05-2.83l-2.71-6.12a.27.27,0,0,1,.12-.35l.92-.4a.25.25,0,0,1,.33.15l2.58,5.83c1.15,2.6,2.4,3.42,4.31,2.58s2.14-2.32,1-4.92L146,176.63a.27.27,0,0,1,.12-.35l.92-.4A.25.25,0,0,1,147.34,176Z"/></g><g class="cls-3"><path class="cls-4" d="M157.14,170.25l5.91,9.67a.24.24,0,0,1-.09.33l-.5.31-.13.08a.52.52,0,0,1-.48,0l-9.78-4.37,4.61,7.54a.23.23,0,0,1-.08.33l-.85.52a.25.25,0,0,1-.34-.07l-5.92-9.67a.26.26,0,0,1,.08-.35l.51-.31.14-.09a.52.52,0,0,1,.48,0l9.81,4.41L155.88,171a.25.25,0,0,1,.07-.34l.85-.52A.26.26,0,0,1,157.14,170.25Z"/></g><g class="cls-3"><path class="cls-4" d="M165.84,177.79,159,168.71a.26.26,0,0,1,.05-.36l.8-.6a.25.25,0,0,1,.34.06L167,176.9a.25.25,0,0,1,0,.35l-.8.6A.26.26,0,0,1,165.84,177.79Z"/></g><g class="cls-3"><path class="cls-4" d="M168.55,160.79l.48.55a.25.25,0,0,1,0,.35l-2.54,2.25,6.86,7.76a.26.26,0,0,1,0,.36l-.75.66a.25.25,0,0,1-.35,0l-6.86-7.76-2.54,2.25a.26.26,0,0,1-.36,0l-.48-.55a.28.28,0,0,1,0-.37l2.88-2.55.58-.52,2.73-2.41A.26.26,0,0,1,168.55,160.79Z"/></g><g class="cls-3"><path class="cls-4" d="M182.26,161.49l.55.5a.26.26,0,0,1,0,.36l-4.06,4.47-.41.45a.26.26,0,0,1-.36,0l-8.41-7.64a.26.26,0,0,1,0-.36l.67-.74,3.78-4.17a.25.25,0,0,1,.35,0l.55.5a.25.25,0,0,1,0,.35l-3.62,4,3,2.72,2.5-2.75a.25.25,0,0,1,.35,0l.58.52a.25.25,0,0,1,0,.35l-2.5,2.75,3,2.72,3.63-4A.26.26,0,0,1,182.26,161.49Z"/></g><g class="cls-3"><path class="cls-4" d="M187.38,156.37l-2,2.78-.26.36a.26.26,0,0,1-.35.06L175.54,153a.26.26,0,0,1-.06-.35l.58-.82,1.69-2.38c1.72-2.27,4.83-2.85,7.82-.72S189,154,187.38,156.37Zm-2.68-6.44c-2.45-1.74-4.85-1.29-6,.36l-1.46,2.06,7.63,5.42,1.46-2.06C187.48,154.07,187.14,151.66,184.71,149.93Z"/></g></svg>