<svg id="Layer_1" data-name="Layer 1" xmlns="http://www.w3.org/2000/svg" viewBox="0 0 254.09 260.44"><defs><style>.cls-1{fill:#fff;stroke:#94bbe3;stroke-linejoin:round;stroke-width:1.25px;}.cls-2,.cls-3{font-size:24px;fill:#94bbe3;}.cls-2{font-family:WoodfordBourne-Thin, Woodford Bourne;}.cls-3{font-family:WoodfordBourne-Regular, Woodford Bourne;}</style></defs><title>sfu-au-icon</title><path class="cls-1" d="M352.32,248.43c8.7-14.09-3.23-25.81-3.23-25.81-7.31-7.31-18.29-8.18-24.53-1.95s-5.36,17.22,1.95,24.53c0,0,11.72,11.93,25.81,3.23h0c17-10.51,31.19,3.9,31.19,3.9,8.84,8.84,9.89,22.11,2.35,29.64s-20.81,6.48-29.64-2.35c0,0-11.41-11.21-6.53-25.67h0a26.85,26.85,0,0,0,5.5-2.61c-8.68,14.09,3.24,25.79,3.24,25.79,7.31,7.31,18.29,8.18,24.53,1.95s5.36-17.22-1.95-24.53c0,0-10.76-11.56-25-3.69l-.76.47c-17,10.51-31.19-3.9-31.19-3.9-8.84-8.84-9.89-22.11-2.35-29.64l.66-.62c8.24-6.64,20.15-5.86,29,3,0,0,11.39,11.39,6.54,25.66" transform="translate(-262.21 -170.11)"/><path class="cls-1" d="M429.47,324.93c8.7-14.09-3.23-25.81-3.23-25.81-7.31-7.31-18.29-8.18-24.53-1.95s-5.36,17.22,1.95,24.53c0,0,11.72,11.93,25.81,3.23h0c17-10.51,31.19,3.9,31.19,3.9,8.84,8.84,9.89,22.11,2.35,29.64s-20.81,6.48-29.64-2.35c0,0-11.41-11.21-6.53-25.67h0a26.85,26.85,0,0,0,5.5-2.61c-8.68,14.09,3.24,25.79,3.24,25.79,7.31,7.31,18.29,8.18,24.53,1.95s5.36-17.22-1.95-24.53c0,0-10.76-11.56-25-3.69l-.76.47c-17,10.51-31.19-3.9-31.19-3.9-8.84-8.84-9.89-22.11-2.35-29.64l.66-.62c8.24-6.64,20.15-5.86,29,3,0,0,11.39,11.39,6.54,25.66" transform="translate(-262.21 -170.11)"/><path class="cls-1" d="M429.46,251.32c-14.09-8.7-25.81,3.23-25.81,3.23-7.31,7.31-8.18,18.29-1.95,24.53s17.22,5.36,24.53-1.95c0,0,11.93-11.72,3.23-25.81h0c-10.51-17,3.9-31.19,3.9-31.19,8.84-8.84,22.11-9.89,29.64-2.35s6.48,20.81-2.35,29.64c0,0-11.21,11.41-25.67,6.53h0a26.85,26.85,0,0,0-2.61-5.5c14.09,8.68,25.79-3.24,25.79-3.24,7.31-7.31,8.18-18.29,1.95-24.53s-17.22-5.36-24.53,1.95c0,0-11.56,10.76-3.69,25l.47.76c10.51,17-3.9,31.19-3.9,31.19-8.84,8.84-22.11,9.89-29.64,2.35l-.62-.66c-6.64-8.24-5.86-20.15,3-29,0,0,11.39-11.39,25.66-6.54" transform="translate(-262.21 -170.11)"/><path class="cls-1" d="M352.31,327.82c-14.09-8.7-25.81,3.23-25.81,3.23-7.31,7.31-8.18,18.29-1.95,24.53s17.22,5.36,24.53-1.95c0,0,11.93-11.72,3.23-25.81h0c-10.51-17,3.9-31.19,3.9-31.19,8.84-8.84,22.11-9.89,29.64-2.35s6.48,20.81-2.35,29.64c0,0-11.21,11.41-25.67,6.53h0a26.85,26.85,0,0,0-2.61-5.5c14.09,8.68,25.79-3.24,25.79-3.24,7.31-7.31,8.18-18.29,1.95-24.53s-17.22-5.36-24.53,1.95c0,0-11.56,10.76-3.69,25l.47.76c10.51,17-3.9,31.19-3.9,31.19-8.84,8.84-22.11,9.89-29.64,2.35l-.62-.66c-6.64-8.24-5.86-20.15,3-29,0,0,11.39-11.39,25.66-6.54" transform="translate(-262.21 -170.11)"/><path class="cls-1" d="M375.06,246.75a23.45,23.45,0,0,1,11.55-13h0a26.85,26.85,0,0,0,5.74,2A19.47,19.47,0,0,0,378,248.27Z" transform="translate(-262.21 -170.11)"/><path class="cls-1" d="M407.76,251.44a21.13,21.13,0,0,1,.57,4.93c0,10.34-7.15,18.72-16,18.72s-16-8.38-16-18.72a22.65,22.65,0,0,1,.66-4.94l-3-1.55a28,28,0,0,0-1,6.68c0,12.5,8.64,22.62,19.3,22.62s19.3-10.13,19.3-22.62a28,28,0,0,0-1-6.65Z" transform="translate(-262.21 -170.11)"/><path class="cls-1" d="M392.36,231.75c16.12-3.82,16-20.53,16-20.53,0-10.34-7.15-18.72-16-18.72s-16,8.38-16,18.72c0,0-.15,16.72,16,20.53h0a23.54,23.54,0,0,1,17.31,15l-2.89,1.46a19.66,19.66,0,0,0-13.55-12.17l-.87-.21c-19.48-4.61-19.3-24.82-19.3-24.82,0-12.5,8.64-22.62,19.3-22.62l.91,0c10.52,1.13,18.39,10.1,18.39,22.6,0,0,0,16.11-13.52,22.77" transform="translate(-262.21 -170.11)"/><path class="cls-1" d="M375.23,329.38a23.45,23.45,0,0,0,11.55,13h0a26.85,26.85,0,0,1,5.74-2,19.47,19.47,0,0,1-14.31-12.43Z" transform="translate(-262.21 -170.11)"/><path class="cls-1" d="M407.93,324.69a21.13,21.13,0,0,0,.57-4.93c0-10.34-7.15-18.72-16-18.72s-16,8.38-16,18.72a22.65,22.65,0,0,0,.66,4.94l-3,1.55a28,28,0,0,1-1-6.68c0-12.5,8.64-22.62,19.3-22.62s19.3,10.13,19.3,22.62a28,28,0,0,1-1,6.65Z" transform="translate(-262.21 -170.11)"/><path class="cls-1" d="M392.54,344.38c16.12,3.82,16,20.53,16,20.53,0,10.34-7.15,18.72-16,18.72s-16-8.38-16-18.72c0,0-.15-16.72,16-20.53h0c10.26-2.43,14.93-8.85,17.18-14.69l-3-1.59c-1.77,4.59-5.31,9.65-13.32,12l-.87.21c-19.48,4.61-19.3,24.82-19.3,24.82,0,12.5,8.64,22.62,19.3,22.62l.91,0c10.52-1.13,18.39-10.1,18.39-22.6,0,0,0-16.11-13.52-22.77" transform="translate(-262.21 -170.11)"/><path class="cls-1" d="M350.42,305.58a22.31,22.31,0,0,1-12.49-11.36h0a26.85,26.85,0,0,0,2-5.74c2,8.47,7.07,12.23,11.9,14.09Z" transform="translate(-262.21 -170.11)"/><path class="cls-1" d="M355.58,273.07a21.13,21.13,0,0,1,4.93-.57c10.34,0,18.72,7.15,18.72,16s-8.38,16-18.72,16a36.67,36.67,0,0,1-5.5-.85l-1.55,3.15a32.86,32.86,0,0,0,7.24,1c12.5,0,22.62-8.64,22.62-19.3s-10.13-19.3-22.62-19.3a28,28,0,0,0-6.65,1Z" transform="translate(-262.21 -170.11)"/><path class="cls-1" d="M335.89,288.46c-3.82-16.12-20.53-16-20.53-16-10.34,0-18.72,7.15-18.72,16s8.38,16,18.72,16c0,0,16.72.15,20.53-16h0c2.43-10.26,8.82-14.92,14.67-17.17l1.34,2.95c-4.59,1.77-9.37,5.34-11.69,13.36l-.21.87c-4.61,19.48-24.82,19.3-24.82,19.3-12.5,0-22.62-8.64-22.62-19.3l0-.91c1.13-10.52,10.1-18.39,22.6-18.39,0,0,16.11,0,22.77,13.52" transform="translate(-262.21 -170.11)"/><path class="cls-1" d="M434.3,305a22.31,22.31,0,0,0,12.49-11.36h0a26.85,26.85,0,0,1-2-5.74c-2,8.47-7.07,12.23-11.9,14.09Z" transform="translate(-262.21 -170.11)"/><path class="cls-1" d="M429.54,272.7a37.14,37.14,0,0,0-5.32-.8c-10.34,0-18.72,7.15-18.72,16s8.38,16,18.72,16a22.65,22.65,0,0,0,4.94-.66l1.55,3a28,28,0,0,1-6.68,1c-12.5,0-22.62-8.64-22.62-19.3s10.13-19.3,22.62-19.3a29.15,29.15,0,0,1,7.08.94Z" transform="translate(-262.21 -170.11)"/><path class="cls-1" d="M448.84,287.87c3.82-16.12,20.53-16,20.53-16,10.34,0,18.72,7.15,18.72,16s-8.38,16-18.72,16c0,0-16.72.15-20.53-16h0c-2.43-10.26-8.82-14.92-14.67-17.17l-1.34,2.95c4.59,1.77,9.37,5.34,11.69,13.36l.21.87c4.61,19.48,24.82,19.3,24.82,19.3,12.5,0,22.62-8.64,22.62-19.3l0-.91c-1.13-10.52-10.1-18.39-22.6-18.39,0,0-16.11,0-22.77,13.52" transform="translate(-262.21 -170.11)"/><text x="-262.21" y="-170.11"></text><text class="cls-2" transform="translate(11.47 184.74) rotate(57.21)">S</text><text class="cls-2" transform="translate(20.39 198.26) rotate(50.97)">F</text><text class="cls-2" transform="matrix(0.71, 0.7, -0.7, 0.71, 28.98, 208.85)">U</text><text class="cls-2" transform="translate(41.07 220.35) rotate(39.79)"> </text><text class="cls-3" transform="translate(45.62 224.41) rotate(34.64)">A</text><text class="cls-3" transform="translate(60.88 234.8) rotate(27.12)">U</text><text class="cls-3" transform="translate(76.59 242.66) rotate(20.09)">T</text><text class="cls-3" transform="matrix(0.96, 0.26, -0.26, 0.96, 91.22, 247.76)">I</text><text class="cls-3" transform="translate(98.31 249.83) rotate(10.26)">S</text><text class="cls-3" transform="translate(114.26 252.62) rotate(3.63)">T</text><text class="cls-3" transform="translate(129.68 253.37) rotate(-1.08)">I</text><text class="cls-3" transform="translate(137.21 253.42) rotate(-6.57)">C</text><text class="cls-3" transform="matrix(0.97, -0.25, 0.25, 0.97, 156.53, 250.96)">S</text><text class="cls-3" transform="matrix(0.94, -0.34, 0.34, 0.94, 174.27, 246.01)"> </text><text class="cls-3" transform="translate(180.13 244.07) rotate(-24.89)">U</text><text class="cls-3" transform="translate(196.55 236.3) rotate(-32.61)">N</text><text class="cls-3" transform="matrix(0.79, -0.61, 0.61, 0.79, 211.38, 226.44)">I</text><text class="cls-3" transform="translate(217.22 222.03) rotate(-42.67)">T</text><text class="cls-3" transform="translate(228.8 211.16) rotate(-49.04)">E</text><text class="cls-3" transform="translate(238.51 199.95) rotate(-55.96)">D</text></svg>