<svg id="Layer_1" data-name="Layer 1" xmlns="http://www.w3.org/2000/svg" xmlns:xlink="http://www.w3.org/1999/xlink" viewBox="0 0 288 288"><defs><style>.cls-1,.cls-2{fill:#fff;}.cls-2{stroke:#94bbe3;}.cls-2,.cls-3{stroke-linejoin:round;stroke-width:3.8px;}.cls-3{stroke:#000;fill:url(#linear-gradient);}</style><linearGradient id="linear-gradient" x1="481.71" y1="441.1" x2="757.6" y2="441.1" gradientUnits="userSpaceOnUse"><stop offset="0.1" stop-color="#ed1c24"/><stop offset="0.27" stop-color="#f26522"/><stop offset="0.43" stop-color="#ffde17"/><stop offset="0.61" stop-color="#00a14b"/><stop offset="0.76" stop-color="#21409a"/><stop offset="0.88" stop-color="#7f3f98"/></linearGradient></defs><title>infinity</title><rect class="cls-1" width="288" height="288"/><path class="cls-2" d="M657.62,493.14" transform="translate(-475.78 -305.48)"/><path class="cls-2" d="M662.05,484" transform="translate(-475.78 -305.48)"/><path class="cls-2" d="M673.3,394.32" transform="translate(-475.78 -305.48)"/><path class="cls-2" d="M668.63,385.41" transform="translate(-475.78 -305.48)"/><path class="cls-3" d="M613.45,441.1c-11.59-49-62.41-48.53-62.41-48.53-31.42,0-56.9,21.73-56.9,48.53s25.47,48.53,56.9,48.53c0,0,50.81.46,62.41-48.53h0c7.38-31.17,26.8-45.34,44.57-52.19l10.64-3.5a85,85,0,0,1,20.21-3c38,0,68.76,26.26,68.76,58.65s-30.79,58.65-68.76,58.65a99.86,99.86,0,0,1-22-3.14l-9.21-3.47c-14-5.41-28.35-15.1-38-34.53h0a81.6,81.6,0,0,0,6.21-17.44c6.12,25.75,21.48,37.18,36.18,42.84l9.5,3a111.44,111.44,0,0,0,16.72,2.58c31.42,0,56.9-21.73,56.9-48.53s-25.47-48.53-56.9-48.53a64.23,64.23,0,0,0-15,1.74l-11.25,3.55c-13.95,5.37-28.47,16.22-35.52,40.59l-.64,2.64c-14,59.2-75.42,58.65-75.42,58.65-38,0-68.76-26.26-68.76-58.65l.08-2.75c3.44-32,30.71-55.9,68.68-55.9,0,0,49,0,69.21,41.1" transform="translate(-475.78 -305.48)"/></svg>